Sprat-Condensed Black.ufo
<glyph name="exclam" format="2">
  <advance width="363"/>
  <unicode hex="0021"/>
  <outline>
    <contour>
      <point x="104" y="229" type="line"/>
      <point x="254" y="229" type="line"/>
      <point x="324" y="700" type="line"/>
      <point x="34" y="700" type="line"/>
    </contour>
    <contour>
      <point x="183" y="-15" type="curve" smooth="yes"/>
      <point x="227" y="-15"/>
      <point x="271" y="12"/>
      <point x="271" y="66" type="curve" smooth="yes"/>
      <point x="271" y="123"/>
      <point x="227" y="151"/>
      <point x="182" y="151" type="curve" smooth="yes"/>
      <point x="137" y="151"/>
      <point x="93" y="124"/>
      <point x="93" y="68" type="curve" smooth="yes"/>
      <point x="93" y="12"/>
      <point x="137" y="-15"/>
    </contour>
  </outline>
</glyph>
<glyph name="quotedbl" format="2">
  <advance width="427"/>
  <unicode hex="0022"/>
  <outline>
    <contour>
      <point x="260" y="452" type="line"/>
      <point x="366" y="497"/>
      <point x="380" y="575"/>
      <point x="375" y="643" type="curve" smooth="yes"/>
      <point x="372" y="687"/>
      <point x="340" y="714"/>
      <point x="304" y="714" type="curve" smooth="yes"/>
      <point x="266" y="714"/>
      <point x="235" y="686"/>
      <point x="235" y="645" type="curve" smooth="yes"/>
      <point x="235" y="603"/>
      <point x="268" y="575"/>
      <point x="304" y="575" type="curve" smooth="yes"/>
      <point x="314" y="575"/>
      <point x="323" y="577"/>
      <point x="332" y="581" type="curve"/>
      <point x="330" y="532"/>
      <point x="305" y="506"/>
      <point x="253" y="476" type="curve"/>
    </contour>
    <contour>
      <point x="70" y="452" type="line"/>
      <point x="176" y="497"/>
      <point x="190" y="575"/>
      <point x="185" y="643" type="curve" smooth="yes"/>
      <point x="182" y="687"/>
      <point x="150" y="714"/>
      <point x="114" y="714" type="curve" smooth="yes"/>
      <point x="76" y="714"/>
      <point x="45" y="686"/>
      <point x="45" y="645" type="curve" smooth="yes"/>
      <point x="45" y="603"/>
      <point x="78" y="575"/>
      <point x="114" y="575" type="curve" smooth="yes"/>
      <point x="124" y="575"/>
      <point x="133" y="577"/>
      <point x="142" y="581" type="curve"/>
      <point x="140" y="532"/>
      <point x="115" y="506"/>
      <point x="63" y="476" type="curve"/>
    </contour>
  </outline>
</glyph>
<glyph name="numbersign" format="2">
  <advance width="627"/>
  <unicode hex="0023"/>
  <outline>
    <contour>
      <point x="227" y="610" type="line"/>
      <point x="52" y="0" type="line"/>
      <point x="165" y="0" type="line"/>
      <point x="340" y="610" type="line"/>
    </contour>
    <contour>
      <point x="457" y="610" type="line"/>
      <point x="282" y="0" type="line"/>
      <point x="395" y="0" type="line"/>
      <point x="570" y="610" type="line"/>
    </contour>
    <contour>
      <point x="75" y="430" type="line"/>
      <point x="75" y="385" type="line"/>
      <point x="594" y="385" type="line"/>
      <point x="594" y="430" type="line"/>
    </contour>
    <contour>
      <point x="35" y="230" type="line"/>
      <point x="35" y="185" type="line"/>
      <point x="549" y="185" type="line"/>
      <point x="549" y="230" type="line"/>
    </contour>
  </outline>
</glyph>
<glyph name="dollar" format="2">
  <advance width="613"/>
  <unicode hex="0024"/>
  <outline>
    <contour>
      <point x="48" y="275" type="line"/>
      <point x="74" y="23" type="line"/>
      <point x="118" y="-46"/>
      <point x="225" y="-75"/>
      <point x="318" y="-75" type="curve" smooth="yes"/>
      <point x="440" y="-75"/>
      <point x="566" y="-16"/>
      <point x="566" y="139" type="curve" smooth="yes"/>
      <point x="566" y="379"/>
      <point x="258" y="328"/>
      <point x="258" y="512" type="curve" smooth="yes"/>
      <point x="258" y="549"/>
      <point x="288" y="594"/>
      <point x="331" y="594" type="curve" smooth="yes"/>
      <point x="405" y="594"/>
      <point x="465" y="486"/>
      <point x="507" y="337" type="curve"/>
      <point x="537" y="337" type="line"/>
      <point x="509" y="571" type="line"/>
      <point x="450" y="610"/>
      <point x="391" y="629"/>
      <point x="325" y="629" type="curve" smooth="yes"/>
      <point x="189" y="629"/>
      <point x="77" y="571"/>
      <point x="77" y="436" type="curve" smooth="yes"/>
      <point x="77" y="178"/>
      <point x="385" y="205"/>
      <point x="385" y="57" type="curve" smooth="yes"/>
      <point x="385" y="-3"/>
      <point x="342" y="-40"/>
      <point x="296" y="-40" type="curve" smooth="yes"/>
      <point x="220" y="-40"/>
      <point x="141" y="61"/>
      <point x="79" y="275" type="curve"/>
    </contour>
    <contour>
      <point x="215" y="587" type="line"/>
      <point x="250" y="587" type="line"/>
      <point x="250" y="750" type="line"/>
      <point x="215" y="750" type="line"/>
    </contour>
    <contour>
      <point x="382" y="587" type="line"/>
      <point x="417" y="587" type="line"/>
      <point x="417" y="750" type="line"/>
      <point x="382" y="750" type="line"/>
    </contour>
    <contour>
      <point x="215" y="-213" type="line"/>
      <point x="250" y="-213" type="line"/>
      <point x="250" y="-50" type="line"/>
      <point x="215" y="-50" type="line"/>
    </contour>
    <contour>
      <point x="382" y="-213" type="line"/>
      <point x="417" y="-213" type="line"/>
      <point x="417" y="-50" type="line"/>
      <point x="382" y="-50" type="line"/>
    </contour>
  </outline>
</glyph>
<glyph name="percent" format="2">
  <advance width="680"/>
  <unicode hex="0025"/>
  <outline>
    <contour>
      <point x="100" y="0" type="line"/>
      <point x="144" y="0" type="line"/>
      <point x="593" y="715" type="line"/>
      <point x="549" y="715" type="line"/>
    </contour>
    <contour>
      <point x="212" y="463" type="curve" smooth="yes"/>
      <point x="281" y="463"/>
      <point x="337" y="519"/>
      <point x="337" y="589" type="curve" smooth="yes"/>
      <point x="337" y="657"/>
      <point x="281" y="713"/>
      <point x="212" y="713" type="curve" smooth="yes"/>
      <point x="143" y="713"/>
      <point x="87" y="657"/>
      <point x="87" y="589" type="curve" smooth="yes"/>
      <point x="87" y="519"/>
      <point x="143" y="463"/>
    </contour>
    <contour>
      <point x="307" y="589" type="curve" smooth="yes"/>
      <point x="307" y="554"/>
      <point x="274" y="518"/>
      <point x="212" y="518" type="curve" smooth="yes"/>
      <point x="149" y="518"/>
      <point x="117" y="553"/>
      <point x="117" y="588" type="curve" smooth="yes"/>
      <point x="117" y="623"/>
      <point x="149" y="658"/>
      <point x="212" y="658" type="curve" smooth="yes"/>
      <point x="275" y="658"/>
      <point x="307" y="624"/>
    </contour>
    <contour>
      <point x="488" y="-14" type="curve" smooth="yes"/>
      <point x="556" y="-14"/>
      <point x="612" y="42"/>
      <point x="612" y="111" type="curve" smooth="yes"/>
      <point x="612" y="180"/>
      <point x="556" y="236"/>
      <point x="488" y="236" type="curve" smooth="yes"/>
      <point x="418" y="236"/>
      <point x="362" y="180"/>
      <point x="362" y="111" type="curve" smooth="yes"/>
      <point x="362" y="42"/>
      <point x="418" y="-14"/>
    </contour>
    <contour>
      <point x="582" y="111" type="curve" smooth="yes"/>
      <point x="582" y="76"/>
      <point x="550" y="41"/>
      <point x="488" y="41" type="curve" smooth="yes"/>
      <point x="424" y="41"/>
      <point x="392" y="76"/>
      <point x="392" y="111" type="curve" smooth="yes"/>
      <point x="392" y="146"/>
      <point x="424" y="181"/>
      <point x="488" y="181" type="curve" smooth="yes"/>
      <point x="551" y="181"/>
      <point x="582" y="146"/>
    </contour>
  </outline>
</glyph>
<glyph name="ampersand" format="2">
  <advance width="883"/>
  <unicode hex="0026"/>
  <outline>
    <contour>
      <point x="824" y="91" type="curve"/>
      <point x="791" y="102" type="line"/>
      <point x="776" y="57"/>
      <point x="764" y="37"/>
      <point x="749" y="37" type="curve" smooth="yes"/>
      <point x="730" y="37"/>
      <point x="705" y="73"/>
      <point x="657" y="131" type="curve" smooth="yes"/>
      <point x="397" y="459" type="line" smooth="yes"/>
      <point x="357" y="510"/>
      <point x="333" y="563"/>
      <point x="333" y="605" type="curve" smooth="yes"/>
      <point x="333" y="648"/>
      <point x="357" y="678"/>
      <point x="405" y="678" type="curve" smooth="yes"/>
      <point x="480" y="678"/>
      <point x="577" y="600"/>
      <point x="607" y="480" type="curve"/>
      <point x="647" y="480" type="line"/>
      <point x="626" y="639" type="line"/>
      <point x="584" y="691"/>
      <point x="499" y="715"/>
      <point x="426" y="715" type="curve" smooth="yes"/>
      <point x="280" y="715"/>
      <point x="169" y="639"/>
      <point x="169" y="534" type="curve" smooth="yes"/>
      <point x="169" y="494"/>
      <point x="185" y="450"/>
      <point x="222" y="405" type="curve" smooth="yes"/>
      <point x="496" y="59" type="line" smooth="yes"/>
      <point x="551" y="-11"/>
      <point x="661" y="-15"/>
      <point x="698" y="-15" type="curve" smooth="yes"/>
      <point x="776" y="-15"/>
      <point x="807" y="14"/>
    </contour>
    <contour>
      <point x="410" y="-15" type="curve" smooth="yes"/>
      <point x="565" y="-15"/>
      <point x="780" y="40"/>
      <point x="780" y="409" type="curve"/>
      <point x="585" y="409" type="line"/>
      <point x="585" y="184"/>
      <point x="556" y="20"/>
      <point x="417" y="20" type="curve" smooth="yes"/>
      <point x="339" y="20"/>
      <point x="268" y="105"/>
      <point x="268" y="230" type="curve" smooth="yes"/>
      <point x="268" y="287"/>
      <point x="280" y="354"/>
      <point x="317" y="414" type="curve"/>
      <point x="299" y="418" type="line"/>
      <point x="151" y="371"/>
      <point x="75" y="309"/>
      <point x="75" y="205" type="curve" smooth="yes"/>
      <point x="75" y="71"/>
      <point x="198" y="-15"/>
    </contour>
    <contour>
      <point x="513" y="409" type="line"/>
      <point x="780" y="409" type="line"/>
      <point x="780" y="434" type="line"/>
      <point x="513" y="434" type="line"/>
    </contour>
  </outline>
</glyph>
<glyph name="quotesingle" format="2">
  <advance width="240"/>
  <unicode hex="0027"/>
  <outline>
    <contour>
      <point x="76" y="464" type="line"/>
      <point x="176" y="496"/>
      <point x="189" y="575"/>
      <point x="185" y="643" type="curve" smooth="yes"/>
      <point x="182" y="687"/>
      <point x="150" y="714"/>
      <point x="114" y="714" type="curve" smooth="yes"/>
      <point x="76" y="714"/>
      <point x="45" y="686"/>
      <point x="45" y="645" type="curve" smooth="yes"/>
      <point x="45" y="603"/>
      <point x="78" y="575"/>
      <point x="114" y="575" type="curve" smooth="yes"/>
      <point x="124" y="575"/>
      <point x="133" y="577"/>
      <point x="142" y="581" type="curve"/>
      <point x="148" y="532"/>
      <point x="111" y="499"/>
      <point x="69" y="488" type="curve"/>
    </contour>
  </outline>
</glyph>
<glyph name="parenleft" format="2">
  <advance width="287"/>
  <unicode hex="0028"/>
  <outline>
    <contour>
      <point x="260" y="-97" type="curve"/>
      <point x="284" y="-70" type="line"/>
      <point x="160" y="29"/>
      <point x="135" y="176"/>
      <point x="136" y="330" type="curve" smooth="yes"/>
      <point x="137" y="485"/>
      <point x="160" y="633"/>
      <point x="284" y="731" type="curve"/>
      <point x="262" y="758" type="line"/>
      <point x="121" y="660"/>
      <point x="27" y="505"/>
      <point x="26" y="330" type="curve" smooth="yes"/>
      <point x="25" y="155"/>
      <point x="121" y="2"/>
    </contour>
  </outline>
</glyph>
<glyph name="parenright" format="2">
  <advance width="286"/>
  <unicode hex="0029"/>
  <outline>
    <contour>
      <point x="26" y="-97" type="line"/>
      <point x="165" y="2"/>
      <point x="261" y="155"/>
      <point x="260" y="330" type="curve" smooth="yes"/>
      <point x="259" y="505"/>
      <point x="165" y="660"/>
      <point x="24" y="758" type="curve"/>
      <point x="2" y="731" type="line"/>
      <point x="126" y="633"/>
      <point x="149" y="485"/>
      <point x="150" y="330" type="curve" smooth="yes"/>
      <point x="151" y="176"/>
      <point x="126" y="29"/>
      <point x="2" y="-70" type="curve"/>
    </contour>
  </outline>
</glyph>
<glyph name="asterisk" format="2">
  <advance width="493"/>
  <unicode hex="002A"/>
  <outline>
    <contour>
      <point x="446" y="567" type="line"/>
      <point x="416" y="631" type="line"/>
      <point x="265" y="542" type="line"/>
      <point x="281" y="714" type="line"/>
      <point x="211" y="714" type="line"/>
      <point x="227" y="545" type="line"/>
      <point x="76" y="634" type="line"/>
      <point x="46" y="570" type="line"/>
      <point x="203" y="514" type="line"/>
      <point x="47" y="457" type="line"/>
      <point x="76" y="394" type="line"/>
      <point x="227" y="483" type="line"/>
      <point x="211" y="306" type="line"/>
      <point x="281" y="306" type="line"/>
      <point x="264" y="486" type="line"/>
      <point x="416" y="397" type="line"/>
      <point x="446" y="460" type="line"/>
      <point x="297" y="514" type="line"/>
    </contour>
  </outline>
</glyph>
<glyph name="plus" format="2">
  <advance width="633"/>
  <unicode hex="002B"/>
  <outline>
    <contour>
      <point x="80" y="271" type="line"/>
      <point x="80" y="231" type="line"/>
      <point x="553" y="231" type="line"/>
      <point x="553" y="271" type="line"/>
    </contour>
    <contour>
      <point x="299" y="10" type="line"/>
      <point x="334" y="10" type="line"/>
      <point x="334" y="492" type="line"/>
      <point x="299" y="492" type="line"/>
    </contour>
  </outline>
</glyph>
<glyph name="comma" format="2">
  <advance width="261"/>
  <unicode hex="002C"/>
  <outline>
    <contour>
      <point x="63" y="-167" type="line"/>
      <point x="187" y="-120"/>
      <point x="205" y="-15"/>
      <point x="200" y="53" type="curve" smooth="yes"/>
      <point x="197" y="97"/>
      <point x="165" y="124"/>
      <point x="129" y="124" type="curve" smooth="yes"/>
      <point x="91" y="124"/>
      <point x="60" y="96"/>
      <point x="60" y="55" type="curve" smooth="yes"/>
      <point x="60" y="13"/>
      <point x="93" y="-15"/>
      <point x="129" y="-15" type="curve" smooth="yes"/>
      <point x="139" y="-15"/>
      <point x="148" y="-13"/>
      <point x="157" y="-9" type="curve"/>
      <point x="163" y="-58"/>
      <point x="123" y="-117"/>
      <point x="56" y="-143" type="curve"/>
    </contour>
  </outline>
</glyph>
<glyph name="hyphen" format="2">
  <advance width="434"/>
  <unicode hex="002D"/>
  <outline>
    <contour>
      <point x="61" y="286" type="line"/>
      <point x="61" y="226" type="line"/>
      <point x="373" y="226" type="line"/>
      <point x="373" y="286" type="line"/>
    </contour>
  </outline>
</glyph>
<glyph name="period" format="2">
  <advance width="320"/>
  <unicode hex="002E"/>
  <outline>
    <contour>
      <point x="160" y="-15" type="curve" smooth="yes"/>
      <point x="204" y="-15"/>
      <point x="248" y="12"/>
      <point x="248" y="66" type="curve" smooth="yes"/>
      <point x="248" y="123"/>
      <point x="204" y="151"/>
      <point x="159" y="151" type="curve" smooth="yes"/>
      <point x="114" y="151"/>
      <point x="70" y="124"/>
      <point x="70" y="68" type="curve" smooth="yes"/>
      <point x="70" y="12"/>
      <point x="114" y="-15"/>
    </contour>
  </outline>
</glyph>
<glyph name="slash" format="2">
  <advance width="273"/>
  <unicode hex="002F"/>
  <outline>
    <contour>
      <point x="212" y="722" type="line"/>
      <point x="-7" y="-10" type="line"/>
      <point x="61" y="-10" type="line"/>
      <point x="280" y="722" type="line"/>
    </contour>
  </outline>
</glyph>
<glyph name="zero" format="2">
  <advance width="537"/>
  <unicode hex="0030"/>
  <outline>
    <contour>
      <point x="269" y="-15" type="curve" smooth="yes"/>
      <point x="458" y="-15"/>
      <point x="489" y="139"/>
      <point x="489" y="345" type="curve" smooth="yes"/>
      <point x="489" y="550"/>
      <point x="458" y="715"/>
      <point x="269" y="715" type="curve" smooth="yes"/>
      <point x="80" y="715"/>
      <point x="48" y="550"/>
      <point x="48" y="345" type="curve" smooth="yes"/>
      <point x="48" y="139"/>
      <point x="80" y="-15"/>
    </contour>
    <contour>
      <point x="268" y="179" type="curve" smooth="yes"/>
      <point x="134" y="179"/>
      <point x="83" y="235"/>
      <point x="83" y="346" type="curve" smooth="yes"/>
      <point x="83" y="462"/>
      <point x="135" y="520"/>
      <point x="268" y="520" type="curve" smooth="yes"/>
      <point x="401" y="520"/>
      <point x="454" y="462"/>
      <point x="454" y="346" type="curve" smooth="yes"/>
      <point x="454" y="235"/>
      <point x="401" y="179"/>
    </contour>
  </outline>
</glyph>
<glyph name="one" format="2">
  <advance width="446"/>
  <unicode hex="0031"/>
  <outline>
    <contour>
      <point x="367" y="84" type="curve" smooth="yes"/>
      <point x="367" y="700" type="line"/>
      <point x="187" y="700" type="line"/>
      <point x="170" y="553"/>
      <point x="53" y="522"/>
      <point x="3" y="521" type="curve"/>
      <point x="3" y="486" type="line"/>
      <point x="45" y="482"/>
      <point x="102" y="491"/>
      <point x="147" y="520" type="curve"/>
      <point x="147" y="84" type="line" smooth="yes"/>
      <point x="147" y="25"/>
      <point x="102" y="21"/>
      <point x="77" y="20" type="curve"/>
      <point x="77" y="0" type="line"/>
      <point x="437" y="0" type="line"/>
      <point x="437" y="20" type="line"/>
      <point x="412" y="21"/>
      <point x="366" y="25"/>
    </contour>
  </outline>
</glyph>
<glyph name="two" format="2">
  <advance width="542"/>
  <unicode hex="0032"/>
  <outline>
    <contour>
      <point x="385" y="-15" type="curve" smooth="yes"/>
      <point x="482" y="-15"/>
      <point x="501" y="62"/>
      <point x="501" y="252" type="curve"/>
      <point x="466" y="252" type="line"/>
      <point x="466" y="185"/>
      <point x="454" y="160"/>
      <point x="411" y="160" type="curve" smooth="yes"/>
      <point x="336" y="160"/>
      <point x="275" y="232"/>
      <point x="184" y="232" type="curve"/>
      <point x="235" y="285"/>
      <point x="493" y="343"/>
      <point x="493" y="547" type="curve" smooth="yes"/>
      <point x="493" y="657"/>
      <point x="369" y="716"/>
      <point x="243" y="716" type="curve" smooth="yes"/>
      <point x="179" y="716"/>
      <point x="113" y="700"/>
      <point x="60" y="669" type="curve"/>
      <point x="39" y="503" type="line"/>
      <point x="79" y="503" type="line"/>
      <point x="106" y="623"/>
      <point x="179" y="681"/>
      <point x="235" y="681" type="curve" smooth="yes"/>
      <point x="282" y="681"/>
      <point x="303" y="637"/>
      <point x="303" y="539" type="curve" smooth="yes"/>
      <point x="303" y="369"/>
      <point x="167" y="295"/>
      <point x="83" y="151" type="curve" smooth="yes"/>
      <point x="55" y="103"/>
      <point x="25" y="40"/>
      <point x="19" y="0" type="curve"/>
      <point x="54" y="0" type="line"/>
      <point x="56" y="16"/>
      <point x="61" y="32"/>
      <point x="68" y="44" type="curve" smooth="yes"/>
      <point x="76" y="59"/>
      <point x="87" y="69"/>
      <point x="107" y="69" type="curve" smooth="yes"/>
      <point x="217" y="69"/>
      <point x="262" y="-15"/>
    </contour>
  </outline>
</glyph>
<glyph name="three" format="2">
  <advance width="537"/>
  <unicode hex="0033"/>
  <outline>
    <contour>
      <point x="231" y="-16" type="curve" smooth="yes"/>
      <point x="384" y="-16"/>
      <point x="499" y="59"/>
      <point x="499" y="202" type="curve" smooth="yes"/>
      <point x="499" y="336"/>
      <point x="399" y="385"/>
      <point x="311" y="401" type="curve"/>
      <point x="395" y="412"/>
      <point x="492" y="458"/>
      <point x="492" y="561" type="curve" smooth="yes"/>
      <point x="492" y="661"/>
      <point x="374" y="716"/>
      <point x="257" y="716" type="curve" smooth="yes"/>
      <point x="195" y="716"/>
      <point x="127" y="700"/>
      <point x="83" y="668" type="curve"/>
      <point x="60" y="502" type="line"/>
      <point x="100" y="502" type="line"/>
      <point x="132" y="610"/>
      <point x="183" y="680"/>
      <point x="226" y="680" type="curve" smooth="yes"/>
      <point x="276" y="680"/>
      <point x="294" y="638"/>
      <point x="294" y="561" type="curve" smooth="yes"/>
      <point x="294" y="478"/>
      <point x="250" y="418"/>
      <point x="175" y="418" type="curve" smooth="yes"/>
      <point x="120" y="418" type="line"/>
      <point x="110" y="383" type="line"/>
      <point x="170" y="383" type="line" smooth="yes"/>
      <point x="278" y="383"/>
      <point x="300" y="281"/>
      <point x="300" y="202" type="curve" smooth="yes"/>
      <point x="300" y="79"/>
      <point x="258" y="19"/>
      <point x="200" y="19" type="curve" smooth="yes"/>
      <point x="152" y="19"/>
      <point x="104" y="73"/>
      <point x="61" y="174" type="curve"/>
      <point x="20" y="174" type="line"/>
      <point x="46" y="26" type="line"/>
      <point x="104" y="-2"/>
      <point x="170" y="-16"/>
    </contour>
  </outline>
</glyph>
<glyph name="four" format="2">
  <advance width="531"/>
  <unicode hex="0034"/>
  <outline>
    <contour>
      <point x="415" y="84" type="curve" smooth="yes"/>
      <point x="415" y="274" type="line"/>
      <point x="504" y="274" type="line"/>
      <point x="504" y="476" type="line"/>
      <point x="483" y="476" type="line"/>
      <point x="483" y="436"/>
      <point x="464" y="424"/>
      <point x="417" y="424" type="curve" smooth="yes"/>
      <point x="415" y="424" type="line"/>
      <point x="415" y="700" type="line"/>
      <point x="195" y="700" type="line"/>
      <point x="20" y="424" type="line"/>
      <point x="20" y="274" type="line"/>
      <point x="195" y="274" type="line"/>
      <point x="195" y="84" type="line" smooth="yes"/>
      <point x="196" y="25"/>
      <point x="160" y="21"/>
      <point x="135" y="20" type="curve"/>
      <point x="135" y="0" type="line"/>
      <point x="475" y="0" type="line"/>
      <point x="475" y="20" type="line"/>
      <point x="450" y="21"/>
      <point x="414" y="25"/>
    </contour>
    <contour>
      <point x="63" y="424" type="line"/>
      <point x="195" y="634" type="line"/>
      <point x="195" y="424" type="line"/>
    </contour>
  </outline>
</glyph>
<glyph name="five" format="2">
  <advance width="534"/>
  <unicode hex="0035"/>
  <outline>
    <contour>
      <point x="436" y="498" type="curve"/>
      <point x="457" y="498" type="line"/>
      <point x="457" y="700" type="line"/>
      <point x="62" y="700" type="line"/>
      <point x="62" y="550" type="line"/>
      <point x="371" y="550" type="line"/>
      <point x="418" y="550"/>
      <point x="436" y="535"/>
    </contour>
    <contour>
      <point x="57" y="197" type="line"/>
      <point x="80" y="31" type="line"/>
      <point x="141" y="0"/>
      <point x="192" y="-15"/>
      <point x="248" y="-15" type="curve" smooth="yes"/>
      <point x="386" y="-15"/>
      <point x="493" y="77"/>
      <point x="493" y="248" type="curve" smooth="yes"/>
      <point x="493" y="421"/>
      <point x="386" y="515"/>
      <point x="248" y="515" type="curve" smooth="yes"/>
      <point x="190" y="515"/>
      <point x="134" y="493"/>
      <point x="97" y="425" type="curve"/>
      <point x="97" y="655" type="line"/>
      <point x="62" y="655" type="line"/>
      <point x="62" y="351" type="line"/>
      <point x="96" y="351" type="line"/>
      <point x="140" y="441"/>
      <point x="171" y="479"/>
      <point x="218" y="479" type="curve" smooth="yes"/>
      <point x="262" y="479"/>
      <point x="288" y="400"/>
      <point x="288" y="254" type="curve" smooth="yes"/>
      <point x="288" y="96"/>
      <point x="267" y="23"/>
      <point x="210" y="23" type="curve" smooth="yes"/>
      <point x="168" y="23"/>
      <point x="132" y="71"/>
      <point x="97" y="197" type="curve"/>
    </contour>
  </outline>
</glyph>
<glyph name="six" format="2">
  <advance width="597"/>
  <unicode hex="0036"/>
  <outline>
    <contour>
      <point x="556" y="254" type="curve" smooth="yes"/>
      <point x="556" y="443"/>
      <point x="438" y="535"/>
      <point x="303" y="535" type="curve" smooth="yes"/>
      <point x="251" y="535"/>
      <point x="206" y="521"/>
      <point x="232" y="523" type="curve"/>
      <point x="240" y="621"/>
      <point x="288" y="679"/>
      <point x="342" y="679" type="curve" smooth="yes"/>
      <point x="396" y="679"/>
      <point x="467" y="623"/>
      <point x="498" y="497" type="curve"/>
      <point x="538" y="497" type="line"/>
      <point x="505" y="663" type="line"/>
      <point x="453" y="699"/>
      <point x="398" y="715"/>
      <point x="339" y="715" type="curve" smooth="yes"/>
      <point x="150" y="715"/>
      <point x="38" y="579"/>
      <point x="38" y="305" type="curve" smooth="yes"/>
      <point x="38" y="94"/>
      <point x="158" y="-15"/>
      <point x="300" y="-15" type="curve" smooth="yes"/>
      <point x="427" y="-15"/>
      <point x="556" y="69"/>
    </contour>
    <contour>
      <point x="234" y="274" type="curve" smooth="yes"/>
      <point x="234" y="426"/>
      <point x="250" y="500"/>
      <point x="296" y="500" type="curve" smooth="yes"/>
      <point x="343" y="500"/>
      <point x="361" y="419"/>
      <point x="361" y="254" type="curve" smooth="yes"/>
      <point x="361" y="85"/>
      <point x="345" y="20"/>
      <point x="299" y="20" type="curve" smooth="yes"/>
      <point x="252" y="20"/>
      <point x="234" y="92"/>
    </contour>
  </outline>
</glyph>
<glyph name="seven" format="2">
  <advance width="441"/>
  <unicode hex="0037"/>
  <outline>
    <contour>
      <point x="36" y="700" type="line"/>
      <point x="36" y="498" type="line"/>
      <point x="57" y="498" type="line"/>
      <point x="57" y="538"/>
      <point x="76" y="550"/>
      <point x="123" y="550" type="curve" smooth="yes"/>
      <point x="375" y="550" type="line"/>
      <point x="375" y="450"/>
      <point x="278" y="397"/>
      <point x="195" y="320" type="curve" smooth="yes"/>
      <point x="119" y="250"/>
      <point x="46" y="161"/>
      <point x="46" y="0" type="curve"/>
      <point x="266" y="0" type="line"/>
      <point x="267" y="155"/>
      <point x="294" y="221"/>
      <point x="332" y="282" type="curve" smooth="yes"/>
      <point x="371" y="345"/>
      <point x="411" y="402"/>
      <point x="410" y="550" type="curve"/>
      <point x="410" y="700" type="line"/>
    </contour>
  </outline>
</glyph>
<glyph name="eight" format="2">
  <advance width="583"/>
  <unicode hex="0038"/>
  <outline>
    <contour>
      <point x="64" y="287"/>
      <point x="390" y="325"/>
      <point x="390" y="149" type="curve" smooth="yes"/>
      <point x="390" y="68"/>
      <point x="362" y="20"/>
      <point x="295" y="20" type="curve" smooth="yes"/>
      <point x="231" y="20"/>
      <point x="199" y="86"/>
      <point x="199" y="178" type="curve" smooth="yes"/>
      <point x="199" y="272"/>
      <point x="231" y="345"/>
      <point x="277" y="353" type="curve"/>
      <point x="262" y="366" type="line"/>
      <point x="94" y="363"/>
      <point x="27" y="258"/>
      <point x="27" y="171" type="curve" smooth="yes"/>
      <point x="27" y="56"/>
      <point x="118" y="-15"/>
      <point x="295" y="-15" type="curve" smooth="yes"/>
      <point x="441" y="-15"/>
      <point x="548" y="57"/>
      <point x="548" y="203" type="curve" smooth="yes"/>
      <point x="548" y="477"/>
      <point x="221" y="407"/>
      <point x="221" y="590" type="curve" smooth="yes"/>
      <point x="221" y="648"/>
      <point x="256" y="683"/>
      <point x="291" y="683" type="curve" smooth="yes"/>
      <point x="325" y="683"/>
      <point x="358" y="650"/>
      <point x="358" y="575" type="curve" smooth="yes"/>
      <point x="358" y="513"/>
      <point x="352" y="446"/>
      <point x="313" y="428" type="curve"/>
      <point x="331" y="412" type="line"/>
      <point x="413" y="420"/>
      <point x="528" y="459"/>
      <point x="528" y="561" type="curve" smooth="yes"/>
      <point x="528" y="685"/>
      <point x="400" y="715"/>
      <point x="301" y="715" type="curve" smooth="yes"/>
      <point x="178" y="715"/>
      <point x="64" y="664"/>
      <point x="64" y="544" type="curve" smooth="yes"/>
    </contour>
  </outline>
</glyph>
<glyph name="nine" format="2">
  <advance width="598"/>
  <unicode hex="0039"/>
  <outline>
    <contour>
      <point x="41" y="446" type="curve" smooth="yes"/>
      <point x="41" y="257"/>
      <point x="159" y="165"/>
      <point x="294" y="165" type="curve" smooth="yes"/>
      <point x="346" y="165"/>
      <point x="391" y="179"/>
      <point x="365" y="177" type="curve"/>
      <point x="357" y="79"/>
      <point x="329" y="21"/>
      <point x="275" y="21" type="curve" smooth="yes"/>
      <point x="201" y="21"/>
      <point x="130" y="77"/>
      <point x="99" y="203" type="curve"/>
      <point x="59" y="203" type="line"/>
      <point x="92" y="37" type="line"/>
      <point x="144" y="1"/>
      <point x="219" y="-15"/>
      <point x="278" y="-15" type="curve" smooth="yes"/>
      <point x="467" y="-15"/>
      <point x="559" y="121"/>
      <point x="559" y="395" type="curve" smooth="yes"/>
      <point x="559" y="606"/>
      <point x="439" y="715"/>
      <point x="297" y="715" type="curve" smooth="yes"/>
      <point x="170" y="715"/>
      <point x="41" y="631"/>
    </contour>
    <contour>
      <point x="363" y="426" type="curve" smooth="yes"/>
      <point x="363" y="274"/>
      <point x="347" y="200"/>
      <point x="301" y="200" type="curve" smooth="yes"/>
      <point x="254" y="200"/>
      <point x="236" y="281"/>
      <point x="236" y="446" type="curve" smooth="yes"/>
      <point x="236" y="615"/>
      <point x="252" y="680"/>
      <point x="298" y="680" type="curve" smooth="yes"/>
      <point x="345" y="680"/>
      <point x="363" y="608"/>
    </contour>
  </outline>
</glyph>
<glyph name="less" format="2">
  <advance width="620"/>
  <unicode hex="003C"/>
  <outline>
    <contour>
      <point x="520" y="-12" type="line"/>
      <point x="520" y="34" type="line"/>
      <point x="118" y="267" type="line"/>
      <point x="520" y="501" type="line"/>
      <point x="520" y="547" type="line"/>
      <point x="91" y="297" type="line"/>
      <point x="91" y="237" type="line"/>
    </contour>
  </outline>
</glyph>
<glyph name="greater" format="2">
  <advance width="620"/>
  <unicode hex="003E"/>
  <outline>
    <contour>
      <point x="91" y="547" type="line"/>
      <point x="91" y="501" type="line"/>
      <point x="493" y="267" type="line"/>
      <point x="91" y="34" type="line"/>
      <point x="91" y="-12" type="line"/>
      <point x="520" y="237" type="line"/>
      <point x="520" y="297" type="line"/>
    </contour>
  </outline>
</glyph>
<glyph name="question" format="2">
  <advance width="569"/>
  <unicode hex="003F"/>
  <outline>
    <contour>
      <point x="268" y="156" type="curve" smooth="yes"/>
      <point x="345" y="156"/>
      <point x="383" y="206"/>
      <point x="383" y="278" type="curve"/>
      <point x="348" y="278" type="line"/>
      <point x="347" y="233"/>
      <point x="320" y="213"/>
      <point x="296" y="213" type="curve" smooth="yes"/>
      <point x="274" y="213"/>
      <point x="245" y="231"/>
      <point x="245" y="262" type="curve" smooth="yes"/>
      <point x="245" y="361"/>
      <point x="544" y="344"/>
      <point x="544" y="545" type="curve" smooth="yes"/>
      <point x="544" y="669"/>
      <point x="420" y="714"/>
      <point x="288" y="714" type="curve" smooth="yes"/>
      <point x="191" y="714"/>
      <point x="84" y="684"/>
      <point x="47" y="637" type="curve"/>
      <point x="26" y="470" type="line"/>
      <point x="66" y="470" type="line"/>
      <point x="107" y="596"/>
      <point x="182" y="677"/>
      <point x="253" y="677" type="curve" smooth="yes"/>
      <point x="294" y="677"/>
      <point x="324" y="641"/>
      <point x="324" y="557" type="curve" smooth="yes"/>
      <point x="324" y="379"/>
      <point x="141" y="428"/>
      <point x="141" y="265" type="curve" smooth="yes"/>
      <point x="141" y="199"/>
      <point x="190" y="156"/>
    </contour>
    <contour>
      <point x="264" y="-15" type="curve" smooth="yes"/>
      <point x="300" y="-15"/>
      <point x="333" y="13"/>
      <point x="333" y="55" type="curve" smooth="yes"/>
      <point x="333" y="97"/>
      <point x="300" y="124"/>
      <point x="264" y="124" type="curve" smooth="yes"/>
      <point x="226" y="124"/>
      <point x="195" y="96"/>
      <point x="195" y="55" type="curve" smooth="yes"/>
      <point x="195" y="13"/>
      <point x="228" y="-15"/>
    </contour>
  </outline>
</glyph>
<glyph name="at" format="2">
  <advance width="1145"/>
  <unicode hex="0040"/>
  <outline>
    <contour>
      <point x="578" y="-105" type="curve" smooth="yes"/>
      <point x="639" y="-105"/>
      <point x="689" y="-94"/>
      <point x="729" y="-68" type="curve"/>
      <point x="717" y="-36" type="line"/>
      <point x="681" y="-61"/>
      <point x="635" y="-70"/>
      <point x="578" y="-70" type="curve" smooth="yes"/>
      <point x="306" y="-70"/>
      <point x="217" y="70"/>
      <point x="217" y="255" type="curve" smooth="yes"/>
      <point x="217" y="469"/>
      <point x="306" y="590"/>
      <point x="578" y="590" type="curve" smooth="yes"/>
      <point x="838" y="590"/>
      <point x="928" y="469"/>
      <point x="928" y="255" type="curve" smooth="yes"/>
      <point x="928" y="70"/>
      <point x="898" y="22"/>
      <point x="870" y="22" type="curve" smooth="yes"/>
      <point x="846" y="22"/>
      <point x="839" y="53"/>
      <point x="839" y="90" type="curve" smooth="yes"/>
      <point x="839" y="321" type="line" smooth="yes"/>
      <point x="839" y="466"/>
      <point x="707" y="513"/>
      <point x="583" y="513" type="curve" smooth="yes"/>
      <point x="518" y="513"/>
      <point x="414" y="498"/>
      <point x="346" y="469" type="curve"/>
      <point x="316" y="293" type="line"/>
      <point x="351" y="293" type="line"/>
      <point x="402" y="432"/>
      <point x="501" y="477"/>
      <point x="555" y="477" type="curve" smooth="yes"/>
      <point x="603" y="477"/>
      <point x="609" y="452"/>
      <point x="615" y="392" type="curve"/>
      <point x="416" y="373"/>
      <point x="303" y="240"/>
      <point x="303" y="131" type="curve" smooth="yes"/>
      <point x="303" y="23"/>
      <point x="403" y="-15"/>
      <point x="483" y="-15" type="curve" smooth="yes"/>
      <point x="555" y="-15"/>
      <point x="603" y="2"/>
      <point x="628" y="41" type="curve"/>
      <point x="648" y="3"/>
      <point x="735" y="-15"/>
      <point x="833" y="-15" type="curve" smooth="yes"/>
      <point x="1000" y="-15"/>
      <point x="1093" y="81"/>
      <point x="1093" y="255" type="curve" smooth="yes"/>
      <point x="1093" y="456"/>
      <point x="898" y="625"/>
      <point x="578" y="625" type="curve" smooth="yes"/>
      <point x="249" y="625"/>
      <point x="52" y="456"/>
      <point x="52" y="255" type="curve" smooth="yes"/>
      <point x="52" y="53"/>
      <point x="249" y="-105"/>
    </contour>
    <contour>
      <point x="575" y="39" type="curve" smooth="yes"/>
      <point x="560" y="39"/>
      <point x="538" y="59"/>
      <point x="538" y="137" type="curve" smooth="yes"/>
      <point x="538" y="218"/>
      <point x="556" y="348"/>
      <point x="617" y="365" type="curve"/>
      <point x="619" y="345"/>
      <point x="619" y="322"/>
      <point x="619" y="296" type="curve" smooth="yes"/>
      <point x="619" y="184" type="line" smooth="yes"/>
      <point x="619" y="77"/>
      <point x="593" y="39"/>
    </contour>
  </outline>
</glyph>
<glyph name="A" format="2">
  <advance width="640"/>
  <unicode hex="0041"/>
  <anchor x="320" y="0" name="bottom"/>
  <anchor x="576" y="10" name="ogonek"/>
  <anchor x="316" y="720" name="top"/>
  <outline>
    <contour>
      <point x="1" y="0" type="line"/>
      <point x="158" y="0" type="line"/>
      <point x="158" y="20" type="line"/>
      <point x="134" y="22"/>
      <point x="107" y="24"/>
      <point x="125" y="75" type="curve" smooth="yes"/>
      <point x="147" y="137" type="line"/>
      <point x="295" y="137" type="line"/>
      <point x="316" y="77" type="line" smooth="yes"/>
      <point x="334" y="26"/>
      <point x="308" y="22"/>
      <point x="284" y="20" type="curve"/>
      <point x="284" y="0" type="line"/>
      <point x="639" y="0" type="line"/>
      <point x="639" y="20" type="line"/>
      <point x="615" y="21"/>
      <point x="569" y="23"/>
      <point x="550" y="79" type="curve" smooth="yes"/>
      <point x="322" y="745" type="line"/>
      <point x="312" y="745" type="line"/>
      <point x="87" y="73" type="line" smooth="yes"/>
      <point x="70" y="21"/>
      <point x="25" y="22"/>
      <point x="1" y="20" type="curve"/>
    </contour>
    <contour>
      <point x="160" y="172" type="line"/>
      <point x="220" y="347" type="line"/>
      <point x="282" y="172" type="line"/>
    </contour>
  </outline>
</glyph>
<glyph name="B" format="2">
  <advance width="694"/>
  <unicode hex="0042"/>
  <anchor x="347" y="0" name="bottom"/>
  <anchor x="347" y="350" name="center"/>
  <anchor x="347" y="700" name="top"/>
  <outline>
    <contour>
      <point x="510" y="476" type="curve"/>
      <point x="586" y="491"/>
      <point x="627" y="522"/>
      <point x="627" y="581" type="curve" smooth="yes"/>
      <point x="627" y="641"/>
      <point x="565" y="700"/>
      <point x="445" y="700" type="curve" smooth="yes"/>
      <point x="25" y="700" type="line"/>
      <point x="25" y="680" type="line"/>
      <point x="50" y="679"/>
      <point x="85" y="674"/>
      <point x="85" y="616" type="curve" smooth="yes"/>
      <point x="85" y="84" type="line" smooth="yes"/>
      <point x="85" y="26"/>
      <point x="50" y="21"/>
      <point x="25" y="20" type="curve"/>
      <point x="25" y="0" type="line"/>
      <point x="415" y="0" type="line" smooth="yes"/>
      <point x="579" y="0"/>
      <point x="660" y="125"/>
      <point x="660" y="250" type="curve" smooth="yes"/>
      <point x="660" y="356"/>
      <point x="602" y="451"/>
    </contour>
    <contour>
      <point x="324" y="665" type="line" smooth="yes"/>
      <point x="376" y="665"/>
      <point x="401" y="625"/>
      <point x="401" y="584" type="curve" smooth="yes"/>
      <point x="401" y="542"/>
      <point x="375" y="500"/>
      <point x="324" y="500" type="curve" smooth="yes"/>
      <point x="305" y="500" type="line"/>
      <point x="305" y="665" type="line"/>
    </contour>
    <contour>
      <point x="314" y="25" type="curve" smooth="yes"/>
      <point x="305" y="25" type="line"/>
      <point x="305" y="464" type="line"/>
      <point x="314" y="464" type="line" smooth="yes"/>
      <point x="393" y="464"/>
      <point x="435" y="352"/>
      <point x="435" y="240" type="curve" smooth="yes"/>
      <point x="435" y="132"/>
      <point x="395" y="25"/>
    </contour>
  </outline>
</glyph>
<glyph name="C" format="2">
  <advance width="671"/>
  <unicode hex="0043"/>
  <anchor x="336" y="0" name="bottom"/>
  <anchor x="376" y="700" name="top"/>
  <outline>
    <contour>
      <point x="384" y="715" type="curve" smooth="yes"/>
      <point x="179" y="715"/>
      <point x="42" y="574"/>
      <point x="42" y="345" type="curve" smooth="yes"/>
      <point x="42" y="107"/>
      <point x="220" y="-14"/>
      <point x="399" y="-14" type="curve" smooth="yes"/>
      <point x="583" y="-14"/>
      <point x="632" y="107"/>
      <point x="641" y="172" type="curve"/>
      <point x="606" y="179" type="line"/>
      <point x="583" y="102"/>
      <point x="530" y="62"/>
      <point x="467" y="62" type="curve" smooth="yes"/>
      <point x="338" y="62"/>
      <point x="264" y="189"/>
      <point x="264" y="373" type="curve" smooth="yes"/>
      <point x="264" y="563"/>
      <point x="313" y="680"/>
      <point x="407" y="680" type="curve" smooth="yes"/>
      <point x="480" y="680"/>
      <point x="544" y="619"/>
      <point x="590" y="470" type="curve"/>
      <point x="630" y="470" type="line"/>
      <point x="609" y="637" type="line"/>
      <point x="585" y="671"/>
      <point x="512" y="715"/>
    </contour>
  </outline>
</glyph>
<glyph name="D" format="2">
  <advance width="714"/>
  <unicode hex="0044"/>
  <anchor x="357" y="0" name="bottom"/>
  <anchor x="357" y="350" name="center"/>
  <anchor x="357" y="700" name="top"/>
  <outline>
    <contour>
      <point x="368" y="700" type="curve" smooth="yes"/>
      <point x="25" y="700" type="line"/>
      <point x="25" y="680" type="line"/>
      <point x="50" y="679"/>
      <point x="85" y="674"/>
      <point x="85" y="616" type="curve" smooth="yes"/>
      <point x="85" y="84" type="line" smooth="yes"/>
      <point x="85" y="26"/>
      <point x="50" y="21"/>
      <point x="25" y="20" type="curve"/>
      <point x="25" y="0" type="line"/>
      <point x="368" y="0" type="line" smooth="yes"/>
      <point x="576" y="0"/>
      <point x="680" y="175"/>
      <point x="680" y="350" type="curve" smooth="yes"/>
      <point x="680" y="525"/>
      <point x="576" y="700"/>
    </contour>
    <contour>
      <point x="316" y="35" type="curve" smooth="yes"/>
      <point x="305" y="35" type="line"/>
      <point x="305" y="665" type="line"/>
      <point x="316" y="665" type="line" smooth="yes"/>
      <point x="411" y="665"/>
      <point x="454" y="504"/>
      <point x="454" y="345" type="curve" smooth="yes"/>
      <point x="454" y="189"/>
      <point x="413" y="35"/>
    </contour>
  </outline>
</glyph>
<glyph name="E" format="2">
  <advance width="629"/>
  <unicode hex="0045"/>
  <anchor x="315" y="0" name="bottom"/>
  <anchor x="566" y="10" name="ogonek"/>
  <anchor x="315" y="700" name="top"/>
  <anchor x="20" y="700" name="topleft"/>
  <outline>
    <contour>
      <point x="354" y="665" type="line" smooth="yes"/>
      <point x="517" y="665"/>
      <point x="540" y="544"/>
      <point x="547" y="455" type="curve"/>
      <point x="567" y="455" type="line"/>
      <point x="567" y="700" type="line"/>
      <point x="25" y="700" type="line"/>
      <point x="25" y="680" type="line"/>
      <point x="50" y="679"/>
      <point x="85" y="674"/>
      <point x="85" y="616" type="curve" smooth="yes"/>
      <point x="85" y="84" type="line" smooth="yes"/>
      <point x="85" y="26"/>
      <point x="50" y="21"/>
      <point x="25" y="20" type="curve"/>
      <point x="25" y="0" type="line"/>
      <point x="567" y="0" type="line"/>
      <point x="567" y="245" type="line"/>
      <point x="547" y="245" type="line"/>
      <point x="540" y="156"/>
      <point x="517" y="35"/>
      <point x="354" y="35" type="curve" smooth="yes"/>
      <point x="305" y="35" type="line"/>
      <point x="305" y="465" type="line"/>
      <point x="314" y="465" type="line" smooth="yes"/>
      <point x="365" y="465"/>
      <point x="441" y="395"/>
      <point x="486" y="297" type="curve"/>
      <point x="504" y="300" type="line"/>
      <point x="399" y="620" type="line"/>
      <point x="381" y="617" type="line"/>
      <point x="393" y="541"/>
      <point x="374" y="500"/>
      <point x="314" y="500" type="curve" smooth="yes"/>
      <point x="305" y="500" type="line"/>
      <point x="305" y="665" type="line"/>
    </contour>
  </outline>
</glyph>
<glyph name="F" format="2">
  <advance width="595"/>
  <unicode hex="0046"/>
  <anchor x="298" y="0" name="bottom"/>
  <anchor x="298" y="700" name="top"/>
  <outline>
    <contour>
      <point x="567" y="700" type="line"/>
      <point x="25" y="700" type="line"/>
      <point x="25" y="680" type="line"/>
      <point x="50" y="679"/>
      <point x="85" y="674"/>
      <point x="85" y="616" type="curve" smooth="yes"/>
      <point x="85" y="84" type="line" smooth="yes"/>
      <point x="85" y="26"/>
      <point x="50" y="21"/>
      <point x="25" y="20" type="curve"/>
      <point x="25" y="0" type="line"/>
      <point x="365" y="0" type="line"/>
      <point x="365" y="20" type="line"/>
      <point x="340" y="21"/>
      <point x="305" y="26"/>
      <point x="305" y="84" type="curve" smooth="yes"/>
      <point x="305" y="475" type="line"/>
      <point x="314" y="475" type="line" smooth="yes"/>
      <point x="365" y="475"/>
      <point x="441" y="405"/>
      <point x="486" y="307" type="curve"/>
      <point x="504" y="310" type="line"/>
      <point x="399" y="620" type="line"/>
      <point x="381" y="617" type="line"/>
      <point x="393" y="541"/>
      <point x="374" y="500"/>
      <point x="314" y="500" type="curve" smooth="yes"/>
      <point x="305" y="500" type="line"/>
      <point x="305" y="675" type="line"/>
      <point x="354" y="675" type="line" smooth="yes"/>
      <point x="517" y="675"/>
      <point x="540" y="544"/>
      <point x="547" y="455" type="curve"/>
      <point x="567" y="455" type="line"/>
    </contour>
  </outline>
</glyph>
<glyph name="G" format="2">
  <advance width="730"/>
  <unicode hex="0047"/>
  <anchor x="365" y="0" name="bottom"/>
  <anchor x="365" y="700" name="top"/>
  <outline>
    <contour>
      <point x="374" y="442" type="line"/>
      <point x="374" y="422" type="line"/>
      <point x="399" y="421"/>
      <point x="434" y="416"/>
      <point x="434" y="358" type="curve" smooth="yes"/>
      <point x="434" y="25" type="line"/>
      <point x="429" y="22"/>
      <point x="423" y="20"/>
      <point x="406" y="20" type="curve" smooth="yes"/>
      <point x="319" y="20"/>
      <point x="259" y="183"/>
      <point x="259" y="347" type="curve" smooth="yes"/>
      <point x="259" y="513"/>
      <point x="310" y="680"/>
      <point x="406" y="680" type="curve" smooth="yes"/>
      <point x="480" y="680"/>
      <point x="537" y="619"/>
      <point x="583" y="470" type="curve"/>
      <point x="623" y="470" type="line"/>
      <point x="602" y="637" type="line"/>
      <point x="571" y="679"/>
      <point x="520" y="715"/>
      <point x="400" y="715" type="curve" smooth="yes"/>
      <point x="172" y="715"/>
      <point x="35" y="574"/>
      <point x="35" y="345" type="curve" smooth="yes"/>
      <point x="35" y="143"/>
      <point x="154" y="-15"/>
      <point x="377" y="-15" type="curve" smooth="yes"/>
      <point x="423" y="-15"/>
      <point x="449" y="-4"/>
      <point x="469" y="15" type="curve"/>
      <point x="654" y="-14" type="line"/>
      <point x="654" y="358" type="line" smooth="yes"/>
      <point x="654" y="416"/>
      <point x="689" y="421"/>
      <point x="714" y="422" type="curve"/>
      <point x="714" y="442" type="line"/>
    </contour>
  </outline>
</glyph>
<glyph name="H" format="2">
  <advance width="750"/>
  <unicode hex="0048"/>
  <anchor x="375" y="0" name="bottom"/>
  <anchor x="375" y="350" name="center"/>
  <anchor x="375" y="700" name="top"/>
  <anchor x="20" y="700" name="topleft"/>
  <outline>
    <contour>
      <point x="725" y="680" type="curve"/>
      <point x="725" y="700" type="line"/>
      <point x="385" y="700" type="line"/>
      <point x="385" y="680" type="line"/>
      <point x="410" y="679"/>
      <point x="445" y="674"/>
      <point x="445" y="616" type="curve" smooth="yes"/>
      <point x="445" y="500" type="line"/>
      <point x="305" y="500" type="line"/>
      <point x="305" y="616" type="line" smooth="yes"/>
      <point x="305" y="674"/>
      <point x="340" y="679"/>
      <point x="365" y="680" type="curve"/>
      <point x="365" y="700" type="line"/>
      <point x="25" y="700" type="line"/>
      <point x="25" y="680" type="line"/>
      <point x="50" y="679"/>
      <point x="85" y="674"/>
      <point x="85" y="616" type="curve" smooth="yes"/>
      <point x="85" y="84" type="line" smooth="yes"/>
      <point x="85" y="26"/>
      <point x="50" y="21"/>
      <point x="25" y="20" type="curve"/>
      <point x="25" y="0" type="line"/>
      <point x="365" y="0" type="line"/>
      <point x="365" y="20" type="line"/>
      <point x="340" y="21"/>
      <point x="305" y="26"/>
      <point x="305" y="84" type="curve" smooth="yes"/>
      <point x="305" y="465" type="line"/>
      <point x="445" y="465" type="line"/>
      <point x="445" y="84" type="line" smooth="yes"/>
      <point x="445" y="26"/>
      <point x="410" y="21"/>
      <point x="385" y="20" type="curve"/>
      <point x="385" y="0" type="line"/>
      <point x="725" y="0" type="line"/>
      <point x="725" y="20" type="line"/>
      <point x="700" y="21"/>
      <point x="665" y="26"/>
      <point x="665" y="84" type="curve" smooth="yes"/>
      <point x="665" y="616" type="line" smooth="yes"/>
      <point x="665" y="674"/>
      <point x="700" y="679"/>
    </contour>
  </outline>
</glyph>
<glyph name="I" format="2">
  <advance width="390"/>
  <unicode hex="0049"/>
  <anchor x="195" y="0" name="bottom"/>
  <anchor x="351" y="10" name="ogonek"/>
  <anchor x="195" y="700" name="top"/>
  <anchor x="20" y="700" name="topleft"/>
  <outline>
    <contour>
      <point x="25" y="0" type="line"/>
      <point x="365" y="0" type="line"/>
      <point x="365" y="20" type="line"/>
      <point x="340" y="21"/>
      <point x="305" y="26"/>
      <point x="305" y="84" type="curve" smooth="yes"/>
      <point x="305" y="616" type="line" smooth="yes"/>
      <point x="305" y="674"/>
      <point x="340" y="679"/>
      <point x="365" y="680" type="curve"/>
      <point x="365" y="700" type="line"/>
      <point x="25" y="700" type="line"/>
      <point x="25" y="680" type="line"/>
      <point x="50" y="679"/>
      <point x="85" y="674"/>
      <point x="85" y="616" type="curve" smooth="yes"/>
      <point x="85" y="84" type="line" smooth="yes"/>
      <point x="85" y="26"/>
      <point x="50" y="21"/>
      <point x="25" y="20" type="curve"/>
    </contour>
  </outline>
</glyph>
<glyph name="J" format="2">
  <advance width="383"/>
  <unicode hex="004A"/>
  <anchor x="192" y="0" name="bottom"/>
  <anchor x="192" y="700" name="top"/>
  <outline>
    <contour>
      <point x="362" y="700" type="line"/>
      <point x="22" y="700" type="line"/>
      <point x="22" y="680" type="line"/>
      <point x="47" y="679"/>
      <point x="82" y="674"/>
      <point x="82" y="616" type="curve" smooth="yes"/>
      <point x="82" y="15" type="line" smooth="yes"/>
      <point x="82" y="-120"/>
      <point x="58" y="-165"/>
      <point x="-24" y="-165" type="curve" smooth="yes"/>
      <point x="-89" y="-165"/>
      <point x="-133" y="-129"/>
      <point x="-158" y="-87" type="curve"/>
      <point x="-187" y="-107" type="line"/>
      <point x="-160" y="-161"/>
      <point x="-90" y="-215"/>
      <point x="52" y="-215" type="curve" smooth="yes"/>
      <point x="248" y="-215"/>
      <point x="302" y="-104"/>
      <point x="302" y="44" type="curve" smooth="yes"/>
      <point x="302" y="616" type="line" smooth="yes"/>
      <point x="302" y="674"/>
      <point x="337" y="679"/>
      <point x="362" y="680" type="curve"/>
    </contour>
  </outline>
</glyph>
<glyph name="K" format="2">
  <advance width="783"/>
  <unicode hex="004B"/>
  <anchor x="392" y="0" name="bottom"/>
  <anchor x="392" y="700" name="top"/>
  <outline>
    <contour>
      <point x="695" y="75" type="curve" smooth="yes"/>
      <point x="494" y="604" type="line"/>
      <point x="516" y="623" type="line"/>
      <point x="583" y="674"/>
      <point x="644" y="679"/>
      <point x="668" y="680" type="curve"/>
      <point x="668" y="700" type="line"/>
      <point x="494" y="700" type="line"/>
      <point x="494" y="680" type="line"/>
      <point x="516" y="679"/>
      <point x="521" y="675"/>
      <point x="478" y="636" type="curve"/>
      <point x="305" y="490" type="line"/>
      <point x="305" y="616" type="line" smooth="yes"/>
      <point x="305" y="674"/>
      <point x="340" y="679"/>
      <point x="365" y="680" type="curve"/>
      <point x="365" y="700" type="line"/>
      <point x="25" y="700" type="line"/>
      <point x="25" y="680" type="line"/>
      <point x="50" y="679"/>
      <point x="85" y="674"/>
      <point x="85" y="616" type="curve" smooth="yes"/>
      <point x="85" y="84" type="line" smooth="yes"/>
      <point x="85" y="26"/>
      <point x="50" y="21"/>
      <point x="25" y="20" type="curve"/>
      <point x="25" y="0" type="line"/>
      <point x="365" y="0" type="line"/>
      <point x="365" y="20" type="line"/>
      <point x="340" y="21"/>
      <point x="305" y="26"/>
      <point x="305" y="84" type="curve" smooth="yes"/>
      <point x="305" y="444" type="line"/>
      <point x="316" y="454" type="line"/>
      <point x="458" y="78" type="line" smooth="yes"/>
      <point x="474" y="25"/>
      <point x="450" y="21"/>
      <point x="426" y="20" type="curve"/>
      <point x="426" y="0" type="line"/>
      <point x="784" y="0" type="line"/>
      <point x="784" y="20" type="line"/>
      <point x="759" y="21"/>
      <point x="719" y="25"/>
    </contour>
  </outline>
</glyph>
<glyph name="L" format="2">
  <advance width="594"/>
  <unicode hex="004C"/>
  <anchor x="297" y="0" name="bottom"/>
  <anchor x="297" y="350" name="center"/>
  <anchor x="203" y="700" name="top"/>
  <anchor x="390" y="830" name="topright"/>
  <outline>
    <contour>
      <point x="547" y="245" type="line"/>
      <point x="540" y="156"/>
      <point x="517" y="25"/>
      <point x="354" y="25" type="curve" smooth="yes"/>
      <point x="305" y="25" type="line"/>
      <point x="305" y="616" type="line" smooth="yes"/>
      <point x="305" y="674"/>
      <point x="340" y="679"/>
      <point x="365" y="680" type="curve"/>
      <point x="365" y="700" type="line"/>
      <point x="25" y="700" type="line"/>
      <point x="25" y="680" type="line"/>
      <point x="50" y="679"/>
      <point x="85" y="674"/>
      <point x="85" y="616" type="curve" smooth="yes"/>
      <point x="85" y="84" type="line" smooth="yes"/>
      <point x="85" y="26"/>
      <point x="50" y="21"/>
      <point x="25" y="20" type="curve"/>
      <point x="25" y="0" type="line"/>
      <point x="567" y="0" type="line"/>
      <point x="567" y="245" type="line"/>
    </contour>
  </outline>
</glyph>
<glyph name="M" format="2">
  <advance width="750"/>
  <unicode hex="004D"/>
  <anchor x="375" y="0" name="bottom"/>
  <anchor x="375" y="700" name="top"/>
  <outline>
    <contour>
      <point x="725" y="680" type="curve"/>
      <point x="725" y="700" type="line"/>
      <point x="445" y="700" type="line"/>
      <point x="377" y="513" type="line"/>
      <point x="304" y="700" type="line"/>
      <point x="25" y="700" type="line"/>
      <point x="25" y="680" type="line"/>
      <point x="50" y="679"/>
      <point x="85" y="674"/>
      <point x="85" y="616" type="curve" smooth="yes"/>
      <point x="85" y="84" type="line" smooth="yes"/>
      <point x="85" y="26"/>
      <point x="50" y="21"/>
      <point x="25" y="20" type="curve"/>
      <point x="25" y="0" type="line"/>
      <point x="180" y="0" type="line"/>
      <point x="180" y="20" type="line"/>
      <point x="155" y="21"/>
      <point x="120" y="26"/>
      <point x="120" y="84" type="curve" smooth="yes"/>
      <point x="120" y="564" type="line"/>
      <point x="283" y="153" type="line"/>
      <point x="445" y="596" type="line"/>
      <point x="445" y="84" type="line" smooth="yes"/>
      <point x="445" y="26"/>
      <point x="410" y="21"/>
      <point x="385" y="20" type="curve"/>
      <point x="385" y="0" type="line"/>
      <point x="725" y="0" type="line"/>
      <point x="725" y="20" type="line"/>
      <point x="700" y="21"/>
      <point x="665" y="26"/>
      <point x="665" y="84" type="curve" smooth="yes"/>
      <point x="665" y="616" type="line" smooth="yes"/>
      <point x="665" y="674"/>
      <point x="700" y="679"/>
    </contour>
  </outline>
</glyph>
<glyph name="N" format="2">
  <advance width="651"/>
  <unicode hex="004E"/>
  <anchor x="326" y="0" name="bottom"/>
  <anchor x="326" y="700" name="top"/>
  <outline>
    <contour>
      <point x="475" y="700" type="line"/>
      <point x="475" y="680" type="line"/>
      <point x="500" y="679"/>
      <point x="535" y="674"/>
      <point x="535" y="616" type="curve" smooth="yes"/>
      <point x="535" y="360" type="line"/>
      <point x="317" y="699" type="line"/>
      <point x="25" y="700" type="line"/>
      <point x="25" y="680" type="line"/>
      <point x="50" y="679"/>
      <point x="85" y="674"/>
      <point x="85" y="616" type="curve" smooth="yes"/>
      <point x="85" y="84" type="line" smooth="yes"/>
      <point x="85" y="26"/>
      <point x="50" y="21"/>
      <point x="25" y="20" type="curve"/>
      <point x="25" y="0" type="line"/>
      <point x="180" y="0" type="line"/>
      <point x="180" y="20" type="line"/>
      <point x="155" y="21"/>
      <point x="120" y="26"/>
      <point x="120" y="84" type="curve" smooth="yes"/>
      <point x="120" y="599" type="line"/>
      <point x="505" y="0" type="line"/>
      <point x="570" y="0" type="line"/>
      <point x="570" y="616" type="line" smooth="yes"/>
      <point x="570" y="674"/>
      <point x="605" y="679"/>
      <point x="630" y="680" type="curve"/>
      <point x="630" y="700" type="line"/>
    </contour>
  </outline>
</glyph>
<glyph name="O" format="2">
  <advance width="647"/>
  <unicode hex="004F"/>
  <anchor x="324" y="0" name="bottom"/>
  <anchor x="324" y="350" name="center"/>
  <anchor x="582" y="10" name="ogonek"/>
  <anchor x="324" y="700" name="top"/>
  <anchor x="20" y="700" name="topleft"/>
  <anchor x="627" y="700" name="topright"/>
  <outline>
    <contour>
      <point x="324" y="-15" type="curve" smooth="yes"/>
      <point x="495" y="-15"/>
      <point x="605" y="93"/>
      <point x="605" y="345" type="curve" smooth="yes"/>
      <point x="605" y="596"/>
      <point x="495" y="715"/>
      <point x="324" y="715" type="curve" smooth="yes"/>
      <point x="153" y="715"/>
      <point x="42" y="596"/>
      <point x="42" y="345" type="curve" smooth="yes"/>
      <point x="42" y="93"/>
      <point x="153" y="-15"/>
    </contour>
    <contour>
      <point x="324" y="20" type="curve" smooth="yes"/>
      <point x="281" y="20"/>
      <point x="267" y="74"/>
      <point x="267" y="364" type="curve" smooth="yes"/>
      <point x="267" y="630"/>
      <point x="279" y="680"/>
      <point x="324" y="680" type="curve" smooth="yes"/>
      <point x="368" y="680"/>
      <point x="380" y="630"/>
      <point x="380" y="352" type="curve" smooth="yes"/>
      <point x="380" y="74"/>
      <point x="368" y="20"/>
    </contour>
  </outline>
</glyph>
<glyph name="Q" format="2">
  <advance width="650"/>
  <unicode hex="0051"/>
  <anchor x="325" y="0" name="bottom"/>
  <anchor x="325" y="700" name="top"/>
  <outline>
    <contour>
      <point x="324" y="715" type="curve" smooth="yes"/>
      <point x="153" y="715"/>
      <point x="42" y="596"/>
      <point x="42" y="345" type="curve" smooth="yes"/>
      <point x="42" y="189"/>
      <point x="85" y="88"/>
      <point x="158" y="34" type="curve"/>
      <point x="112" y="1"/>
      <point x="91" y="-75"/>
      <point x="91" y="-133" type="curve"/>
      <point x="109" y="-133" type="line"/>
      <point x="110" y="-105"/>
      <point x="125" y="-65"/>
      <point x="152" y="-65" type="curve" smooth="yes"/>
      <point x="240" y="-65"/>
      <point x="328" y="-215"/>
      <point x="434" y="-215" type="curve" smooth="yes"/>
      <point x="526" y="-215"/>
      <point x="573" y="-102"/>
      <point x="573" y="22" type="curve"/>
      <point x="555" y="22" type="line"/>
      <point x="555" y="-37"/>
      <point x="536" y="-72"/>
      <point x="504" y="-72" type="curve" smooth="yes"/>
      <point x="465" y="-72"/>
      <point x="408" y="-43"/>
      <point x="353" y="-14" type="curve"/>
      <point x="507" y="-2"/>
      <point x="605" y="108"/>
      <point x="605" y="345" type="curve" smooth="yes"/>
      <point x="605" y="596"/>
      <point x="495" y="715"/>
    </contour>
    <contour>
      <point x="267" y="364" type="curve" smooth="yes"/>
      <point x="267" y="630"/>
      <point x="279" y="680"/>
      <point x="324" y="680" type="curve" smooth="yes"/>
      <point x="368" y="680"/>
      <point x="380" y="630"/>
      <point x="380" y="352" type="curve" smooth="yes"/>
      <point x="380" y="74"/>
      <point x="368" y="20"/>
      <point x="324" y="20" type="curve" smooth="yes"/>
      <point x="281" y="20"/>
      <point x="267" y="74"/>
    </contour>
  </outline>
</glyph>
<glyph name="S" format="2">
  <advance width="602"/>
  <unicode hex="0053"/>
  <anchor x="301" y="0" name="bottom"/>
  <anchor x="301" y="700" name="top"/>
  <outline>
    <contour>
      <point x="295" y="-15" type="curve" smooth="yes"/>
      <point x="430" y="-15"/>
      <point x="575" y="22"/>
      <point x="575" y="168" type="curve" smooth="yes"/>
      <point x="575" y="344"/>
      <point x="265" y="448"/>
      <point x="265" y="600" type="curve" smooth="yes"/>
      <point x="265" y="655"/>
      <point x="290" y="680"/>
      <point x="342" y="680" type="curve" smooth="yes"/>
      <point x="403" y="680"/>
      <point x="468" y="615"/>
      <point x="510" y="471" type="curve"/>
      <point x="550" y="471" type="line"/>
      <point x="527" y="644" type="line"/>
      <point x="496" y="684"/>
      <point x="425" y="715"/>
      <point x="308" y="715" type="curve" smooth="yes"/>
      <point x="157" y="715"/>
      <point x="63" y="658"/>
      <point x="63" y="532" type="curve" smooth="yes"/>
      <point x="63" y="325"/>
      <point x="378" y="204"/>
      <point x="378" y="87" type="curve" smooth="yes"/>
      <point x="378" y="45"/>
      <point x="339" y="20"/>
      <point x="276" y="20" type="curve" smooth="yes"/>
      <point x="194" y="20"/>
      <point x="113" y="95"/>
      <point x="84" y="239" type="curve"/>
      <point x="34" y="239" type="line"/>
      <point x="57" y="66" type="line"/>
      <point x="89" y="24"/>
      <point x="187" y="-15"/>
    </contour>
  </outline>
</glyph>
<glyph name="T" format="2">
  <advance width="680"/>
  <unicode hex="0054"/>
  <anchor x="340" y="0" name="bottom"/>
  <anchor x="340" y="350" name="center"/>
  <anchor x="340" y="700" name="top"/>
  <outline>
    <contour>
      <point x="653" y="700" type="line"/>
      <point x="27" y="700" type="line"/>
      <point x="27" y="455" type="line"/>
      <point x="47" y="455" type="line"/>
      <point x="54" y="543"/>
      <point x="78" y="675"/>
      <point x="225" y="675" type="curve" smooth="yes"/>
      <point x="231" y="675" type="line"/>
      <point x="231" y="84" type="line" smooth="yes"/>
      <point x="231" y="26"/>
      <point x="196" y="17"/>
      <point x="171" y="10" type="curve"/>
      <point x="171" y="0" type="line"/>
      <point x="511" y="0" type="line"/>
      <point x="511" y="10" type="line"/>
      <point x="486" y="17"/>
      <point x="451" y="26"/>
      <point x="451" y="84" type="curve" smooth="yes"/>
      <point x="451" y="675" type="line"/>
      <point x="457" y="675" type="line" smooth="yes"/>
      <point x="603" y="675"/>
      <point x="626" y="542"/>
      <point x="633" y="455" type="curve"/>
      <point x="653" y="455" type="line"/>
    </contour>
  </outline>
</glyph>
<glyph name="U" format="2">
  <advance width="744"/>
  <unicode hex="0055"/>
  <anchor x="372" y="0" name="bottom"/>
  <anchor x="670" y="10" name="ogonek"/>
  <anchor x="372" y="700" name="top"/>
  <anchor x="724" y="700" name="topright"/>
  <outline>
    <contour>
      <point x="719" y="680" type="curve"/>
      <point x="719" y="700" type="line"/>
      <point x="379" y="700" type="line"/>
      <point x="379" y="680" type="line"/>
      <point x="404" y="679"/>
      <point x="439" y="674"/>
      <point x="439" y="616" type="curve" smooth="yes"/>
      <point x="439" y="197" type="line" smooth="yes"/>
      <point x="439" y="109"/>
      <point x="426" y="38"/>
      <point x="372" y="38" type="curve" smooth="yes"/>
      <point x="319" y="38"/>
      <point x="295" y="116"/>
      <point x="295" y="280" type="curve" smooth="yes"/>
      <point x="295" y="616" type="line" smooth="yes"/>
      <point x="295" y="674"/>
      <point x="330" y="679"/>
      <point x="355" y="680" type="curve"/>
      <point x="355" y="700" type="line"/>
      <point x="15" y="700" type="line"/>
      <point x="15" y="680" type="line"/>
      <point x="40" y="679"/>
      <point x="75" y="674"/>
      <point x="75" y="616" type="curve" smooth="yes"/>
      <point x="75" y="286" type="line" smooth="yes"/>
      <point x="75" y="59"/>
      <point x="179" y="-15"/>
      <point x="307" y="-15" type="curve" smooth="yes"/>
      <point x="361" y="-15"/>
      <point x="407" y="1"/>
      <point x="439" y="33" type="curve"/>
      <point x="439" y="0" type="line"/>
      <point x="719" y="0" type="line"/>
      <point x="719" y="20" type="line"/>
      <point x="694" y="21"/>
      <point x="659" y="26"/>
      <point x="659" y="84" type="curve" smooth="yes"/>
      <point x="659" y="616" type="line" smooth="yes"/>
      <point x="659" y="674"/>
      <point x="694" y="679"/>
    </contour>
  </outline>
</glyph>
<glyph name="V" format="2">
  <advance width="636"/>
  <unicode hex="0056"/>
  <anchor x="318" y="0" name="bottom"/>
  <anchor x="318" y="700" name="top"/>
  <outline>
    <contour>
      <point x="335" y="-15" type="line"/>
      <point x="345" y="-15" type="line"/>
      <point x="551" y="627" type="line" smooth="yes"/>
      <point x="568" y="679"/>
      <point x="613" y="678"/>
      <point x="637" y="680" type="curve"/>
      <point x="637" y="700" type="line"/>
      <point x="480" y="700" type="line"/>
      <point x="480" y="680" type="line"/>
      <point x="504" y="678"/>
      <point x="530" y="676"/>
      <point x="513" y="625" type="curve" smooth="yes"/>
      <point x="427" y="360" type="line"/>
      <point x="323" y="623" type="line" smooth="yes"/>
      <point x="303" y="673"/>
      <point x="331" y="678"/>
      <point x="355" y="680" type="curve"/>
      <point x="355" y="700" type="line"/>
      <point x="-1" y="700" type="line"/>
      <point x="-1" y="680" type="line"/>
      <point x="23" y="679"/>
      <point x="66" y="677"/>
      <point x="88" y="621" type="curve" smooth="yes"/>
    </contour>
  </outline>
</glyph>
<glyph name="W" format="2">
  <advance width="1025"/>
  <unicode hex="0057"/>
  <anchor x="513" y="0" name="bottom"/>
  <anchor x="513" y="700" name="top"/>
  <outline>
    <contour>
      <point x="870" y="700" type="line"/>
      <point x="870" y="680" type="line"/>
      <point x="894" y="678"/>
      <point x="917" y="678"/>
      <point x="903" y="625" type="curve" smooth="yes"/>
      <point x="841" y="396" type="line"/>
      <point x="753" y="623" type="line" smooth="yes"/>
      <point x="734" y="673"/>
      <point x="761" y="678"/>
      <point x="785" y="680" type="curve"/>
      <point x="785" y="700" type="line"/>
      <point x="429" y="700" type="line"/>
      <point x="429" y="680" type="line"/>
      <point x="443" y="679"/>
      <point x="464" y="678"/>
      <point x="484" y="666" type="curve"/>
      <point x="411" y="396" type="line"/>
      <point x="323" y="623" type="line" smooth="yes"/>
      <point x="304" y="673"/>
      <point x="331" y="678"/>
      <point x="355" y="680" type="curve"/>
      <point x="355" y="700" type="line"/>
      <point x="-1" y="700" type="line"/>
      <point x="-1" y="680" type="line"/>
      <point x="23" y="679"/>
      <point x="66" y="677"/>
      <point x="88" y="621" type="curve" smooth="yes"/>
      <point x="335" y="-15" type="line"/>
      <point x="512" y="635" type="line"/>
      <point x="765" y="-15" type="line"/>
      <point x="940" y="627" type="line" smooth="yes"/>
      <point x="954" y="679"/>
      <point x="1002" y="678"/>
      <point x="1026" y="680" type="curve"/>
      <point x="1026" y="700" type="line"/>
    </contour>
  </outline>
</glyph>
<glyph name="X" format="2">
  <advance width="680"/>
  <unicode hex="0058"/>
  <anchor x="340" y="0" name="bottom"/>
  <anchor x="340" y="700" name="top"/>
  <outline>
    <contour>
      <point x="18" y="0" type="line"/>
      <point x="179" y="0" type="line"/>
      <point x="179" y="20" type="line"/>
      <point x="155" y="21"/>
      <point x="133" y="26"/>
      <point x="158" y="74" type="curve" smooth="yes"/>
      <point x="258" y="265" type="line"/>
      <point x="346" y="71" type="line"/>
      <point x="363" y="24"/>
      <point x="341" y="21"/>
      <point x="318" y="20" type="curve"/>
      <point x="318" y="0" type="line"/>
      <point x="680" y="0" type="line"/>
      <point x="680" y="20" type="line"/>
      <point x="656" y="21"/>
      <point x="613" y="25"/>
      <point x="586" y="74" type="curve"/>
      <point x="422" y="437" type="line"/>
      <point x="518" y="623" type="line"/>
      <point x="549" y="673"/>
      <point x="594" y="680"/>
      <point x="618" y="680" type="curve"/>
      <point x="618" y="700" type="line"/>
      <point x="457" y="700" type="line"/>
      <point x="457" y="680" type="line"/>
      <point x="481" y="679"/>
      <point x="501" y="671"/>
      <point x="474" y="617" type="curve" smooth="yes"/>
      <point x="403" y="480" type="line"/>
      <point x="340" y="619" type="line" smooth="yes"/>
      <point x="316" y="674"/>
      <point x="338" y="679"/>
      <point x="363" y="680" type="curve"/>
      <point x="363" y="700" type="line"/>
      <point x="2" y="700" type="line"/>
      <point x="2" y="680" type="line"/>
      <point x="26" y="679"/>
      <point x="72" y="674"/>
      <point x="98" y="621" type="curve" smooth="yes"/>
      <point x="239" y="307" type="line"/>
      <point x="119" y="78" type="line"/>
      <point x="88" y="26"/>
      <point x="42" y="21"/>
      <point x="18" y="20" type="curve"/>
    </contour>
  </outline>
</glyph>
<glyph name="Y" format="2">
  <advance width="671"/>
  <unicode hex="0059"/>
  <anchor x="336" y="0" name="bottom"/>
  <anchor x="393" y="700" name="top"/>
  <anchor x="20" y="700" name="topleft"/>
  <outline>
    <contour>
      <point x="182" y="0" type="line"/>
      <point x="522" y="0" type="line"/>
      <point x="522" y="20" type="line"/>
      <point x="497" y="21"/>
      <point x="462" y="26"/>
      <point x="462" y="84" type="curve" smooth="yes"/>
      <point x="462" y="308" type="line"/>
      <point x="574" y="613" type="line" smooth="yes"/>
      <point x="594" y="667"/>
      <point x="649" y="679"/>
      <point x="672" y="680" type="curve"/>
      <point x="672" y="700" type="line"/>
      <point x="513" y="700" type="line"/>
      <point x="513" y="680" type="line"/>
      <point x="536" y="679"/>
      <point x="556" y="669"/>
      <point x="542" y="628" type="curve" smooth="yes"/>
      <point x="451" y="370" type="line"/>
      <point x="325" y="629" type="line" smooth="yes"/>
      <point x="304" y="672"/>
      <point x="333" y="679"/>
      <point x="356" y="680" type="curve"/>
      <point x="356" y="700" type="line"/>
      <point x="-1" y="700" type="line"/>
      <point x="-1" y="680" type="line"/>
      <point x="22" y="679"/>
      <point x="65" y="675"/>
      <point x="91" y="621" type="curve" smooth="yes"/>
      <point x="242" y="300" type="line"/>
      <point x="242" y="84" type="line" smooth="yes"/>
      <point x="242" y="26"/>
      <point x="207" y="21"/>
      <point x="182" y="20" type="curve"/>
    </contour>
  </outline>
</glyph>
<glyph name="Z" format="2">
  <advance width="586"/>
  <unicode hex="005A"/>
  <anchor x="293" y="0" name="bottom"/>
  <anchor x="293" y="350" name="center"/>
  <anchor x="293" y="700" name="top"/>
  <outline>
    <contour>
      <point x="37" y="0" type="line"/>
      <point x="538" y="0" type="line"/>
      <point x="538" y="245" type="line"/>
      <point x="518" y="245" type="line"/>
      <point x="510" y="156"/>
      <point x="488" y="25"/>
      <point x="325" y="25" type="curve" smooth="yes"/>
      <point x="276" y="25" type="line"/>
      <point x="549" y="675" type="line"/>
      <point x="549" y="700" type="line"/>
      <point x="48" y="700" type="line"/>
      <point x="48" y="455" type="line"/>
      <point x="68" y="455" type="line"/>
      <point x="76" y="544"/>
      <point x="98" y="675"/>
      <point x="261" y="675" type="curve" smooth="yes"/>
      <point x="310" y="675" type="line"/>
      <point x="37" y="25" type="line"/>
    </contour>
  </outline>
</glyph>
<glyph name="bracketleft" format="2">
  <advance width="354"/>
  <unicode hex="005B"/>
  <outline>
    <contour>
      <point x="351" y="764" type="line"/>
      <point x="351" y="799" type="line"/>
      <point x="74" y="799" type="line"/>
      <point x="74" y="-109" type="line"/>
      <point x="351" y="-109" type="line"/>
      <point x="351" y="-74" type="line"/>
      <point x="182" y="-74" type="line"/>
      <point x="182" y="764" type="line"/>
    </contour>
  </outline>
</glyph>
<glyph name="backslash" format="2">
  <advance width="273"/>
  <unicode hex="005C"/>
  <outline>
    <contour>
      <point x="61" y="722" type="line"/>
      <point x="-7" y="722" type="line"/>
      <point x="212" y="-10" type="line"/>
      <point x="280" y="-10" type="line"/>
    </contour>
  </outline>
</glyph>
<glyph name="bracketright" format="2">
  <advance width="354"/>
  <unicode hex="005D"/>
  <outline>
    <contour>
      <point x="3" y="-109" type="line"/>
      <point x="280" y="-109" type="line"/>
      <point x="280" y="799" type="line"/>
      <point x="3" y="799" type="line"/>
      <point x="3" y="764" type="line"/>
      <point x="172" y="764" type="line"/>
      <point x="172" y="-74" type="line"/>
      <point x="3" y="-74" type="line"/>
    </contour>
  </outline>
</glyph>
<glyph name="asciicircum" format="2">
  <advance width="500"/>
  <unicode hex="005E"/>
  <outline>
    <contour>
      <point x="420" y="620" type="line"/>
      <point x="250" y="759" type="line"/>
      <point x="80" y="620" type="line"/>
      <point x="98" y="601" type="line"/>
      <point x="250" y="719" type="line"/>
      <point x="402" y="601" type="line"/>
    </contour>
  </outline>
</glyph>
<glyph name="underscore" format="2">
  <advance width="474"/>
  <unicode hex="005F"/>
  <outline>
    <contour>
      <point x="61" y="-14" type="line"/>
      <point x="61" y="-64" type="line"/>
      <point x="413" y="-64" type="line"/>
      <point x="413" y="-14" type="line"/>
    </contour>
  </outline>
</glyph>
<glyph name="a" format="2">
  <advance width="644"/>
  <unicode hex="0061"/>
  <anchor x="322" y="0" name="bottom"/>
  <anchor x="580" y="10" name="ogonek"/>
  <anchor x="322" y="500" name="top"/>
  <outline>
    <contour>
      <point x="215" y="-15" type="curve" smooth="yes"/>
      <point x="287" y="-15"/>
      <point x="335" y="2"/>
      <point x="360" y="41" type="curve"/>
      <point x="380" y="3"/>
      <point x="432" y="-15"/>
      <point x="502" y="-15" type="curve" smooth="yes"/>
      <point x="614" y="-15"/>
      <point x="628" y="9"/>
      <point x="646" y="68" type="curve"/>
      <point x="613" y="82" type="line"/>
      <point x="605" y="51"/>
      <point x="597" y="35"/>
      <point x="586" y="35" type="curve" smooth="yes"/>
      <point x="575" y="35"/>
      <point x="571" y="53"/>
      <point x="571" y="90" type="curve" smooth="yes"/>
      <point x="571" y="321" type="line" smooth="yes"/>
      <point x="571" y="466"/>
      <point x="439" y="513"/>
      <point x="315" y="513" type="curve" smooth="yes"/>
      <point x="250" y="513"/>
      <point x="146" y="498"/>
      <point x="78" y="469" type="curve"/>
      <point x="48" y="293" type="line"/>
      <point x="83" y="293" type="line"/>
      <point x="134" y="432"/>
      <point x="233" y="477"/>
      <point x="287" y="477" type="curve" smooth="yes"/>
      <point x="335" y="477"/>
      <point x="341" y="452"/>
      <point x="347" y="392" type="curve"/>
      <point x="148" y="373"/>
      <point x="35" y="240"/>
      <point x="35" y="131" type="curve" smooth="yes"/>
      <point x="35" y="23"/>
      <point x="135" y="-15"/>
    </contour>
    <contour>
      <point x="307" y="39" type="curve" smooth="yes"/>
      <point x="292" y="39"/>
      <point x="270" y="59"/>
      <point x="270" y="137" type="curve" smooth="yes"/>
      <point x="270" y="218"/>
      <point x="288" y="348"/>
      <point x="349" y="365" type="curve"/>
      <point x="351" y="345"/>
      <point x="351" y="322"/>
      <point x="351" y="296" type="curve" smooth="yes"/>
      <point x="351" y="184" type="line" smooth="yes"/>
      <point x="351" y="77"/>
      <point x="325" y="39"/>
    </contour>
  </outline>
</glyph>
<glyph name="b" format="2">
  <advance width="640"/>
  <unicode hex="0062"/>
  <anchor x="320" y="0" name="bottom"/>
  <anchor x="320" y="250" name="center"/>
  <anchor x="320" y="500" name="top"/>
  <outline>
    <contour>
      <point x="61" y="-15" type="line"/>
      <point x="66" y="-15" type="line"/>
      <point x="273" y="85" type="line"/>
      <point x="308" y="24"/>
      <point x="362" y="-15"/>
      <point x="423" y="-15" type="curve" smooth="yes"/>
      <point x="544" y="-15"/>
      <point x="615" y="100"/>
      <point x="615" y="246" type="curve" smooth="yes"/>
      <point x="615" y="392"/>
      <point x="545" y="515"/>
      <point x="423" y="515" type="curve" smooth="yes"/>
      <point x="366" y="515"/>
      <point x="316" y="482"/>
      <point x="281" y="428" type="curve"/>
      <point x="281" y="700" type="line"/>
      <point x="1" y="700" type="line"/>
      <point x="1" y="680" type="line"/>
      <point x="26" y="679"/>
      <point x="61" y="674"/>
      <point x="61" y="616" type="curve" smooth="yes"/>
    </contour>
    <contour>
      <point x="336" y="69" type="curve" smooth="yes"/>
      <point x="314" y="69"/>
      <point x="281" y="130"/>
      <point x="281" y="246" type="curve" smooth="yes"/>
      <point x="281" y="369"/>
      <point x="315" y="436"/>
      <point x="337" y="436" type="curve" smooth="yes"/>
      <point x="359" y="436"/>
      <point x="390" y="377"/>
      <point x="390" y="246" type="curve" smooth="yes"/>
      <point x="390" y="127"/>
      <point x="358" y="69"/>
    </contour>
  </outline>
</glyph>
<glyph name="d" format="2">
  <advance width="647"/>
  <unicode hex="0064"/>
  <anchor x="324" y="0" name="bottom"/>
  <anchor x="324" y="250" name="center"/>
  <anchor x="324" y="800" name="top"/>
  <anchor x="627" y="830" name="topright"/>
  <outline>
    <contour>
      <point x="224" y="-15" type="curve" smooth="yes"/>
      <point x="285" y="-15"/>
      <point x="339" y="24"/>
      <point x="374" y="85" type="curve"/>
      <point x="581" y="-15" type="line"/>
      <point x="586" y="-15" type="line"/>
      <point x="586" y="700" type="line"/>
      <point x="306" y="700" type="line"/>
      <point x="306" y="690" type="line"/>
      <point x="331" y="683"/>
      <point x="366" y="674"/>
      <point x="366" y="616" type="curve" smooth="yes"/>
      <point x="366" y="428" type="line"/>
      <point x="331" y="482"/>
      <point x="281" y="515"/>
      <point x="224" y="515" type="curve" smooth="yes"/>
      <point x="102" y="515"/>
      <point x="32" y="392"/>
      <point x="32" y="246" type="curve" smooth="yes"/>
      <point x="32" y="100"/>
      <point x="103" y="-15"/>
    </contour>
    <contour>
      <point x="311" y="69" type="curve" smooth="yes"/>
      <point x="283" y="69"/>
      <point x="257" y="127"/>
      <point x="257" y="246" type="curve" smooth="yes"/>
      <point x="257" y="377"/>
      <point x="282" y="436"/>
      <point x="310" y="436" type="curve" smooth="yes"/>
      <point x="332" y="436"/>
      <point x="366" y="369"/>
      <point x="366" y="246" type="curve" smooth="yes"/>
      <point x="366" y="130"/>
      <point x="333" y="69"/>
    </contour>
  </outline>
</glyph>
<glyph name="e" format="2">
  <advance width="565"/>
  <unicode hex="0065"/>
  <anchor x="283" y="0" name="bottom"/>
  <anchor x="509" y="10" name="ogonek"/>
  <anchor x="283" y="500" name="top"/>
  <outline>
    <contour>
      <point x="309" y="-15" type="curve" smooth="yes"/>
      <point x="489" y="-15"/>
      <point x="529" y="101"/>
      <point x="541" y="141" type="curve"/>
      <point x="511" y="159" type="line"/>
      <point x="488" y="104"/>
      <point x="438" y="51"/>
      <point x="383" y="51" type="curve" smooth="yes"/>
      <point x="317" y="51"/>
      <point x="261" y="116"/>
      <point x="248" y="246" type="curve" smooth="yes"/>
      <point x="235" y="380"/>
      <point x="254" y="485"/>
      <point x="295" y="485" type="curve" smooth="yes"/>
      <point x="321" y="485"/>
      <point x="349" y="439"/>
      <point x="342" y="290" type="curve"/>
      <point x="543" y="290" type="line"/>
      <point x="543" y="426"/>
      <point x="424" y="515"/>
      <point x="291" y="515" type="curve" smooth="yes"/>
      <point x="139" y="515"/>
      <point x="23" y="402"/>
      <point x="23" y="240" type="curve" smooth="yes"/>
      <point x="29" y="88"/>
      <point x="144" y="-15"/>
    </contour>
    <contour>
      <point x="197" y="290" type="line"/>
      <point x="499" y="290" type="line"/>
      <point x="499" y="325" type="line"/>
      <point x="197" y="325" type="line"/>
    </contour>
  </outline>
</glyph>
<glyph name="f" format="2">
  <advance width="388"/>
  <unicode hex="0066"/>
  <anchor x="194" y="0" name="bottom"/>
  <anchor x="194" y="800" name="top"/>
  <outline>
    <contour>
      <point x="15" y="0" type="line"/>
      <point x="335" y="0" type="line"/>
      <point x="335" y="20" type="line"/>
      <point x="310" y="21"/>
      <point x="295" y="26"/>
      <point x="295" y="84" type="curve" smooth="yes"/>
      <point x="295" y="465" type="line"/>
      <point x="397" y="465" type="line"/>
      <point x="397" y="500" type="line"/>
      <point x="284" y="500" type="line" smooth="yes"/>
      <point x="218" y="500"/>
      <point x="189" y="549"/>
      <point x="189" y="595" type="curve" smooth="yes"/>
      <point x="189" y="638"/>
      <point x="213" y="679"/>
      <point x="255" y="679" type="curve" smooth="yes"/>
      <point x="313" y="679"/>
      <point x="395" y="611"/>
      <point x="426" y="513" type="curve"/>
      <point x="446" y="513" type="line"/>
      <point x="416" y="669" type="line"/>
      <point x="374" y="704"/>
      <point x="324" y="716"/>
      <point x="275" y="716" type="curve" smooth="yes"/>
      <point x="172" y="716"/>
      <point x="75" y="651"/>
      <point x="75" y="547" type="curve" smooth="yes"/>
      <point x="75" y="500" type="line"/>
      <point x="19" y="500" type="line"/>
      <point x="19" y="465" type="line"/>
      <point x="75" y="465" type="line"/>
      <point x="75" y="84" type="line" smooth="yes"/>
      <point x="75" y="26"/>
      <point x="40" y="21"/>
      <point x="15" y="20" type="curve"/>
    </contour>
  </outline>
</glyph>
<glyph name="g" format="2">
  <advance width="685"/>
  <unicode hex="0067"/>
  <anchor x="343" y="-200" name="bottom"/>
  <anchor x="363" y="500" name="top"/>
  <outline>
    <contour>
      <point x="356" y="169" type="curve" smooth="yes"/>
      <point x="542" y="169"/>
      <point x="625" y="232"/>
      <point x="625" y="335" type="curve" smooth="yes"/>
      <point x="625" y="437"/>
      <point x="542" y="500"/>
      <point x="356" y="500" type="curve" smooth="yes"/>
      <point x="189" y="500"/>
      <point x="86" y="438"/>
      <point x="86" y="335" type="curve" smooth="yes"/>
      <point x="86" y="232"/>
      <point x="190" y="169"/>
    </contour>
    <contour>
      <point x="356" y="204" type="curve" smooth="yes"/>
      <point x="320" y="204"/>
      <point x="306" y="250"/>
      <point x="306" y="335" type="curve" smooth="yes"/>
      <point x="306" y="424"/>
      <point x="320" y="465"/>
      <point x="356" y="465" type="curve" smooth="yes"/>
      <point x="392" y="465"/>
      <point x="405" y="424"/>
      <point x="405" y="335" type="curve" smooth="yes"/>
      <point x="405" y="249"/>
      <point x="392" y="204"/>
    </contour>
    <contour>
      <point x="357" y="465" type="line"/>
      <point x="668" y="465" type="line"/>
      <point x="668" y="500" type="line"/>
      <point x="357" y="500" type="line"/>
    </contour>
    <contour>
      <point x="98" y="-41"/>
      <point x="442" y="77"/>
      <point x="442" y="-77" type="curve" smooth="yes"/>
      <point x="442" y="-154"/>
      <point x="394" y="-183"/>
      <point x="344" y="-183" type="curve" smooth="yes"/>
      <point x="292" y="-183"/>
      <point x="238" y="-150"/>
      <point x="238" y="-62" type="curve" smooth="yes"/>
      <point x="238" y="8"/>
      <point x="284" y="33"/>
      <point x="343" y="44" type="curve"/>
      <point x="304" y="64" type="line"/>
      <point x="223" y="64"/>
      <point x="13" y="49"/>
      <point x="13" y="-70" type="curve" smooth="yes"/>
      <point x="13" y="-198"/>
      <point x="190" y="-215"/>
      <point x="349" y="-215" type="curve" smooth="yes"/>
      <point x="512" y="-215"/>
      <point x="669" y="-181"/>
      <point x="669" y="-56" type="curve" smooth="yes"/>
      <point x="669" y="148"/>
      <point x="248" y="85"/>
      <point x="248" y="144" type="curve" smooth="yes"/>
      <point x="248" y="173"/>
      <point x="296" y="180"/>
      <point x="317" y="188" type="curve"/>
      <point x="264" y="200" type="line"/>
      <point x="203" y="200"/>
      <point x="98" y="183"/>
      <point x="98" y="105" type="curve" smooth="yes"/>
    </contour>
  </outline>
</glyph>
<glyph name="h" format="2">
  <advance width="688"/>
  <unicode hex="0068"/>
  <anchor x="344" y="0" name="bottom"/>
  <anchor x="344" y="400" name="center"/>
  <anchor x="344" y="800" name="top"/>
  <outline>
    <contour>
      <point x="14" y="0" type="line"/>
      <point x="334" y="0" type="line"/>
      <point x="334" y="20" type="line"/>
      <point x="309" y="22"/>
      <point x="294" y="26"/>
      <point x="294" y="84" type="curve" smooth="yes"/>
      <point x="294" y="302" type="line" smooth="yes"/>
      <point x="294" y="399"/>
      <point x="321" y="438"/>
      <point x="356" y="438" type="curve" smooth="yes"/>
      <point x="382" y="438"/>
      <point x="405" y="413"/>
      <point x="405" y="324" type="curve" smooth="yes"/>
      <point x="405" y="84" type="line" smooth="yes"/>
      <point x="405" y="27"/>
      <point x="400" y="23"/>
      <point x="365" y="20" type="curve"/>
      <point x="365" y="0" type="line"/>
      <point x="685" y="0" type="line"/>
      <point x="685" y="20" type="line"/>
      <point x="649" y="21"/>
      <point x="625" y="26"/>
      <point x="625" y="84" type="curve" smooth="yes"/>
      <point x="625" y="347" type="line" smooth="yes"/>
      <point x="625" y="466"/>
      <point x="526" y="515"/>
      <point x="435" y="515" type="curve" smooth="yes"/>
      <point x="375" y="515"/>
      <point x="318" y="489"/>
      <point x="294" y="436" type="curve"/>
      <point x="294" y="700" type="line"/>
      <point x="14" y="700" type="line"/>
      <point x="14" y="680" type="line"/>
      <point x="40" y="679"/>
      <point x="74" y="674"/>
      <point x="74" y="616" type="curve" smooth="yes"/>
      <point x="74" y="84" type="line" smooth="yes"/>
      <point x="74" y="26"/>
      <point x="39" y="22"/>
      <point x="14" y="20" type="curve"/>
    </contour>
  </outline>
</glyph>
<glyph name="k" format="2">
  <advance width="703"/>
  <unicode hex="006B"/>
  <anchor x="352" y="0" name="bottom"/>
  <anchor x="352" y="800" name="top"/>
  <outline>
    <contour>
      <point x="8" y="0" type="line"/>
      <point x="328" y="0" type="line"/>
      <point x="328" y="20" type="line"/>
      <point x="303" y="22"/>
      <point x="288" y="26"/>
      <point x="288" y="84" type="curve" smooth="yes"/>
      <point x="288" y="286" type="line"/>
      <point x="303" y="296" type="line"/>
      <point x="398" y="53" type="line" smooth="yes"/>
      <point x="409" y="25"/>
      <point x="388" y="20"/>
      <point x="359" y="20" type="curve"/>
      <point x="359" y="0" type="line"/>
      <point x="712" y="0" type="line"/>
      <point x="712" y="20" type="line"/>
      <point x="679" y="20"/>
      <point x="642" y="27"/>
      <point x="626" y="68" type="curve" smooth="yes"/>
      <point x="490" y="421" type="line"/>
      <point x="503" y="429" type="line" smooth="yes"/>
      <point x="580" y="475"/>
      <point x="633" y="480"/>
      <point x="669" y="480" type="curve"/>
      <point x="669" y="500" type="line"/>
      <point x="453" y="500" type="line"/>
      <point x="453" y="480" type="line"/>
      <point x="482" y="479"/>
      <point x="488" y="464"/>
      <point x="452" y="439" type="curve" smooth="yes"/>
      <point x="288" y="328" type="line"/>
      <point x="288" y="616" type="line" smooth="yes"/>
      <point x="288" y="675"/>
      <point x="311" y="680"/>
      <point x="348" y="680" type="curve"/>
      <point x="348" y="700" type="line"/>
      <point x="8" y="700" type="line"/>
      <point x="8" y="680" type="line"/>
      <point x="34" y="679"/>
      <point x="68" y="674"/>
      <point x="68" y="616" type="curve" smooth="yes"/>
      <point x="68" y="84" type="line" smooth="yes"/>
      <point x="68" y="26"/>
      <point x="33" y="22"/>
      <point x="8" y="20" type="curve"/>
    </contour>
  </outline>
</glyph>
<glyph name="l" format="2">
  <advance width="356"/>
  <unicode hex="006C"/>
  <anchor x="178" y="0" name="bottom"/>
  <anchor x="178" y="400" name="center"/>
  <anchor x="178" y="700" name="top"/>
  <anchor x="336" y="830" name="topright"/>
  <outline>
    <contour>
      <point x="8" y="0" type="line"/>
      <point x="348" y="0" type="line"/>
      <point x="348" y="20" type="line"/>
      <point x="323" y="21"/>
      <point x="288" y="26"/>
      <point x="288" y="84" type="curve" smooth="yes"/>
      <point x="288" y="700" type="line"/>
      <point x="8" y="700" type="line"/>
      <point x="8" y="680" type="line"/>
      <point x="33" y="679"/>
      <point x="68" y="674"/>
      <point x="68" y="616" type="curve" smooth="yes"/>
      <point x="68" y="84" type="line" smooth="yes"/>
      <point x="68" y="26"/>
      <point x="33" y="21"/>
      <point x="8" y="20" type="curve"/>
    </contour>
  </outline>
</glyph>
<glyph name="m" format="2">
  <advance width="970"/>
  <unicode hex="006D"/>
  <anchor x="485" y="0" name="bottom"/>
  <anchor x="485" y="500" name="top"/>
  <outline>
    <contour>
      <point x="11" y="0" type="line"/>
      <point x="331" y="0" type="line"/>
      <point x="331" y="20" type="line"/>
      <point x="306" y="21"/>
      <point x="291" y="26"/>
      <point x="291" y="84" type="curve" smooth="yes"/>
      <point x="291" y="293" type="line" smooth="yes"/>
      <point x="291" y="403"/>
      <point x="316" y="431"/>
      <point x="340" y="431" type="curve" smooth="yes"/>
      <point x="362" y="431"/>
      <point x="383" y="413"/>
      <point x="382" y="315" type="curve" smooth="yes"/>
      <point x="379" y="84" type="line" smooth="yes"/>
      <point x="378" y="27"/>
      <point x="374" y="22"/>
      <point x="339" y="20" type="curve"/>
      <point x="339" y="0" type="line"/>
      <point x="639" y="0" type="line"/>
      <point x="639" y="20" type="line"/>
      <point x="604" y="22"/>
      <point x="599" y="26"/>
      <point x="599" y="84" type="curve" smooth="yes"/>
      <point x="599" y="293" type="line" smooth="yes"/>
      <point x="599" y="403"/>
      <point x="624" y="431"/>
      <point x="648" y="431" type="curve" smooth="yes"/>
      <point x="670" y="431"/>
      <point x="691" y="413"/>
      <point x="690" y="315" type="curve" smooth="yes"/>
      <point x="687" y="84" type="line" smooth="yes"/>
      <point x="686" y="27"/>
      <point x="682" y="22"/>
      <point x="647" y="20" type="curve"/>
      <point x="647" y="0" type="line"/>
      <point x="967" y="0" type="line"/>
      <point x="967" y="20" type="line"/>
      <point x="931" y="20"/>
      <point x="907" y="26"/>
      <point x="907" y="84" type="curve" smooth="yes"/>
      <point x="907" y="347" type="line" smooth="yes"/>
      <point x="907" y="453"/>
      <point x="812" y="517"/>
      <point x="725" y="517" type="curve" smooth="yes"/>
      <point x="668" y="517"/>
      <point x="611" y="489"/>
      <point x="585" y="413" type="curve"/>
      <point x="556" y="479"/>
      <point x="484" y="517"/>
      <point x="417" y="517" type="curve" smooth="yes"/>
      <point x="365" y="517"/>
      <point x="316" y="494"/>
      <point x="291" y="443" type="curve"/>
      <point x="291" y="500" type="line"/>
      <point x="31" y="500" type="line"/>
      <point x="31" y="480" type="line"/>
      <point x="57" y="479"/>
      <point x="71" y="474"/>
      <point x="71" y="416" type="curve" smooth="yes"/>
      <point x="71" y="84" type="line" smooth="yes"/>
      <point x="71" y="26"/>
      <point x="36" y="21"/>
      <point x="11" y="20" type="curve"/>
    </contour>
  </outline>
</glyph>
<glyph name="n" format="2">
  <advance width="688"/>
  <unicode hex="006E"/>
  <anchor x="344" y="0" name="bottom"/>
  <anchor x="344" y="500" name="top"/>
  <outline>
    <contour>
      <point x="625" y="84" type="curve" smooth="yes"/>
      <point x="625" y="347" type="line" smooth="yes"/>
      <point x="625" y="466"/>
      <point x="526" y="515"/>
      <point x="435" y="515" type="curve" smooth="yes"/>
      <point x="375" y="515"/>
      <point x="318" y="489"/>
      <point x="294" y="436" type="curve"/>
      <point x="294" y="500" type="line"/>
      <point x="14" y="500" type="line"/>
      <point x="14" y="480" type="line"/>
      <point x="40" y="479"/>
      <point x="74" y="474"/>
      <point x="74" y="416" type="curve" smooth="yes"/>
      <point x="74" y="84" type="line" smooth="yes"/>
      <point x="74" y="26"/>
      <point x="39" y="22"/>
      <point x="14" y="20" type="curve"/>
      <point x="14" y="0" type="line"/>
      <point x="334" y="0" type="line"/>
      <point x="334" y="20" type="line"/>
      <point x="309" y="22"/>
      <point x="294" y="26"/>
      <point x="294" y="84" type="curve" smooth="yes"/>
      <point x="294" y="302" type="line" smooth="yes"/>
      <point x="294" y="413"/>
      <point x="321" y="438"/>
      <point x="356" y="438" type="curve" smooth="yes"/>
      <point x="382" y="438"/>
      <point x="405" y="427"/>
      <point x="405" y="324" type="curve" smooth="yes"/>
      <point x="405" y="84" type="line" smooth="yes"/>
      <point x="405" y="27"/>
      <point x="400" y="23"/>
      <point x="365" y="20" type="curve"/>
      <point x="365" y="0" type="line"/>
      <point x="685" y="0" type="line"/>
      <point x="685" y="20" type="line"/>
      <point x="649" y="21"/>
      <point x="625" y="26"/>
    </contour>
  </outline>
</glyph>
<glyph name="o" format="2">
  <advance width="623"/>
  <unicode hex="006F"/>
  <anchor x="312" y="0" name="bottom"/>
  <anchor x="312" y="250" name="center"/>
  <anchor x="561" y="10" name="ogonek"/>
  <anchor x="312" y="500" name="top"/>
  <anchor x="603" y="500" name="topright"/>
  <outline>
    <contour>
      <point x="312" y="-15" type="curve" smooth="yes"/>
      <point x="481" y="-15"/>
      <point x="598" y="80"/>
      <point x="598" y="246" type="curve" smooth="yes"/>
      <point x="598" y="412"/>
      <point x="491" y="515"/>
      <point x="312" y="515" type="curve" smooth="yes"/>
      <point x="143" y="515"/>
      <point x="24" y="412"/>
      <point x="24" y="246" type="curve" smooth="yes"/>
      <point x="24" y="80"/>
      <point x="143" y="-15"/>
    </contour>
    <contour>
      <point x="311" y="16" type="curve" smooth="yes"/>
      <point x="270" y="16"/>
      <point x="249" y="43"/>
      <point x="249" y="246" type="curve" smooth="yes"/>
      <point x="249" y="444"/>
      <point x="270" y="485"/>
      <point x="311" y="485" type="curve" smooth="yes"/>
      <point x="352" y="485"/>
      <point x="373" y="446"/>
      <point x="373" y="246" type="curve" smooth="yes"/>
      <point x="373" y="42"/>
      <point x="352" y="16"/>
    </contour>
  </outline>
</glyph>
<glyph name="p" format="2">
  <advance width="652"/>
  <unicode hex="0070"/>
  <anchor x="326" y="0" name="bottom"/>
  <anchor x="326" y="500" name="top"/>
  <outline>
    <contour>
      <point x="6" y="-200" type="line"/>
      <point x="346" y="-200" type="line"/>
      <point x="346" y="-190" type="line"/>
      <point x="322" y="-183"/>
      <point x="286" y="-174"/>
      <point x="286" y="-116" type="curve" smooth="yes"/>
      <point x="286" y="72" type="line"/>
      <point x="321" y="19"/>
      <point x="371" y="-15"/>
      <point x="428" y="-15" type="curve" smooth="yes"/>
      <point x="549" y="-15"/>
      <point x="620" y="100"/>
      <point x="620" y="246" type="curve" smooth="yes"/>
      <point x="620" y="392"/>
      <point x="550" y="515"/>
      <point x="428" y="515" type="curve" smooth="yes"/>
      <point x="371" y="515"/>
      <point x="321" y="482"/>
      <point x="286" y="428" type="curve"/>
      <point x="286" y="500" type="line"/>
      <point x="6" y="500" type="line"/>
      <point x="6" y="490" type="line"/>
      <point x="30" y="483"/>
      <point x="66" y="474"/>
      <point x="66" y="416" type="curve" smooth="yes"/>
      <point x="66" y="-116" type="line" smooth="yes"/>
      <point x="66" y="-174"/>
      <point x="30" y="-183"/>
      <point x="6" y="-190" type="curve"/>
    </contour>
    <contour>
      <point x="341" y="69" type="curve" smooth="yes"/>
      <point x="319" y="69"/>
      <point x="286" y="130"/>
      <point x="286" y="246" type="curve" smooth="yes"/>
      <point x="286" y="369"/>
      <point x="320" y="436"/>
      <point x="342" y="436" type="curve" smooth="yes"/>
      <point x="370" y="436"/>
      <point x="395" y="377"/>
      <point x="395" y="246" type="curve" smooth="yes"/>
      <point x="395" y="127"/>
      <point x="369" y="69"/>
    </contour>
  </outline>
</glyph>
<glyph name="q" format="2">
  <advance width="647"/>
  <unicode hex="0071"/>
  <anchor x="324" y="0" name="bottom"/>
  <anchor x="324" y="500" name="top"/>
  <outline>
    <contour>
      <point x="306" y="-200" type="line"/>
      <point x="646" y="-200" type="line"/>
      <point x="646" y="-190" type="line"/>
      <point x="621" y="-183"/>
      <point x="586" y="-174"/>
      <point x="586" y="-116" type="curve" smooth="yes"/>
      <point x="586" y="515" type="line"/>
      <point x="581" y="515" type="line"/>
      <point x="371" y="420" type="line"/>
      <point x="336" y="478"/>
      <point x="283" y="515"/>
      <point x="224" y="515" type="curve" smooth="yes"/>
      <point x="103" y="515"/>
      <point x="32" y="400"/>
      <point x="32" y="254" type="curve" smooth="yes"/>
      <point x="32" y="108"/>
      <point x="102" y="-15"/>
      <point x="224" y="-15" type="curve" smooth="yes"/>
      <point x="281" y="-15"/>
      <point x="331" y="18"/>
      <point x="366" y="72" type="curve"/>
      <point x="366" y="-116" type="line" smooth="yes"/>
      <point x="366" y="-174"/>
      <point x="331" y="-183"/>
      <point x="306" y="-190" type="curve"/>
    </contour>
    <contour>
      <point x="310" y="64" type="curve" smooth="yes"/>
      <point x="282" y="64"/>
      <point x="257" y="123"/>
      <point x="257" y="254" type="curve" smooth="yes"/>
      <point x="257" y="373"/>
      <point x="283" y="431"/>
      <point x="311" y="431" type="curve" smooth="yes"/>
      <point x="333" y="431"/>
      <point x="366" y="370"/>
      <point x="366" y="254" type="curve" smooth="yes"/>
      <point x="366" y="131"/>
      <point x="332" y="64"/>
    </contour>
  </outline>
</glyph>
<glyph name="r" format="2">
  <advance width="547"/>
  <unicode hex="0072"/>
  <anchor x="274" y="0" name="bottom"/>
  <anchor x="274" y="500" name="top"/>
  <outline>
    <contour>
      <point x="294" y="84" type="curve" smooth="yes"/>
      <point x="294" y="500" type="line"/>
      <point x="14" y="500" type="line"/>
      <point x="14" y="480" type="line"/>
      <point x="40" y="479"/>
      <point x="74" y="474"/>
      <point x="74" y="416" type="curve" smooth="yes"/>
      <point x="74" y="84" type="line" smooth="yes"/>
      <point x="74" y="26"/>
      <point x="39" y="21"/>
      <point x="14" y="20" type="curve"/>
      <point x="14" y="0" type="line"/>
      <point x="334" y="0" type="line"/>
      <point x="334" y="20" type="line"/>
      <point x="309" y="21"/>
      <point x="294" y="26"/>
    </contour>
    <contour>
      <point x="376" y="466" type="curve" smooth="yes"/>
      <point x="420" y="466"/>
      <point x="440" y="411"/>
      <point x="491" y="263" type="curve"/>
      <point x="532" y="263" type="line"/>
      <point x="509" y="448" type="line"/>
      <point x="487" y="484"/>
      <point x="445" y="515"/>
      <point x="400" y="515" type="curve" smooth="yes"/>
      <point x="339" y="515"/>
      <point x="266" y="452"/>
      <point x="248" y="310" type="curve"/>
      <point x="294" y="196" type="line"/>
      <point x="294" y="370"/>
      <point x="325" y="466"/>
    </contour>
  </outline>
</glyph>
<glyph name="s" format="2">
  <advance width="594"/>
  <unicode hex="0073"/>
  <anchor x="297" y="0" name="bottom"/>
  <anchor x="297" y="500" name="top"/>
  <outline>
    <contour>
      <point x="309" y="-15" type="curve" smooth="yes"/>
      <point x="437" y="-15"/>
      <point x="569" y="29"/>
      <point x="569" y="146" type="curve" smooth="yes"/>
      <point x="569" y="240"/>
      <point x="487" y="282"/>
      <point x="405" y="314" type="curve" smooth="yes"/>
      <point x="323" y="346"/>
      <point x="257" y="369"/>
      <point x="257" y="426" type="curve" smooth="yes"/>
      <point x="257" y="454"/>
      <point x="278" y="479"/>
      <point x="316" y="479" type="curve" smooth="yes"/>
      <point x="391" y="479"/>
      <point x="460" y="407"/>
      <point x="504" y="295" type="curve"/>
      <point x="539" y="295" type="line"/>
      <point x="509" y="471" type="line"/>
      <point x="447" y="500"/>
      <point x="361" y="514"/>
      <point x="297" y="514" type="curve" smooth="yes"/>
      <point x="175" y="514"/>
      <point x="57" y="470"/>
      <point x="57" y="358" type="curve" smooth="yes"/>
      <point x="57" y="276"/>
      <point x="124" y="231"/>
      <point x="211" y="191" type="curve" smooth="yes"/>
      <point x="305" y="148"/>
      <point x="369" y="125"/>
      <point x="369" y="76" type="curve" smooth="yes"/>
      <point x="369" y="38"/>
      <point x="342" y="21"/>
      <point x="296" y="21" type="curve" smooth="yes"/>
      <point x="230" y="21"/>
      <point x="123" y="83"/>
      <point x="62" y="248" type="curve"/>
      <point x="27" y="248" type="line"/>
      <point x="54" y="59" type="line"/>
      <point x="100" y="7"/>
      <point x="212" y="-15"/>
    </contour>
  </outline>
</glyph>
<glyph name="t" format="2">
  <advance width="451"/>
  <unicode hex="0074"/>
  <anchor x="256" y="0" name="bottom"/>
  <anchor x="226" y="250" name="center"/>
  <anchor x="226" y="500" name="top"/>
  <anchor x="328" y="830" name="topright"/>
  <outline>
    <contour>
      <point x="-5" y="465" type="line"/>
      <point x="423" y="465" type="line"/>
      <point x="423" y="500" type="line"/>
      <point x="-5" y="500" type="line"/>
    </contour>
    <contour>
      <point x="-5" y="500" type="curve"/>
      <point x="288" y="500" type="line"/>
      <point x="288" y="700" type="line"/>
      <point x="258" y="700" type="line"/>
      <point x="252" y="567"/>
      <point x="188" y="500"/>
    </contour>
    <contour>
      <point x="452" y="72" type="curve"/>
      <point x="427" y="97" type="line"/>
      <point x="406" y="66"/>
      <point x="382" y="50"/>
      <point x="359" y="50" type="curve" smooth="yes"/>
      <point x="321" y="50"/>
      <point x="288" y="95"/>
      <point x="288" y="188" type="curve" smooth="yes"/>
      <point x="288" y="478" type="line"/>
      <point x="68" y="478" type="line"/>
      <point x="68" y="188" type="line" smooth="yes"/>
      <point x="68" y="64"/>
      <point x="162" y="-17"/>
      <point x="269" y="-17" type="curve" smooth="yes"/>
      <point x="351" y="-17"/>
      <point x="404" y="1"/>
    </contour>
  </outline>
</glyph>
<glyph name="u" format="2">
  <advance width="662"/>
  <unicode hex="0075"/>
  <anchor x="331" y="0" name="bottom"/>
  <anchor x="596" y="10" name="ogonek"/>
  <anchor x="331" y="500" name="top"/>
  <anchor x="642" y="500" name="topright"/>
  <outline>
    <contour>
      <point x="245" y="-15" type="curve" smooth="yes"/>
      <point x="299" y="-15"/>
      <point x="350" y="8"/>
      <point x="374" y="63" type="curve"/>
      <point x="374" y="0" type="line"/>
      <point x="654" y="0" type="line"/>
      <point x="654" y="20" type="line"/>
      <point x="628" y="21"/>
      <point x="594" y="26"/>
      <point x="594" y="84" type="curve" smooth="yes"/>
      <point x="594" y="500" type="line"/>
      <point x="334" y="500" type="line"/>
      <point x="334" y="480" type="line"/>
      <point x="359" y="479"/>
      <point x="374" y="474"/>
      <point x="374" y="416" type="curve" smooth="yes"/>
      <point x="374" y="198" type="line" smooth="yes"/>
      <point x="374" y="88"/>
      <point x="349" y="60"/>
      <point x="327" y="60" type="curve" smooth="yes"/>
      <point x="303" y="60"/>
      <point x="283" y="78"/>
      <point x="283" y="176" type="curve" smooth="yes"/>
      <point x="283" y="500" type="line"/>
      <point x="3" y="500" type="line"/>
      <point x="3" y="480" type="line"/>
      <point x="39" y="480"/>
      <point x="63" y="474"/>
      <point x="63" y="416" type="curve" smooth="yes"/>
      <point x="63" y="153" type="line" smooth="yes"/>
      <point x="63" y="47"/>
      <point x="158" y="-15"/>
    </contour>
  </outline>
</glyph>
<glyph name="v" format="2">
  <advance width="618"/>
  <unicode hex="0076"/>
  <anchor x="309" y="0" name="bottom"/>
  <anchor x="309" y="500" name="top"/>
  <outline>
    <contour>
      <point x="631" y="500" type="line"/>
      <point x="471" y="500" type="line"/>
      <point x="471" y="480" type="line"/>
      <point x="504" y="479"/>
      <point x="516" y="474"/>
      <point x="496" y="429" type="curve" smooth="yes"/>
      <point x="416" y="268" type="line"/>
      <point x="334" y="424" type="line" smooth="yes"/>
      <point x="310" y="474"/>
      <point x="321" y="479"/>
      <point x="355" y="480" type="curve"/>
      <point x="355" y="500" type="line"/>
      <point x="-13" y="500" type="line"/>
      <point x="-13" y="480" type="line"/>
      <point x="21" y="479"/>
      <point x="63" y="470"/>
      <point x="85" y="427" type="curve" smooth="yes"/>
      <point x="314" y="-15" type="line"/>
      <point x="531" y="421" type="line" smooth="yes"/>
      <point x="560" y="474"/>
      <point x="596" y="479"/>
      <point x="631" y="480" type="curve"/>
    </contour>
  </outline>
</glyph>
<glyph name="w" format="2">
  <advance width="1009"/>
  <unicode hex="0077"/>
  <anchor x="505" y="0" name="bottom"/>
  <anchor x="505" y="500" name="top"/>
  <outline>
    <contour>
      <point x="314" y="-15" type="line"/>
      <point x="507" y="416" type="line"/>
      <point x="731" y="-15" type="line"/>
      <point x="927" y="422" type="line" smooth="yes"/>
      <point x="951" y="476"/>
      <point x="987" y="479"/>
      <point x="1022" y="480" type="curve"/>
      <point x="1022" y="500" type="line"/>
      <point x="862" y="500" type="line"/>
      <point x="862" y="480" type="line"/>
      <point x="896" y="479"/>
      <point x="910" y="474"/>
      <point x="889" y="425" type="curve" smooth="yes"/>
      <point x="826" y="281" type="line"/>
      <point x="751" y="424" type="line" smooth="yes"/>
      <point x="725" y="473"/>
      <point x="738" y="479"/>
      <point x="772" y="480" type="curve"/>
      <point x="772" y="500" type="line"/>
      <point x="445" y="500" type="line"/>
      <point x="445" y="480" type="line"/>
      <point x="479" y="479"/>
      <point x="493" y="474"/>
      <point x="472" y="425" type="curve" smooth="yes"/>
      <point x="409" y="281" type="line"/>
      <point x="334" y="424" type="line" smooth="yes"/>
      <point x="308" y="473"/>
      <point x="321" y="479"/>
      <point x="355" y="480" type="curve"/>
      <point x="355" y="500" type="line"/>
      <point x="-13" y="500" type="line"/>
      <point x="-13" y="480" type="line"/>
      <point x="21" y="479"/>
      <point x="59" y="477"/>
      <point x="85" y="427" type="curve" smooth="yes"/>
    </contour>
  </outline>
</glyph>
<glyph name="x" format="2">
  <advance width="618"/>
  <unicode hex="0078"/>
  <anchor x="309" y="0" name="bottom"/>
  <anchor x="309" y="500" name="top"/>
  <outline>
    <contour>
      <point x="12" y="0" type="line"/>
      <point x="175" y="0" type="line"/>
      <point x="175" y="20" type="line"/>
      <point x="143" y="21"/>
      <point x="133" y="27"/>
      <point x="160" y="67" type="curve" smooth="yes"/>
      <point x="229" y="169" type="line"/>
      <point x="281" y="73" type="line" smooth="yes"/>
      <point x="307" y="26"/>
      <point x="292" y="21"/>
      <point x="259" y="20" type="curve"/>
      <point x="259" y="0" type="line"/>
      <point x="628" y="0" type="line"/>
      <point x="628" y="20" type="line"/>
      <point x="594" y="21"/>
      <point x="556" y="21"/>
      <point x="529" y="72" type="curve" smooth="yes"/>
      <point x="399" y="318" type="line"/>
      <point x="471" y="424" type="line" smooth="yes"/>
      <point x="508" y="478"/>
      <point x="549" y="479"/>
      <point x="583" y="480" type="curve"/>
      <point x="583" y="500" type="line"/>
      <point x="420" y="500" type="line"/>
      <point x="420" y="480" type="line"/>
      <point x="454" y="479"/>
      <point x="462" y="473"/>
      <point x="429" y="425" type="curve" smooth="yes"/>
      <point x="380" y="353" type="line"/>
      <point x="343" y="423" type="line" smooth="yes"/>
      <point x="318" y="474"/>
      <point x="328" y="479"/>
      <point x="362" y="480" type="curve"/>
      <point x="362" y="500" type="line"/>
      <point x="-6" y="500" type="line"/>
      <point x="-6" y="480" type="line"/>
      <point x="28" y="479"/>
      <point x="66" y="478"/>
      <point x="94" y="425" type="curve" smooth="yes"/>
      <point x="211" y="204" type="line"/>
      <point x="124" y="76" type="line" smooth="yes"/>
      <point x="87" y="22"/>
      <point x="46" y="21"/>
      <point x="12" y="20" type="curve"/>
    </contour>
  </outline>
</glyph>
<glyph name="y" format="2">
  <advance width="560"/>
  <unicode hex="0079"/>
  <anchor x="280" y="0" name="bottom"/>
  <anchor x="335" y="500" name="top"/>
  <outline>
    <contour>
      <point x="188" y="-200" type="line"/>
      <point x="335" y="-200" type="line"/>
      <point x="335" y="-180" type="line"/>
      <point x="301" y="-179"/>
      <point x="285" y="-174"/>
      <point x="302" y="-125" type="curve" smooth="yes"/>
      <point x="496" y="425" type="line" smooth="yes"/>
      <point x="514" y="475"/>
      <point x="539" y="479"/>
      <point x="573" y="480" type="curve"/>
      <point x="573" y="500" type="line"/>
      <point x="426" y="500" type="line"/>
      <point x="426" y="480" type="line"/>
      <point x="460" y="479"/>
      <point x="476" y="474"/>
      <point x="459" y="425" type="curve" smooth="yes"/>
      <point x="407" y="278" type="line"/>
      <point x="329" y="431" type="line" smooth="yes"/>
      <point x="307" y="473"/>
      <point x="322" y="479"/>
      <point x="354" y="480" type="curve"/>
      <point x="354" y="500" type="line"/>
      <point x="-13" y="500" type="line"/>
      <point x="-13" y="480" type="line"/>
      <point x="22" y="479"/>
      <point x="60" y="475"/>
      <point x="87" y="421" type="curve" smooth="yes"/>
      <point x="306" y="-8" type="line"/>
      <point x="265" y="-125" type="line" smooth="yes"/>
      <point x="247" y="-177"/>
      <point x="222" y="-179"/>
      <point x="188" y="-180" type="curve"/>
    </contour>
  </outline>
</glyph>
<glyph name="z" format="2">
  <advance width="566"/>
  <unicode hex="007A"/>
  <anchor x="283" y="0" name="bottom"/>
  <anchor x="283" y="250" name="center"/>
  <anchor x="283" y="500" name="top"/>
  <outline>
    <contour>
      <point x="9" y="0" type="line"/>
      <point x="529" y="0" type="line"/>
      <point x="539" y="130" type="line"/>
      <point x="519" y="130" type="line"/>
      <point x="512" y="75"/>
      <point x="471" y="35"/>
      <point x="413" y="35" type="curve" smooth="yes"/>
      <point x="285" y="35" type="line"/>
      <point x="557" y="500" type="line"/>
      <point x="37" y="500" type="line"/>
      <point x="27" y="370" type="line"/>
      <point x="47" y="370" type="line"/>
      <point x="54" y="425"/>
      <point x="95" y="465"/>
      <point x="153" y="465" type="curve" smooth="yes"/>
      <point x="281" y="465" type="line"/>
    </contour>
  </outline>
</glyph>
<glyph name="braceleft" format="2">
  <advance width="329"/>
  <unicode hex="007B"/>
  <outline>
    <contour>
      <point x="28" y="246" type="line"/>
      <point x="122" y="246"/>
      <point x="166" y="213"/>
      <point x="166" y="160" type="curve" smooth="yes"/>
      <point x="166" y="100"/>
      <point x="50" y="32"/>
      <point x="50" y="-60" type="curve" smooth="yes"/>
      <point x="50" y="-176"/>
      <point x="188" y="-221"/>
      <point x="288" y="-221" type="curve" smooth="yes"/>
      <point x="329" y="-221" type="line"/>
      <point x="329" y="-186" type="line"/>
      <point x="290" y="-186" type="line" smooth="yes"/>
      <point x="202" y="-186"/>
      <point x="152" y="-157"/>
      <point x="152" y="-63" type="curve" smooth="yes"/>
      <point x="152" y="42"/>
      <point x="222" y="75"/>
      <point x="222" y="156" type="curve" smooth="yes"/>
      <point x="222" y="234"/>
      <point x="139" y="265"/>
      <point x="83" y="266" type="curve"/>
      <point x="139" y="267"/>
      <point x="222" y="298"/>
      <point x="222" y="376" type="curve" smooth="yes"/>
      <point x="222" y="457"/>
      <point x="152" y="491"/>
      <point x="152" y="596" type="curve" smooth="yes"/>
      <point x="152" y="690"/>
      <point x="202" y="718"/>
      <point x="290" y="718" type="curve" smooth="yes"/>
      <point x="329" y="718" type="line"/>
      <point x="329" y="753" type="line"/>
      <point x="288" y="753" type="line" smooth="yes"/>
      <point x="188" y="753"/>
      <point x="50" y="708"/>
      <point x="50" y="592" type="curve" smooth="yes"/>
      <point x="50" y="500"/>
      <point x="166" y="432"/>
      <point x="166" y="372" type="curve" smooth="yes"/>
      <point x="166" y="319"/>
      <point x="122" y="286"/>
      <point x="28" y="286" type="curve"/>
    </contour>
  </outline>
</glyph>
<glyph name="braceright" format="2">
  <advance width="329"/>
  <unicode hex="007D"/>
  <outline>
    <contour>
      <point x="301" y="246" type="curve"/>
      <point x="301" y="286" type="line"/>
      <point x="207" y="286"/>
      <point x="163" y="319"/>
      <point x="163" y="372" type="curve" smooth="yes"/>
      <point x="163" y="432"/>
      <point x="279" y="500"/>
      <point x="279" y="592" type="curve" smooth="yes"/>
      <point x="279" y="708"/>
      <point x="141" y="753"/>
      <point x="41" y="753" type="curve" smooth="yes"/>
      <point x="0" y="753" type="line"/>
      <point x="0" y="718" type="line"/>
      <point x="39" y="718" type="line" smooth="yes"/>
      <point x="127" y="718"/>
      <point x="177" y="690"/>
      <point x="177" y="596" type="curve" smooth="yes"/>
      <point x="177" y="491"/>
      <point x="107" y="457"/>
      <point x="107" y="376" type="curve" smooth="yes"/>
      <point x="107" y="298"/>
      <point x="190" y="267"/>
      <point x="246" y="266" type="curve"/>
      <point x="190" y="265"/>
      <point x="107" y="234"/>
      <point x="107" y="156" type="curve" smooth="yes"/>
      <point x="107" y="75"/>
      <point x="177" y="42"/>
      <point x="177" y="-63" type="curve" smooth="yes"/>
      <point x="177" y="-157"/>
      <point x="127" y="-186"/>
      <point x="39" y="-186" type="curve" smooth="yes"/>
      <point x="0" y="-186" type="line"/>
      <point x="0" y="-221" type="line"/>
      <point x="41" y="-221" type="line" smooth="yes"/>
      <point x="141" y="-221"/>
      <point x="279" y="-176"/>
      <point x="279" y="-60" type="curve" smooth="yes"/>
      <point x="279" y="32"/>
      <point x="163" y="100"/>
      <point x="163" y="160" type="curve" smooth="yes"/>
      <point x="163" y="213"/>
      <point x="207" y="246"/>
    </contour>
  </outline>
</glyph>
<glyph name="asciitilde" format="2">
  <advance width="603"/>
  <unicode hex="007E"/>
  <outline>
    <contour>
      <point x="179" y="286" type="curve" smooth="yes"/>
      <point x="259" y="286"/>
      <point x="335" y="190"/>
      <point x="424" y="190" type="curve" smooth="yes"/>
      <point x="488" y="190"/>
      <point x="523" y="244"/>
      <point x="523" y="326" type="curve"/>
      <point x="488" y="326" type="line"/>
      <point x="488" y="257"/>
      <point x="461" y="230"/>
      <point x="430" y="230" type="curve" smooth="yes"/>
      <point x="353" y="230"/>
      <point x="282" y="326"/>
      <point x="186" y="326" type="curve" smooth="yes"/>
      <point x="117" y="326"/>
      <point x="80" y="272"/>
      <point x="80" y="190" type="curve"/>
      <point x="115" y="190" type="line"/>
      <point x="115" y="259"/>
      <point x="143" y="286"/>
    </contour>
  </outline>
</glyph>
<glyph name="cent" format="2">
  <advance width="600"/>
  <unicode hex="00A2"/>
  <outline>
    <contour>
      <point x="312" y="-15" type="curve" smooth="yes"/>
      <point x="393" y="-15"/>
      <point x="477" y="6"/>
      <point x="527" y="95" type="curve"/>
      <point x="499" y="116" type="line"/>
      <point x="472" y="74"/>
      <point x="430" y="51"/>
      <point x="388" y="51" type="curve" smooth="yes"/>
      <point x="302" y="51"/>
      <point x="253" y="164"/>
      <point x="253" y="281" type="curve" smooth="yes"/>
      <point x="253" y="376"/>
      <point x="284" y="481"/>
      <point x="353" y="481" type="curve" smooth="yes"/>
      <point x="414" y="481"/>
      <point x="474" y="390"/>
      <point x="494" y="293" type="curve"/>
      <point x="529" y="293" type="line"/>
      <point x="499" y="469" type="line"/>
      <point x="448" y="501"/>
      <point x="390" y="515"/>
      <point x="333" y="515" type="curve" smooth="yes"/>
      <point x="181" y="515"/>
      <point x="33" y="410"/>
      <point x="33" y="246" type="curve" smooth="yes"/>
      <point x="33" y="81"/>
      <point x="151" y="-15"/>
    </contour>
    <contour>
      <point x="413" y="585" type="line"/>
      <point x="264" y="-90" type="line"/>
      <point x="300" y="-90" type="line"/>
      <point x="449" y="585" type="line"/>
    </contour>
  </outline>
</glyph>
<glyph name="sterling" format="2">
  <advance width="670"/>
  <unicode hex="00A3"/>
  <outline>
    <contour>
      <point x="66" y="0" type="line"/>
      <point x="235" y="76"/>
      <point x="383" y="154"/>
      <point x="383" y="265" type="curve" smooth="yes"/>
      <point x="383" y="394"/>
      <point x="289" y="382"/>
      <point x="289" y="522" type="curve" smooth="yes"/>
      <point x="289" y="624"/>
      <point x="334" y="675"/>
      <point x="378" y="675" type="curve" smooth="yes"/>
      <point x="437" y="675"/>
      <point x="516" y="600"/>
      <point x="553" y="475" type="curve"/>
      <point x="593" y="475" type="line"/>
      <point x="572" y="637" type="line"/>
      <point x="541" y="679"/>
      <point x="478" y="715"/>
      <point x="357" y="715" type="curve" smooth="yes"/>
      <point x="118" y="715"/>
      <point x="74" y="589"/>
      <point x="74" y="528" type="curve" smooth="yes"/>
      <point x="74" y="376"/>
      <point x="284" y="343"/>
      <point x="284" y="233" type="curve" smooth="yes"/>
      <point x="284" y="174"/>
      <point x="184" y="93"/>
      <point x="66" y="35" type="curve"/>
    </contour>
    <contour>
      <point x="66" y="0" type="line"/>
      <point x="628" y="0" type="line"/>
      <point x="628" y="202" type="line"/>
      <point x="618" y="202" type="line"/>
      <point x="618" y="162"/>
      <point x="599" y="150"/>
      <point x="552" y="150" type="curve"/>
      <point x="286" y="150" type="line"/>
    </contour>
    <contour>
      <point x="56" y="260" type="line"/>
      <point x="519" y="260" type="line"/>
      <point x="519" y="290" type="line"/>
      <point x="56" y="289" type="line"/>
    </contour>
    <contour>
      <point x="56" y="394" type="line"/>
      <point x="519" y="394" type="line"/>
      <point x="519" y="424" type="line"/>
      <point x="56" y="424" type="line"/>
    </contour>
  </outline>
</glyph>
<glyph name="currency" format="2">
  <advance width="493"/>
  <unicode hex="00A4"/>
  <outline>
    <contour>
      <point x="247" y="230" type="curve" smooth="yes"/>
      <point x="338" y="230"/>
      <point x="412" y="304"/>
      <point x="412" y="395" type="curve" smooth="yes"/>
      <point x="412" y="485"/>
      <point x="338" y="559"/>
      <point x="247" y="559" type="curve" smooth="yes"/>
      <point x="157" y="559"/>
      <point x="83" y="485"/>
      <point x="83" y="395" type="curve" smooth="yes"/>
      <point x="83" y="304"/>
      <point x="157" y="230"/>
    </contour>
    <contour>
      <point x="247" y="270" type="curve" smooth="yes"/>
      <point x="179" y="270"/>
      <point x="122" y="327"/>
      <point x="122" y="395" type="curve" smooth="yes"/>
      <point x="122" y="463"/>
      <point x="179" y="520"/>
      <point x="247" y="520" type="curve" smooth="yes"/>
      <point x="315" y="520"/>
      <point x="372" y="463"/>
      <point x="372" y="395" type="curve" smooth="yes"/>
      <point x="372" y="327"/>
      <point x="315" y="270"/>
    </contour>
    <contour>
      <point x="78" y="549" type="line"/>
      <point x="51" y="524" type="line"/>
      <point x="118" y="457" type="line"/>
      <point x="144" y="481" type="line"/>
    </contour>
    <contour>
      <point x="416" y="548" type="line"/>
      <point x="349" y="481" type="line"/>
      <point x="375" y="457" type="line"/>
      <point x="443" y="523" type="line"/>
    </contour>
    <contour>
      <point x="78" y="241" type="line"/>
      <point x="144" y="308" type="line"/>
      <point x="119" y="333" type="line"/>
      <point x="52" y="267" type="line"/>
    </contour>
    <contour>
      <point x="415" y="240" type="line"/>
      <point x="441" y="267" type="line"/>
      <point x="374" y="334" type="line"/>
      <point x="349" y="308" type="line"/>
    </contour>
  </outline>
</glyph>
<glyph name="yen" format="2">
  <advance width="735"/>
  <unicode hex="00A5"/>
  <outline>
    <contour>
      <point x="191" y="0" type="line"/>
      <point x="531" y="0" type="line"/>
      <point x="531" y="20" type="line"/>
      <point x="506" y="21"/>
      <point x="471" y="26"/>
      <point x="471" y="84" type="curve" smooth="yes"/>
      <point x="471" y="308" type="line"/>
      <point x="609" y="627" type="line" smooth="yes"/>
      <point x="631" y="677"/>
      <point x="678" y="679"/>
      <point x="701" y="680" type="curve"/>
      <point x="701" y="700" type="line"/>
      <point x="555" y="700" type="line"/>
      <point x="555" y="680" type="line"/>
      <point x="578" y="679"/>
      <point x="601" y="667"/>
      <point x="584" y="628" type="curve" smooth="yes"/>
      <point x="466" y="357" type="line"/>
      <point x="354" y="629" type="line" smooth="yes"/>
      <point x="339" y="675"/>
      <point x="362" y="679"/>
      <point x="385" y="680" type="curve"/>
      <point x="385" y="700" type="line"/>
      <point x="28" y="700" type="line"/>
      <point x="28" y="680" type="line"/>
      <point x="51" y="679"/>
      <point x="97" y="677"/>
      <point x="120" y="621" type="curve" smooth="yes"/>
      <point x="251" y="300" type="line"/>
      <point x="251" y="84" type="line" smooth="yes"/>
      <point x="251" y="26"/>
      <point x="216" y="21"/>
      <point x="191" y="20" type="curve"/>
    </contour>
    <contour>
      <point x="116" y="144" type="line"/>
      <point x="589" y="144" type="line"/>
      <point x="589" y="179" type="line"/>
      <point x="116" y="178" type="line"/>
    </contour>
    <contour>
      <point x="116" y="281" type="line"/>
      <point x="589" y="281" type="line"/>
      <point x="589" y="316" type="line"/>
      <point x="116" y="316" type="line"/>
    </contour>
  </outline>
</glyph>
<glyph name="brokenbar" format="2">
  <advance width="308"/>
  <unicode hex="00A6"/>
  <outline>
    <contour>
      <point x="173" y="226" type="line"/>
      <point x="135" y="226" type="line"/>
      <point x="135" y="-120" type="line"/>
      <point x="173" y="-120" type="line"/>
    </contour>
    <contour>
      <point x="135" y="366" type="line"/>
      <point x="173" y="366" type="line"/>
      <point x="173" y="715" type="line"/>
      <point x="135" y="715" type="line"/>
    </contour>
  </outline>
</glyph>
<glyph name="section" format="2">
  <advance width="631"/>
  <unicode hex="00A7"/>
  <outline>
    <contour>
      <point x="56" y="559" type="curve" smooth="yes"/>
      <point x="56" y="487"/>
      <point x="99" y="429"/>
      <point x="194" y="377" type="curve"/>
      <point x="78" y="350"/>
      <point x="27" y="300"/>
      <point x="27" y="211" type="curve" smooth="yes"/>
      <point x="27" y="4"/>
      <point x="392" y="-7"/>
      <point x="392" y="-124" type="curve" smooth="yes"/>
      <point x="392" y="-162"/>
      <point x="365" y="-179"/>
      <point x="319" y="-179" type="curve" smooth="yes"/>
      <point x="253" y="-179"/>
      <point x="146" y="-117"/>
      <point x="85" y="48" type="curve"/>
      <point x="50" y="48" type="line"/>
      <point x="77" y="-141" type="line"/>
      <point x="123" y="-193"/>
      <point x="235" y="-215"/>
      <point x="332" y="-215" type="curve" smooth="yes"/>
      <point x="460" y="-215"/>
      <point x="589" y="-160"/>
      <point x="589" y="-43" type="curve" smooth="yes"/>
      <point x="589" y="40"/>
      <point x="508" y="83"/>
      <point x="423" y="121" type="curve"/>
      <point x="522" y="146"/>
      <point x="606" y="194"/>
      <point x="606" y="305" type="curve" smooth="yes"/>
      <point x="606" y="481"/>
      <point x="256" y="475"/>
      <point x="256" y="627" type="curve" smooth="yes"/>
      <point x="256" y="655"/>
      <point x="277" y="680"/>
      <point x="315" y="680" type="curve" smooth="yes"/>
      <point x="390" y="680"/>
      <point x="459" y="608"/>
      <point x="503" y="496" type="curve"/>
      <point x="538" y="496" type="line"/>
      <point x="508" y="672" type="line"/>
      <point x="446" y="701"/>
      <point x="360" y="715"/>
      <point x="296" y="715" type="curve" smooth="yes"/>
      <point x="174" y="715"/>
      <point x="56" y="671"/>
    </contour>
    <contour>
      <point x="229" y="279" type="curve" smooth="yes"/>
      <point x="229" y="308"/>
      <point x="240" y="332"/>
      <point x="259" y="345" type="curve"/>
      <point x="376" y="291"/>
      <point x="409" y="264"/>
      <point x="409" y="224" type="curve" smooth="yes"/>
      <point x="409" y="195"/>
      <point x="391" y="174"/>
      <point x="350" y="153" type="curve"/>
      <point x="260" y="196"/>
      <point x="229" y="228"/>
    </contour>
  </outline>
</glyph>
<glyph name="copyright" format="2">
  <advance width="789"/>
  <unicode hex="00A9"/>
  <outline>
    <contour>
      <point x="395" y="-13" type="curve" smooth="yes"/>
      <point x="596" y="-13"/>
      <point x="759" y="150"/>
      <point x="759" y="352" type="curve" smooth="yes"/>
      <point x="759" y="553"/>
      <point x="596" y="716"/>
      <point x="395" y="716" type="curve" smooth="yes"/>
      <point x="193" y="716"/>
      <point x="30" y="553"/>
      <point x="30" y="352" type="curve" smooth="yes"/>
      <point x="30" y="150"/>
      <point x="193" y="-13"/>
    </contour>
    <contour>
      <point x="395" y="25" type="curve" smooth="yes"/>
      <point x="214" y="25"/>
      <point x="70" y="171"/>
      <point x="70" y="352" type="curve" smooth="yes"/>
      <point x="70" y="532"/>
      <point x="214" y="678"/>
      <point x="395" y="678" type="curve" smooth="yes"/>
      <point x="575" y="678"/>
      <point x="719" y="532"/>
      <point x="719" y="352" type="curve" smooth="yes"/>
      <point x="719" y="171"/>
      <point x="575" y="25"/>
    </contour>
    <contour>
      <point x="409" y="111" type="curve" smooth="yes"/>
      <point x="483" y="111"/>
      <point x="559" y="130"/>
      <point x="605" y="211" type="curve"/>
      <point x="579" y="230" type="line"/>
      <point x="555" y="192"/>
      <point x="516" y="171"/>
      <point x="478" y="171" type="curve" smooth="yes"/>
      <point x="400" y="171"/>
      <point x="356" y="274"/>
      <point x="356" y="380" type="curve" smooth="yes"/>
      <point x="356" y="467"/>
      <point x="384" y="562"/>
      <point x="446" y="562" type="curve" smooth="yes"/>
      <point x="502" y="562"/>
      <point x="556" y="479"/>
      <point x="575" y="391" type="curve"/>
      <point x="606" y="391" type="line"/>
      <point x="579" y="551" type="line"/>
      <point x="533" y="580"/>
      <point x="480" y="593"/>
      <point x="428" y="593" type="curve" smooth="yes"/>
      <point x="290" y="593"/>
      <point x="156" y="497"/>
      <point x="156" y="348" type="curve" smooth="yes"/>
      <point x="156" y="198"/>
      <point x="263" y="111"/>
    </contour>
  </outline>
</glyph>
<glyph name="guillemetleft" format="2">
  <advance width="450"/>
  <unicode hex="00AB"/>
  <outline>
    <contour>
      <point x="211" y="447" type="line"/>
      <point x="7" y="262" type="line"/>
      <point x="211" y="77" type="line"/>
      <point x="242" y="100" type="line"/>
      <point x="112" y="262" type="line"/>
      <point x="242" y="424" type="line"/>
    </contour>
    <contour>
      <point x="391" y="407" type="line"/>
      <point x="197" y="262" type="line"/>
      <point x="391" y="117" type="line"/>
      <point x="422" y="140" type="line"/>
      <point x="302" y="262" type="line"/>
      <point x="422" y="384" type="line"/>
    </contour>
  </outline>
</glyph>
<glyph name="registered" format="2">
  <advance width="829"/>
  <unicode hex="00AE"/>
  <outline>
    <contour>
      <point x="415" y="-13" type="curve" smooth="yes"/>
      <point x="616" y="-13"/>
      <point x="789" y="150"/>
      <point x="789" y="352" type="curve" smooth="yes"/>
      <point x="789" y="553"/>
      <point x="616" y="716"/>
      <point x="415" y="716" type="curve" smooth="yes"/>
      <point x="213" y="716"/>
      <point x="42" y="553"/>
      <point x="42" y="352" type="curve" smooth="yes"/>
      <point x="42" y="150"/>
      <point x="213" y="-13"/>
    </contour>
    <contour>
      <point x="415" y="25" type="curve" smooth="yes"/>
      <point x="234" y="25"/>
      <point x="82" y="171"/>
      <point x="82" y="352" type="curve" smooth="yes"/>
      <point x="82" y="532"/>
      <point x="234" y="678"/>
      <point x="415" y="678" type="curve" smooth="yes"/>
      <point x="595" y="678"/>
      <point x="749" y="532"/>
      <point x="749" y="352" type="curve" smooth="yes"/>
      <point x="749" y="171"/>
      <point x="595" y="25"/>
    </contour>
    <contour>
      <point x="601" y="214" type="curve" smooth="yes"/>
      <point x="576" y="307"/>
      <point x="632" y="395"/>
      <point x="513" y="425" type="curve"/>
      <point x="556" y="425"/>
      <point x="604" y="459"/>
      <point x="604" y="505" type="curve" smooth="yes"/>
      <point x="604" y="552"/>
      <point x="563" y="598"/>
      <point x="482" y="598" type="curve" smooth="yes"/>
      <point x="208" y="598" type="line"/>
      <point x="208" y="585" type="line"/>
      <point x="219" y="584"/>
      <point x="242" y="581"/>
      <point x="242" y="542" type="curve" smooth="yes"/>
      <point x="242" y="187" type="line" smooth="yes"/>
      <point x="242" y="149"/>
      <point x="219" y="145"/>
      <point x="202" y="145" type="curve"/>
      <point x="202" y="131" type="line"/>
      <point x="429" y="131" type="line"/>
      <point x="429" y="145" type="line"/>
      <point x="412" y="145"/>
      <point x="389" y="149"/>
      <point x="389" y="187" type="curve" smooth="yes"/>
      <point x="389" y="410" type="line"/>
      <point x="410" y="410" type="line" smooth="yes"/>
      <point x="476" y="410"/>
      <point x="426" y="277"/>
      <point x="456" y="198" type="curve" smooth="yes"/>
      <point x="479" y="137"/>
      <point x="536" y="129"/>
      <point x="615" y="129" type="curve" smooth="yes"/>
      <point x="649" y="129" type="line"/>
      <point x="649" y="143" type="line"/>
      <point x="635" y="143"/>
      <point x="613" y="170"/>
    </contour>
    <contour>
      <point x="402" y="438" type="curve" smooth="yes"/>
      <point x="389" y="438" type="line"/>
      <point x="389" y="570" type="line"/>
      <point x="402" y="570" type="line" smooth="yes"/>
      <point x="436" y="570"/>
      <point x="453" y="541"/>
      <point x="453" y="507" type="curve" smooth="yes"/>
      <point x="453" y="473"/>
      <point x="436" y="438"/>
    </contour>
  </outline>
</glyph>
<glyph name="degree" format="2">
  <advance width="252"/>
  <unicode hex="00B0"/>
  <outline>
    <contour>
      <point x="127" y="542" type="curve" smooth="yes"/>
      <point x="183" y="542"/>
      <point x="229" y="588"/>
      <point x="229" y="644" type="curve" smooth="yes"/>
      <point x="229" y="700"/>
      <point x="183" y="746"/>
      <point x="127" y="746" type="curve" smooth="yes"/>
      <point x="71" y="746"/>
      <point x="25" y="700"/>
      <point x="25" y="644" type="curve" smooth="yes"/>
      <point x="25" y="588"/>
      <point x="71" y="542"/>
    </contour>
    <contour>
      <point x="127" y="577" type="curve" smooth="yes"/>
      <point x="90" y="577"/>
      <point x="62" y="607"/>
      <point x="62" y="644" type="curve" smooth="yes"/>
      <point x="62" y="681"/>
      <point x="90" y="711"/>
      <point x="127" y="711" type="curve" smooth="yes"/>
      <point x="164" y="711"/>
      <point x="192" y="681"/>
      <point x="192" y="644" type="curve" smooth="yes"/>
      <point x="192" y="607"/>
      <point x="164" y="577"/>
    </contour>
  </outline>
</glyph>
<glyph name="plusminus" format="2">
  <advance width="633"/>
  <unicode hex="00B1"/>
  <outline>
    <contour>
      <point x="80" y="306" type="line"/>
      <point x="80" y="266" type="line"/>
      <point x="553" y="266" type="line"/>
      <point x="553" y="306" type="line"/>
    </contour>
    <contour>
      <point x="299" y="80" type="line"/>
      <point x="334" y="80" type="line"/>
      <point x="334" y="492" type="line"/>
      <point x="299" y="492" type="line"/>
    </contour>
    <contour>
      <point x="80" y="40" type="line"/>
      <point x="80" y="0" type="line"/>
      <point x="553" y="0" type="line"/>
      <point x="553" y="40" type="line"/>
    </contour>
  </outline>
</glyph>
<glyph name="paragraph" format="2">
  <advance width="600"/>
  <unicode hex="00B6"/>
  <outline>
    <contour>
      <point x="459" y="700" type="line"/>
      <point x="459" y="-105" type="line"/>
      <point x="497" y="-105" type="line"/>
      <point x="497" y="700" type="line"/>
    </contour>
    <contour>
      <point x="329" y="700" type="line"/>
      <point x="329" y="-105" type="line"/>
      <point x="367" y="-105" type="line"/>
      <point x="367" y="700" type="line"/>
    </contour>
    <contour>
      <point x="276" y="662" type="line"/>
      <point x="461" y="662" type="line"/>
      <point x="461" y="700" type="line"/>
      <point x="276" y="700" type="line"/>
    </contour>
    <contour>
      <point x="339" y="336" type="curve"/>
      <point x="339" y="700" type="line"/>
      <point x="339" y="700"/>
      <point x="279" y="700"/>
      <point x="278" y="700" type="curve" smooth="yes"/>
      <point x="168" y="700"/>
      <point x="81" y="637"/>
      <point x="81" y="520" type="curve" smooth="yes"/>
      <point x="81" y="401"/>
      <point x="168" y="336"/>
      <point x="278" y="336" type="curve" smooth="yes"/>
      <point x="279" y="336"/>
      <point x="339" y="336"/>
    </contour>
    <contour>
      <point x="497" y="616" type="line"/>
      <point x="497" y="674"/>
      <point x="532" y="679"/>
      <point x="557" y="680" type="curve"/>
      <point x="557" y="700" type="line"/>
      <point x="497" y="700" type="line"/>
    </contour>
  </outline>
</glyph>
<glyph name="guillemetright" format="2">
  <advance width="450"/>
  <unicode hex="00BB"/>
  <outline>
    <contour>
      <point x="238" y="447" type="line"/>
      <point x="207" y="424" type="line"/>
      <point x="337" y="262" type="line"/>
      <point x="207" y="100" type="line"/>
      <point x="238" y="77" type="line"/>
      <point x="442" y="262" type="line"/>
    </contour>
    <contour>
      <point x="58" y="407" type="line"/>
      <point x="27" y="384" type="line"/>
      <point x="147" y="262" type="line"/>
      <point x="27" y="140" type="line"/>
      <point x="58" y="117" type="line"/>
      <point x="252" y="262" type="line"/>
    </contour>
  </outline>
</glyph>
<glyph name="onequarter" format="2">
  <advance width="762"/>
  <unicode hex="00BC"/>
  <outline>
    <contour>
      <point x="220" y="393" type="curve" smooth="yes"/>
      <point x="220" y="700" type="line"/>
      <point x="98" y="700" type="line"/>
      <point x="89" y="622"/>
      <point x="29" y="606"/>
      <point x="3" y="606" type="curve"/>
      <point x="3" y="585" type="line"/>
      <point x="26" y="582"/>
      <point x="52" y="587"/>
      <point x="77" y="601" type="curve"/>
      <point x="77" y="393" type="line" smooth="yes"/>
      <point x="77" y="362"/>
      <point x="51" y="362"/>
      <point x="49" y="362" type="curve"/>
      <point x="49" y="350" type="line"/>
      <point x="248" y="350" type="line"/>
      <point x="248" y="362" type="line"/>
      <point x="244" y="362"/>
      <point x="220" y="362"/>
    </contour>
    <contour>
      <point x="690" y="43" type="curve" smooth="yes"/>
      <point x="691" y="135" type="line"/>
      <point x="735" y="135" type="line"/>
      <point x="735" y="256" type="line"/>
      <point x="723" y="256" type="line"/>
      <point x="723" y="235"/>
      <point x="664" y="230"/>
      <point x="688" y="230" type="curve" smooth="yes"/>
      <point x="691" y="230" type="line"/>
      <point x="691" y="350" type="line"/>
      <point x="548" y="350" type="line"/>
      <point x="471" y="230" type="line"/>
      <point x="471" y="135" type="line"/>
      <point x="548" y="135" type="line"/>
      <point x="548" y="43" type="line" smooth="yes"/>
      <point x="548" y="12"/>
      <point x="530" y="12"/>
      <point x="527" y="12" type="curve"/>
      <point x="527" y="0" type="line"/>
      <point x="711" y="0" type="line"/>
      <point x="711" y="12" type="line"/>
      <point x="707" y="12"/>
      <point x="690" y="12"/>
    </contour>
    <contour>
      <point x="497" y="230" type="line"/>
      <point x="548" y="312" type="line"/>
      <point x="548" y="230" type="line"/>
    </contour>
    <component base="fraction" xOffset="134"/>
  </outline>
</glyph>
<glyph name="onehalf" format="2">
  <advance width="785"/>
  <unicode hex="00BD"/>
  <outline>
    <contour>
      <point x="214" y="393" type="curve" smooth="yes"/>
      <point x="214" y="700" type="line"/>
      <point x="98" y="700" type="line"/>
      <point x="89" y="626"/>
      <point x="33" y="607"/>
      <point x="3" y="607" type="curve"/>
      <point x="3" y="587" type="line"/>
      <point x="24" y="584"/>
      <point x="49" y="587"/>
      <point x="77" y="603" type="curve"/>
      <point x="77" y="393" type="line" smooth="yes"/>
      <point x="77" y="362"/>
      <point x="51" y="362"/>
      <point x="48" y="362" type="curve"/>
      <point x="48" y="350" type="line"/>
      <point x="243" y="350" type="line"/>
      <point x="243" y="362" type="line"/>
      <point x="238" y="362"/>
      <point x="214" y="362"/>
    </contour>
    <contour>
      <point x="684" y="-16" type="curve" smooth="yes"/>
      <point x="736" y="-16"/>
      <point x="744" y="32"/>
      <point x="744" y="135" type="curve"/>
      <point x="724" y="135" type="line"/>
      <point x="724" y="103"/>
      <point x="717" y="93"/>
      <point x="698" y="93" type="curve" smooth="yes"/>
      <point x="658" y="93"/>
      <point x="634" y="122"/>
      <point x="582" y="123" type="curve"/>
      <point x="591" y="129"/>
      <point x="738" y="173"/>
      <point x="738" y="272" type="curve" smooth="yes"/>
      <point x="738" y="324"/>
      <point x="669" y="350"/>
      <point x="604" y="350" type="curve" smooth="yes"/>
      <point x="570" y="350"/>
      <point x="534" y="342"/>
      <point x="508" y="327" type="curve"/>
      <point x="498" y="244" type="line"/>
      <point x="524" y="244" type="line"/>
      <point x="535" y="303"/>
      <point x="574" y="331"/>
      <point x="599" y="331" type="curve" smooth="yes"/>
      <point x="617" y="331"/>
      <point x="622" y="312"/>
      <point x="622" y="268" type="curve" smooth="yes"/>
      <point x="622" y="189"/>
      <point x="554" y="134"/>
      <point x="518" y="68" type="curve" smooth="yes"/>
      <point x="503" y="41"/>
      <point x="491" y="16"/>
      <point x="486" y="-8" type="curve"/>
      <point x="506" y="-8" type="line"/>
      <point x="505" y="-5"/>
      <point x="508" y="4"/>
      <point x="510" y="8" type="curve" smooth="yes"/>
      <point x="514" y="17"/>
      <point x="520" y="24"/>
      <point x="533" y="24" type="curve" smooth="yes"/>
      <point x="598" y="24"/>
      <point x="615" y="-16"/>
    </contour>
    <component base="fraction" xOffset="134"/>
  </outline>
</glyph>
<glyph name="threequarters" format="2">
  <advance width="706"/>
  <unicode hex="00BE"/>
  <outline>
    <contour>
      <point x="128" y="349" type="curve" smooth="yes"/>
      <point x="209" y="349"/>
      <point x="270" y="389"/>
      <point x="270" y="460" type="curve" smooth="yes"/>
      <point x="270" y="527"/>
      <point x="224" y="554"/>
      <point x="169" y="561" type="curve"/>
      <point x="211" y="562"/>
      <point x="266" y="583"/>
      <point x="266" y="640" type="curve" smooth="yes"/>
      <point x="266" y="693"/>
      <point x="199" y="718"/>
      <point x="142" y="718" type="curve" smooth="yes"/>
      <point x="106" y="718"/>
      <point x="70" y="708"/>
      <point x="51" y="694" type="curve"/>
      <point x="39" y="611" type="line"/>
      <point x="64" y="611" type="line"/>
      <point x="80" y="659"/>
      <point x="106" y="697"/>
      <point x="121" y="697" type="curve" smooth="yes"/>
      <point x="141" y="697"/>
      <point x="144" y="679"/>
      <point x="144" y="642" type="curve" smooth="yes"/>
      <point x="144" y="599"/>
      <point x="122" y="569"/>
      <point x="87" y="569" type="curve" smooth="yes"/>
      <point x="59" y="569" type="line"/>
      <point x="54" y="550" type="line"/>
      <point x="84" y="550" type="line" smooth="yes"/>
      <point x="141" y="550"/>
      <point x="147" y="497"/>
      <point x="147" y="460" type="curve" smooth="yes"/>
      <point x="147" y="401"/>
      <point x="132" y="371"/>
      <point x="106" y="371" type="curve" smooth="yes"/>
      <point x="88" y="371"/>
      <point x="69" y="399"/>
      <point x="47" y="445" type="curve"/>
      <point x="20" y="445" type="line"/>
      <point x="33" y="371" type="line"/>
      <point x="62" y="357"/>
      <point x="94" y="349"/>
    </contour>
    <contour>
      <point x="633" y="43" type="curve" smooth="yes"/>
      <point x="633" y="136" type="line"/>
      <point x="679" y="136" type="line"/>
      <point x="679" y="253" type="line"/>
      <point x="667" y="253" type="line"/>
      <point x="667" y="232"/>
      <point x="610" y="227"/>
      <point x="633" y="227" type="curve" smooth="yes"/>
      <point x="634" y="227" type="line"/>
      <point x="634" y="350" type="line"/>
      <point x="497" y="350" type="line"/>
      <point x="419" y="227" type="line"/>
      <point x="419" y="136" type="line"/>
      <point x="497" y="136" type="line"/>
      <point x="497" y="43" type="line" smooth="yes"/>
      <point x="497" y="12"/>
      <point x="479" y="12"/>
      <point x="475" y="12" type="curve"/>
      <point x="475" y="0" type="line"/>
      <point x="657" y="0" type="line"/>
      <point x="657" y="12" type="line"/>
      <point x="651" y="12"/>
      <point x="633" y="12"/>
    </contour>
    <contour>
      <point x="443" y="227" type="line"/>
      <point x="497" y="313" type="line"/>
      <point x="497" y="227" type="line"/>
    </contour>
    <component base="fraction" xOffset="112"/>
  </outline>
</glyph>
<glyph name="AE" format="2">
  <advance width="984"/>
  <unicode hex="00C6"/>
  <anchor x="492" y="0" name="bottom"/>
  <anchor x="492" y="700" name="top"/>
  <outline>
    <contour>
      <point x="380" y="0" type="line"/>
      <point x="922" y="0" type="line"/>
      <point x="922" y="245" type="line"/>
      <point x="902" y="245" type="line"/>
      <point x="895" y="156"/>
      <point x="872" y="25"/>
      <point x="709" y="25" type="curve" smooth="yes"/>
      <point x="660" y="25" type="line"/>
      <point x="660" y="675" type="line"/>
      <point x="709" y="675" type="line" smooth="yes"/>
      <point x="872" y="675"/>
      <point x="895" y="544"/>
      <point x="902" y="455" type="curve"/>
      <point x="922" y="455" type="line"/>
      <point x="922" y="700" type="line"/>
      <point x="380" y="700" type="line"/>
      <point x="380" y="680" type="line"/>
      <point x="405" y="679"/>
      <point x="440" y="674"/>
      <point x="440" y="616" type="curve" smooth="yes"/>
      <point x="440" y="84" type="line" smooth="yes"/>
      <point x="440" y="26"/>
      <point x="405" y="21"/>
      <point x="380" y="20" type="curve"/>
    </contour>
    <contour>
      <point x="-1" y="0" type="line"/>
      <point x="160" y="0" type="line"/>
      <point x="160" y="20" type="line"/>
      <point x="136" y="22"/>
      <point x="101" y="31"/>
      <point x="127" y="75" type="curve" smooth="yes"/>
      <point x="445" y="599" type="line"/>
      <point x="445" y="667" type="line"/>
      <point x="85" y="73" type="line" smooth="yes"/>
      <point x="57" y="26"/>
      <point x="23" y="22"/>
      <point x="-1" y="20" type="curve"/>
    </contour>
    <contour>
      <point x="841" y="196" type="curve"/>
      <point x="859" y="199" type="line"/>
      <point x="754" y="509" type="line"/>
      <point x="736" y="506" type="line"/>
      <point x="748" y="430"/>
      <point x="729" y="389"/>
      <point x="669" y="389" type="curve" smooth="yes"/>
      <point x="299" y="389" type="line"/>
      <point x="286" y="354" type="line"/>
      <point x="669" y="354" type="line" smooth="yes"/>
      <point x="720" y="354"/>
      <point x="796" y="294"/>
    </contour>
  </outline>
</glyph>
<glyph name="Eth" format="2">
  <advance width="714"/>
  <unicode hex="00D0"/>
  <outline>
    <contour>
      <point x="30" y="368" type="line"/>
      <point x="30" y="332" type="line"/>
      <point x="372" y="332" type="line"/>
      <point x="372" y="368" type="line"/>
    </contour>
    <component base="D"/>
  </outline>
</glyph>
<glyph name="multiply" format="2">
  <advance width="655"/>
  <unicode hex="00D7"/>
  <outline>
    <contour>
      <point x="128" y="489" type="line"/>
      <point x="98" y="462" type="line"/>
      <point x="545" y="14" type="line"/>
      <point x="575" y="41" type="line"/>
    </contour>
    <contour>
      <point x="87" y="38" type="line"/>
      <point x="114" y="15" type="line"/>
      <point x="563" y="466" type="line"/>
      <point x="536" y="489" type="line"/>
    </contour>
  </outline>
</glyph>
<glyph name="Oslash" format="2">
  <advance width="647"/>
  <unicode hex="00D8"/>
  <anchor x="324" y="0" name="bottom"/>
  <anchor x="324" y="700" name="top"/>
  <outline>
    <contour>
      <point x="541" y="766" type="line"/>
      <point x="125" y="-58" type="line"/>
      <point x="166" y="-58" type="line"/>
      <point x="580" y="764" type="line"/>
    </contour>
    <component base="O"/>
  </outline>
</glyph>
<glyph name="Thorn" format="2">
  <advance width="755"/>
  <unicode hex="00DE"/>
  <anchor x="378" y="0" name="bottom"/>
  <anchor x="378" y="700" name="top"/>
  <outline>
    <contour>
      <point x="305" y="84" type="curve" smooth="yes"/>
      <point x="305" y="616" type="line" smooth="yes"/>
      <point x="305" y="674"/>
      <point x="340" y="679"/>
      <point x="365" y="680" type="curve"/>
      <point x="365" y="700" type="line"/>
      <point x="25" y="700" type="line"/>
      <point x="25" y="680" type="line"/>
      <point x="50" y="679"/>
      <point x="85" y="674"/>
      <point x="85" y="616" type="curve" smooth="yes"/>
      <point x="85" y="84" type="line" smooth="yes"/>
      <point x="85" y="26"/>
      <point x="50" y="21"/>
      <point x="25" y="20" type="curve"/>
      <point x="25" y="0" type="line"/>
      <point x="365" y="0" type="line"/>
      <point x="365" y="20" type="line"/>
      <point x="340" y="21"/>
      <point x="305" y="26"/>
    </contour>
    <contour>
      <point x="248" y="134" type="line"/>
      <point x="401" y="134" type="line" smooth="yes"/>
      <point x="614" y="134"/>
      <point x="720" y="244"/>
      <point x="720" y="354" type="curve" smooth="yes"/>
      <point x="720" y="464"/>
      <point x="614" y="574"/>
      <point x="401" y="574" type="curve" smooth="yes"/>
      <point x="248" y="574" type="line"/>
      <point x="248" y="539" type="line"/>
      <point x="318" y="539" type="line" smooth="yes"/>
      <point x="436" y="539"/>
      <point x="495" y="446"/>
      <point x="495" y="354" type="curve" smooth="yes"/>
      <point x="495" y="261"/>
      <point x="436" y="169"/>
      <point x="318" y="169" type="curve" smooth="yes"/>
      <point x="248" y="169" type="line"/>
    </contour>
  </outline>
</glyph>
<glyph name="germandbls" format="2">
  <advance width="810"/>
  <unicode hex="00DF"/>
  <outline>
    <contour>
      <point x="15" y="0" type="line"/>
      <point x="295" y="0" type="line"/>
      <point x="295" y="500" type="line"/>
      <point x="236" y="500"/>
      <point x="189" y="542"/>
      <point x="189" y="595" type="curve" smooth="yes"/>
      <point x="189" y="649"/>
      <point x="237" y="679"/>
      <point x="305" y="679" type="curve" smooth="yes"/>
      <point x="391" y="679"/>
      <point x="442" y="634"/>
      <point x="442" y="558" type="curve" smooth="yes"/>
      <point x="442" y="460"/>
      <point x="358" y="467"/>
      <point x="358" y="358" type="curve" smooth="yes"/>
      <point x="358" y="283"/>
      <point x="394" y="226"/>
      <point x="462" y="191" type="curve" smooth="yes"/>
      <point x="546" y="148"/>
      <point x="590" y="125"/>
      <point x="590" y="76" type="curve" smooth="yes"/>
      <point x="590" y="42"/>
      <point x="569" y="21"/>
      <point x="547" y="21" type="curve" smooth="yes"/>
      <point x="481" y="21"/>
      <point x="414" y="83"/>
      <point x="353" y="248" type="curve"/>
      <point x="318" y="248" type="line"/>
      <point x="345" y="59" type="line"/>
      <point x="391" y="7"/>
      <point x="463" y="-15"/>
      <point x="560" y="-15" type="curve" smooth="yes"/>
      <point x="703" y="-15"/>
      <point x="790" y="44"/>
      <point x="790" y="146" type="curve" smooth="yes"/>
      <point x="790" y="240"/>
      <point x="708" y="282"/>
      <point x="636" y="314" type="curve" smooth="yes"/>
      <point x="540" y="357"/>
      <point x="432" y="387"/>
      <point x="432" y="436" type="curve" smooth="yes"/>
      <point x="432" y="505"/>
      <point x="633" y="453"/>
      <point x="633" y="568" type="curve" smooth="yes"/>
      <point x="633" y="657"/>
      <point x="494" y="716"/>
      <point x="315" y="716" type="curve" smooth="yes"/>
      <point x="172" y="716"/>
      <point x="75" y="651"/>
      <point x="75" y="547" type="curve" smooth="yes"/>
      <point x="75" y="500" type="line"/>
      <point x="19" y="500" type="line"/>
      <point x="19" y="465" type="line"/>
      <point x="75" y="465" type="line"/>
      <point x="75" y="84" type="line" smooth="yes"/>
      <point x="75" y="26"/>
      <point x="40" y="21"/>
      <point x="15" y="20" type="curve"/>
    </contour>
  </outline>
</glyph>
<glyph name="ae" format="2">
  <advance width="892"/>
  <unicode hex="00E6"/>
  <guideline x="827" y="290" angle="0"/>
  <anchor x="446" y="0" name="bottom"/>
  <anchor x="446" y="500" name="top"/>
  <outline>
    <contour>
      <point x="215" y="-15" type="curve" smooth="yes"/>
      <point x="284" y="-15"/>
      <point x="353" y="-6"/>
      <point x="421" y="69" type="curve"/>
      <point x="469" y="17"/>
      <point x="537" y="-15"/>
      <point x="618" y="-15" type="curve" smooth="yes"/>
      <point x="780" y="-15"/>
      <point x="845" y="59"/>
      <point x="869" y="141" type="curve"/>
      <point x="839" y="159" type="line"/>
      <point x="812" y="92"/>
      <point x="759" y="56"/>
      <point x="715" y="56" type="curve" smooth="yes"/>
      <point x="653" y="56"/>
      <point x="576" y="117"/>
      <point x="576" y="246" type="curve" smooth="yes"/>
      <point x="576" y="261"/>
      <point x="576" y="275"/>
      <point x="576" y="290" type="curve"/>
      <point x="871" y="290" type="line"/>
      <point x="871" y="426"/>
      <point x="752" y="515"/>
      <point x="619" y="515" type="curve" smooth="yes"/>
      <point x="567" y="515"/>
      <point x="479" y="500"/>
      <point x="446" y="451" type="curve"/>
      <point x="427" y="479"/>
      <point x="378" y="513"/>
      <point x="295" y="513" type="curve" smooth="yes"/>
      <point x="240" y="513"/>
      <point x="146" y="498"/>
      <point x="78" y="469" type="curve"/>
      <point x="48" y="293" type="line"/>
      <point x="83" y="293" type="line"/>
      <point x="134" y="432"/>
      <point x="233" y="477"/>
      <point x="287" y="477" type="curve" smooth="yes"/>
      <point x="339" y="477"/>
      <point x="351" y="460"/>
      <point x="351" y="325" type="curve"/>
      <point x="115" y="325"/>
      <point x="35" y="240"/>
      <point x="35" y="131" type="curve" smooth="yes"/>
      <point x="35" y="23"/>
      <point x="135" y="-15"/>
    </contour>
    <contour>
      <point x="307" y="39" type="curve" smooth="yes"/>
      <point x="292" y="39"/>
      <point x="270" y="59"/>
      <point x="270" y="137" type="curve" smooth="yes"/>
      <point x="270" y="218"/>
      <point x="288" y="290"/>
      <point x="349" y="290" type="curve"/>
      <point x="351" y="270"/>
      <point x="351" y="247"/>
      <point x="351" y="221" type="curve" smooth="yes"/>
      <point x="351" y="184" type="line" smooth="yes"/>
      <point x="351" y="77"/>
      <point x="325" y="39"/>
    </contour>
    <contour>
      <point x="577" y="325" type="line"/>
      <point x="580" y="444"/>
      <point x="592" y="485"/>
      <point x="618" y="485" type="curve" smooth="yes"/>
      <point x="643" y="485"/>
      <point x="663" y="446"/>
      <point x="669" y="325" type="curve"/>
    </contour>
  </outline>
</glyph>
<glyph name="eth" format="2">
  <advance width="597"/>
  <unicode hex="00F0"/>
  <anchor x="300" y="0" name="bottom"/>
  <anchor x="300" y="800" name="top"/>
  <outline>
    <contour>
      <point x="41" y="254" type="curve" smooth="yes"/>
      <point x="41" y="69"/>
      <point x="170" y="-15"/>
      <point x="297" y="-15" type="curve" smooth="yes"/>
      <point x="439" y="-15"/>
      <point x="559" y="94"/>
      <point x="559" y="305" type="curve" smooth="yes"/>
      <point x="559" y="579"/>
      <point x="464" y="667"/>
      <point x="346" y="717" type="curve" smooth="yes"/>
      <point x="265" y="752"/>
      <point x="196" y="750"/>
      <point x="126" y="742" type="curve"/>
      <point x="49" y="644" type="line"/>
      <point x="84" y="624" type="line"/>
      <point x="140" y="689"/>
      <point x="225" y="699"/>
      <point x="277" y="678" type="curve" smooth="yes"/>
      <point x="314" y="663"/>
      <point x="357" y="621"/>
      <point x="365" y="523" type="curve"/>
      <point x="391" y="521"/>
      <point x="346" y="535"/>
      <point x="294" y="535" type="curve" smooth="yes"/>
      <point x="159" y="535"/>
      <point x="41" y="443"/>
    </contour>
    <contour>
      <point x="363" y="274" type="curve" smooth="yes"/>
      <point x="363" y="92"/>
      <point x="345" y="20"/>
      <point x="298" y="20" type="curve" smooth="yes"/>
      <point x="252" y="20"/>
      <point x="236" y="85"/>
      <point x="236" y="254" type="curve" smooth="yes"/>
      <point x="236" y="419"/>
      <point x="254" y="500"/>
      <point x="301" y="500" type="curve" smooth="yes"/>
      <point x="347" y="500"/>
      <point x="363" y="426"/>
    </contour>
    <contour>
      <point x="138" y="571" type="line"/>
      <point x="155" y="540" type="line"/>
      <point x="496" y="715" type="line"/>
      <point x="480" y="745" type="line"/>
    </contour>
  </outline>
</glyph>
<glyph name="divide" format="2">
  <advance width="600"/>
  <unicode hex="00F7"/>
  <outline>
    <contour>
      <point x="90" y="276" type="line"/>
      <point x="90" y="236" type="line"/>
      <point x="564" y="236" type="line"/>
      <point x="564" y="276" type="line"/>
    </contour>
    <contour>
      <point x="327" y="390" type="curve" smooth="yes"/>
      <point x="358" y="390"/>
      <point x="382" y="414"/>
      <point x="382" y="446" type="curve" smooth="yes"/>
      <point x="382" y="477"/>
      <point x="358" y="501"/>
      <point x="327" y="501" type="curve" smooth="yes"/>
      <point x="295" y="501"/>
      <point x="271" y="477"/>
      <point x="271" y="446" type="curve" smooth="yes"/>
      <point x="271" y="414"/>
      <point x="295" y="390"/>
    </contour>
    <contour>
      <point x="327" y="11" type="curve" smooth="yes"/>
      <point x="358" y="11"/>
      <point x="382" y="35"/>
      <point x="382" y="67" type="curve" smooth="yes"/>
      <point x="382" y="98"/>
      <point x="358" y="122"/>
      <point x="327" y="122" type="curve" smooth="yes"/>
      <point x="295" y="122"/>
      <point x="271" y="98"/>
      <point x="271" y="67" type="curve" smooth="yes"/>
      <point x="271" y="35"/>
      <point x="295" y="11"/>
    </contour>
  </outline>
</glyph>
<glyph name="oslash" format="2">
  <advance width="623"/>
  <unicode hex="00F8"/>
  <anchor x="312" y="500" name="top"/>
  <outline>
    <contour>
      <point x="440" y="563" type="line"/>
      <point x="128" y="-56" type="line"/>
      <point x="169" y="-56" type="line"/>
      <point x="479" y="561" type="line"/>
    </contour>
    <component base="o"/>
  </outline>
</glyph>
<glyph name="thorn" format="2">
  <advance width="653"/>
  <unicode hex="00FE"/>
  <anchor x="327" y="0" name="bottom"/>
  <anchor x="327" y="500" name="top"/>
  <outline>
    <contour>
      <point x="14" y="-200" type="line"/>
      <point x="334" y="-200" type="line"/>
      <point x="334" y="-180" type="line"/>
      <point x="309" y="-178"/>
      <point x="294" y="-174"/>
      <point x="294" y="-116" type="curve" smooth="yes"/>
      <point x="294" y="72" type="line"/>
      <point x="329" y="18"/>
      <point x="379" y="-15"/>
      <point x="436" y="-15" type="curve" smooth="yes"/>
      <point x="557" y="-15"/>
      <point x="628" y="100"/>
      <point x="628" y="246" type="curve" smooth="yes"/>
      <point x="628" y="392"/>
      <point x="558" y="515"/>
      <point x="436" y="515" type="curve" smooth="yes"/>
      <point x="379" y="515"/>
      <point x="329" y="482"/>
      <point x="294" y="428" type="curve"/>
      <point x="294" y="700" type="line"/>
      <point x="14" y="700" type="line"/>
      <point x="14" y="680" type="line"/>
      <point x="40" y="679"/>
      <point x="74" y="674"/>
      <point x="74" y="616" type="curve" smooth="yes"/>
      <point x="74" y="-116" type="line" smooth="yes"/>
      <point x="74" y="-174"/>
      <point x="39" y="-178"/>
      <point x="14" y="-180" type="curve"/>
    </contour>
    <contour>
      <point x="294" y="246" type="curve" smooth="yes"/>
      <point x="294" y="369"/>
      <point x="328" y="436"/>
      <point x="350" y="436" type="curve" smooth="yes"/>
      <point x="372" y="436"/>
      <point x="403" y="377"/>
      <point x="403" y="246" type="curve" smooth="yes"/>
      <point x="403" y="127"/>
      <point x="371" y="69"/>
      <point x="349" y="69" type="curve" smooth="yes"/>
      <point x="327" y="69"/>
      <point x="294" y="130"/>
    </contour>
  </outline>
</glyph>
<glyph name="dcroat" format="2">
  <advance width="647"/>
  <unicode hex="0111"/>
  <outline>
    <contour>
      <point x="230" y="600" type="line"/>
      <point x="230" y="564" type="line"/>
      <point x="642" y="564" type="line"/>
      <point x="642" y="600" type="line"/>
    </contour>
    <component base="d"/>
  </outline>
</glyph>
<glyph name="idotless" format="2">
  <advance width="362"/>
  <unicode hex="0131"/>
  <anchor x="181" y="0" name="bottom"/>
  <anchor x="326" y="10" name="ogonek"/>
  <anchor x="181" y="500" name="top"/>
  <outline>
    <contour>
      <point x="14" y="0" type="line"/>
      <point x="354" y="0" type="line"/>
      <point x="354" y="20" type="line"/>
      <point x="329" y="21"/>
      <point x="294" y="26"/>
      <point x="294" y="84" type="curve" smooth="yes"/>
      <point x="294" y="500" type="line"/>
      <point x="14" y="500" type="line"/>
      <point x="14" y="480" type="line"/>
      <point x="39" y="479"/>
      <point x="74" y="474"/>
      <point x="74" y="416" type="curve" smooth="yes"/>
      <point x="74" y="84" type="line" smooth="yes"/>
      <point x="74" y="26"/>
      <point x="39" y="21"/>
      <point x="14" y="20" type="curve"/>
    </contour>
  </outline>
</glyph>
<glyph name="Lslash" format="2">
  <advance width="594"/>
  <unicode hex="0141"/>
  <outline>
    <contour>
      <point x="402" y="493" type="line"/>
      <point x="25" y="284" type="line"/>
      <point x="38" y="251" type="line"/>
      <point x="415" y="460" type="line"/>
    </contour>
    <component base="L"/>
  </outline>
</glyph>
<glyph name="lslash" format="2">
  <advance width="356"/>
  <unicode hex="0142"/>
  <outline>
    <contour>
      <point x="333" y="496" type="line"/>
      <point x="5" y="314" type="line"/>
      <point x="18" y="281" type="line"/>
      <point x="346" y="463" type="line"/>
    </contour>
    <component base="l"/>
  </outline>
</glyph>
<glyph name="OE" format="2">
  <advance width="945"/>
  <unicode hex="0152"/>
  <anchor x="473" y="0" name="bottom"/>
  <anchor x="473" y="700" name="top"/>
  <outline>
    <contour>
      <point x="670" y="675" type="line" smooth="yes"/>
      <point x="833" y="675"/>
      <point x="856" y="544"/>
      <point x="863" y="455" type="curve"/>
      <point x="883" y="455" type="line"/>
      <point x="883" y="700" type="line"/>
      <point x="323" y="700" type="line" smooth="yes"/>
      <point x="152" y="700"/>
      <point x="41" y="596"/>
      <point x="41" y="345" type="curve" smooth="yes"/>
      <point x="41" y="93"/>
      <point x="152" y="0"/>
      <point x="323" y="0" type="curve" smooth="yes"/>
      <point x="883" y="0" type="line"/>
      <point x="883" y="245" type="line"/>
      <point x="863" y="245" type="line"/>
      <point x="856" y="156"/>
      <point x="833" y="25"/>
      <point x="670" y="25" type="curve" smooth="yes"/>
      <point x="621" y="25" type="line"/>
      <point x="621" y="475" type="line"/>
      <point x="630" y="475" type="line" smooth="yes"/>
      <point x="681" y="475"/>
      <point x="757" y="405"/>
      <point x="802" y="307" type="curve"/>
      <point x="820" y="310" type="line"/>
      <point x="715" y="620" type="line"/>
      <point x="697" y="617" type="line"/>
      <point x="709" y="541"/>
      <point x="690" y="500"/>
      <point x="630" y="500" type="curve" smooth="yes"/>
      <point x="621" y="500" type="line"/>
      <point x="621" y="675" type="line"/>
    </contour>
    <contour>
      <point x="401" y="99" type="line" smooth="yes"/>
      <point x="401" y="41"/>
      <point x="367" y="35"/>
      <point x="341" y="35" type="curve" smooth="yes"/>
      <point x="323" y="35" type="line" smooth="yes"/>
      <point x="280" y="35"/>
      <point x="266" y="74"/>
      <point x="266" y="364" type="curve" smooth="yes"/>
      <point x="266" y="630"/>
      <point x="278" y="665"/>
      <point x="323" y="665" type="curve" smooth="yes"/>
      <point x="341" y="665" type="line" smooth="yes"/>
      <point x="367" y="665"/>
      <point x="401" y="659"/>
      <point x="401" y="601" type="curve" smooth="yes"/>
    </contour>
  </outline>
</glyph>
<glyph name="oe" format="2">
  <advance width="914"/>
  <unicode hex="0153"/>
  <anchor x="457" y="0" name="bottom"/>
  <anchor x="457" y="500" name="top"/>
  <outline>
    <contour>
      <point x="312" y="-15" type="curve" smooth="yes"/>
      <point x="379" y="-15"/>
      <point x="464" y="17"/>
      <point x="485" y="49" type="curve"/>
      <point x="506" y="17"/>
      <point x="582" y="-15"/>
      <point x="658" y="-15" type="curve" smooth="yes"/>
      <point x="786" y="-15"/>
      <point x="854" y="42"/>
      <point x="891" y="141" type="curve"/>
      <point x="861" y="159" type="line"/>
      <point x="832" y="89"/>
      <point x="784" y="57"/>
      <point x="737" y="57" type="curve" smooth="yes"/>
      <point x="653" y="57"/>
      <point x="598" y="127"/>
      <point x="598" y="248" type="curve" smooth="yes"/>
      <point x="598" y="261"/>
      <point x="598" y="275"/>
      <point x="598" y="290" type="curve"/>
      <point x="893" y="290" type="line"/>
      <point x="893" y="426"/>
      <point x="774" y="515"/>
      <point x="641" y="515" type="curve" smooth="yes"/>
      <point x="583" y="515"/>
      <point x="509" y="482"/>
      <point x="488" y="450" type="curve"/>
      <point x="467" y="482"/>
      <point x="382" y="515"/>
      <point x="312" y="515" type="curve" smooth="yes"/>
      <point x="143" y="515"/>
      <point x="24" y="412"/>
      <point x="24" y="246" type="curve" smooth="yes"/>
      <point x="24" y="80"/>
      <point x="143" y="-15"/>
    </contour>
    <contour>
      <point x="311" y="16" type="curve" smooth="yes"/>
      <point x="270" y="16"/>
      <point x="249" y="43"/>
      <point x="249" y="246" type="curve" smooth="yes"/>
      <point x="249" y="444"/>
      <point x="270" y="485"/>
      <point x="311" y="485" type="curve" smooth="yes"/>
      <point x="352" y="485"/>
      <point x="373" y="446"/>
      <point x="373" y="246" type="curve" smooth="yes"/>
      <point x="373" y="42"/>
      <point x="352" y="16"/>
    </contour>
    <contour>
      <point x="599" y="325" type="line"/>
      <point x="602" y="444"/>
      <point x="614" y="485"/>
      <point x="640" y="485" type="curve" smooth="yes"/>
      <point x="665" y="485"/>
      <point x="685" y="446"/>
      <point x="691" y="325" type="curve"/>
    </contour>
  </outline>
</glyph>
<glyph name="florin" format="2">
  <advance width="593"/>
  <unicode hex="0192"/>
  <outline>
    <contour>
      <point x="212" y="547" type="curve" smooth="yes"/>
      <point x="187" y="280" type="line"/>
      <point x="94" y="280" type="line"/>
      <point x="94" y="245" type="line"/>
      <point x="184" y="245" type="line"/>
      <point x="160" y="-1" type="line"/>
      <point x="224" y="0"/>
      <point x="267" y="-37"/>
      <point x="267" y="-94" type="curve" smooth="yes"/>
      <point x="267" y="-137"/>
      <point x="243" y="-178"/>
      <point x="201" y="-178" type="curve" smooth="yes"/>
      <point x="143" y="-178"/>
      <point x="61" y="-110"/>
      <point x="30" y="-12" type="curve"/>
      <point x="10" y="-12" type="line"/>
      <point x="40" y="-168" type="line"/>
      <point x="82" y="-203"/>
      <point x="132" y="-215"/>
      <point x="181" y="-215" type="curve" smooth="yes"/>
      <point x="284" y="-215"/>
      <point x="371" y="-150"/>
      <point x="381" y="-46" type="curve" smooth="yes"/>
      <point x="408" y="245" type="line"/>
      <point x="499" y="245" type="line"/>
      <point x="499" y="280" type="line"/>
      <point x="411" y="280" type="line"/>
      <point x="431" y="500" type="line"/>
      <point x="374" y="500"/>
      <point x="326" y="544"/>
      <point x="326" y="595" type="curve" smooth="yes"/>
      <point x="326" y="638"/>
      <point x="350" y="679"/>
      <point x="392" y="679" type="curve" smooth="yes"/>
      <point x="450" y="679"/>
      <point x="532" y="611"/>
      <point x="563" y="513" type="curve"/>
      <point x="583" y="513" type="line"/>
      <point x="553" y="669" type="line"/>
      <point x="511" y="704"/>
      <point x="461" y="716"/>
      <point x="412" y="716" type="curve" smooth="yes"/>
      <point x="309" y="716"/>
      <point x="222" y="651"/>
    </contour>
  </outline>
</glyph>
<glyph name="jdotless" format="2">
  <advance width="350"/>
  <unicode hex="0237"/>
  <anchor x="175" y="-200" name="bottom"/>
  <anchor x="175" y="500" name="top"/>
  <outline>
    <contour>
      <point x="80" y="-215" type="curve" smooth="yes"/>
      <point x="223" y="-215"/>
      <point x="289" y="-150"/>
      <point x="289" y="-12" type="curve" smooth="yes"/>
      <point x="289" y="500" type="line"/>
      <point x="9" y="500" type="line"/>
      <point x="9" y="480" type="line"/>
      <point x="34" y="479"/>
      <point x="69" y="474"/>
      <point x="69" y="416" type="curve" smooth="yes"/>
      <point x="69" y="-12" type="line" smooth="yes"/>
      <point x="69" y="-106"/>
      <point x="31" y="-153"/>
      <point x="-13" y="-153" type="curve" smooth="yes"/>
      <point x="-39" y="-153"/>
      <point x="-68" y="-135"/>
      <point x="-92" y="-99" type="curve"/>
      <point x="-122" y="-117" type="line"/>
      <point x="-85" y="-182"/>
      <point x="-38" y="-215"/>
    </contour>
  </outline>
</glyph>
<glyph name="gravecomb" format="2">
  <advance width="600"/>
  <unicode hex="0300"/>
  <anchor x="310" y="500" name="_top"/>
  <anchor x="310" y="776" name="top"/>
  <outline>
    <contour>
      <point x="200" y="722" type="line"/>
      <point x="397" y="566" type="line"/>
      <point x="420" y="597" type="line"/>
      <point x="245" y="776" type="line"/>
    </contour>
  </outline>
</glyph>
<glyph name="acutecomb" format="2">
  <advance width="585"/>
  <unicode hex="0301"/>
  <anchor x="294" y="500" name="_top"/>
  <anchor x="294" y="776" name="top"/>
  <outline>
    <contour>
      <point x="404" y="722" type="line"/>
      <point x="359" y="776" type="line"/>
      <point x="184" y="597" type="line"/>
      <point x="207" y="566" type="line"/>
    </contour>
  </outline>
</glyph>
<glyph name="circumflexcomb" format="2">
  <advance width="585"/>
  <unicode hex="0302"/>
  <anchor x="304" y="500" name="_top"/>
  <anchor x="304" y="776" name="top"/>
  <outline>
    <contour>
      <point x="479" y="597" type="line"/>
      <point x="304" y="776" type="line"/>
      <point x="129" y="597" type="line"/>
      <point x="152" y="566" type="line"/>
      <point x="304" y="686" type="line"/>
      <point x="456" y="566" type="line"/>
    </contour>
  </outline>
</glyph>
<glyph name="tildecomb" format="2">
  <advance width="681"/>
  <unicode hex="0303"/>
  <anchor x="351" y="500" name="_top"/>
  <anchor x="351" y="763" name="top"/>
  <outline>
    <contour>
      <point x="243" y="662" type="curve" smooth="yes"/>
      <point x="299" y="662"/>
      <point x="373" y="566"/>
      <point x="451" y="566" type="curve" smooth="yes"/>
      <point x="508" y="566"/>
      <point x="528" y="591"/>
      <point x="528" y="739" type="curve"/>
      <point x="502" y="739" type="line"/>
      <point x="502" y="676"/>
      <point x="485" y="667"/>
      <point x="459" y="667" type="curve" smooth="yes"/>
      <point x="415" y="667"/>
      <point x="329" y="763"/>
      <point x="256" y="763" type="curve" smooth="yes"/>
      <point x="194" y="763"/>
      <point x="174" y="728"/>
      <point x="174" y="590" type="curve"/>
      <point x="200" y="590" type="line"/>
      <point x="200" y="653"/>
      <point x="217" y="662"/>
    </contour>
  </outline>
</glyph>
<glyph name="macroncomb" format="2">
  <advance width="600"/>
  <unicode hex="0304"/>
  <anchor x="308" y="560" name="_top"/>
  <anchor x="308" y="728" name="top"/>
  <outline>
    <contour>
      <point x="148" y="728" type="line"/>
      <point x="148" y="663" type="line"/>
      <point x="468" y="663" type="line"/>
      <point x="468" y="728" type="line"/>
    </contour>
  </outline>
</glyph>
<glyph name="brevecomb" format="2">
  <advance width="600"/>
  <unicode hex="0306"/>
  <anchor x="304" y="500" name="_top"/>
  <anchor x="304" y="766" name="top"/>
  <outline>
    <contour>
      <point x="129" y="766" type="line"/>
      <point x="129" y="644"/>
      <point x="198" y="566"/>
      <point x="304" y="566" type="curve" smooth="yes"/>
      <point x="410" y="566"/>
      <point x="479" y="644"/>
      <point x="479" y="766" type="curve"/>
      <point x="446" y="766" type="line"/>
      <point x="446" y="699"/>
      <point x="397" y="646"/>
      <point x="304" y="646" type="curve" smooth="yes"/>
      <point x="211" y="646"/>
      <point x="162" y="699"/>
      <point x="162" y="766" type="curve"/>
    </contour>
  </outline>
</glyph>
<glyph name="dotaccentcomb" format="2">
  <advance width="600"/>
  <unicode hex="0307"/>
  <anchor x="307" y="507" name="_top"/>
  <anchor x="307" y="703" name="top"/>
  <outline>
    <contour>
      <point x="375" y="635" type="curve" smooth="yes"/>
      <point x="375" y="677"/>
      <point x="342" y="703"/>
      <point x="308" y="703" type="curve" smooth="yes"/>
      <point x="272" y="703"/>
      <point x="239" y="676"/>
      <point x="239" y="635" type="curve" smooth="yes"/>
      <point x="239" y="592"/>
      <point x="272" y="566"/>
      <point x="308" y="566" type="curve" smooth="yes"/>
      <point x="342" y="566"/>
      <point x="375" y="592"/>
    </contour>
  </outline>
</glyph>
<glyph name="dieresiscomb" format="2">
  <advance width="585"/>
  <unicode hex="0308"/>
  <anchor x="301" y="500" name="_top"/>
  <anchor x="301" y="723" name="top"/>
  <outline>
    <contour>
      <point x="204" y="558" type="curve" smooth="yes"/>
      <point x="246" y="558"/>
      <point x="286" y="589"/>
      <point x="286" y="641" type="curve" smooth="yes"/>
      <point x="286" y="692"/>
      <point x="246" y="723"/>
      <point x="204" y="723" type="curve" smooth="yes"/>
      <point x="162" y="723"/>
      <point x="122" y="692"/>
      <point x="122" y="641" type="curve" smooth="yes"/>
      <point x="122" y="589"/>
      <point x="162" y="558"/>
    </contour>
    <contour>
      <point x="398" y="558" type="curve" smooth="yes"/>
      <point x="439" y="558"/>
      <point x="479" y="589"/>
      <point x="479" y="641" type="curve" smooth="yes"/>
      <point x="479" y="692"/>
      <point x="439" y="723"/>
      <point x="398" y="723" type="curve" smooth="yes"/>
      <point x="355" y="723"/>
      <point x="315" y="690"/>
      <point x="315" y="641" type="curve" smooth="yes"/>
      <point x="315" y="589"/>
      <point x="355" y="558"/>
    </contour>
  </outline>
</glyph>
<glyph name="ringcomb" format="2">
  <advance width="600"/>
  <unicode hex="030A"/>
  <anchor x="318" y="500" name="_top"/>
  <anchor x="318" y="781" name="top"/>
  <outline>
    <contour>
      <point x="318" y="595" type="curve" smooth="yes"/>
      <point x="369" y="595"/>
      <point x="411" y="637"/>
      <point x="411" y="688" type="curve" smooth="yes"/>
      <point x="411" y="739"/>
      <point x="369" y="781"/>
      <point x="318" y="781" type="curve" smooth="yes"/>
      <point x="267" y="781"/>
      <point x="225" y="739"/>
      <point x="225" y="688" type="curve" smooth="yes"/>
      <point x="225" y="637"/>
      <point x="267" y="595"/>
    </contour>
    <contour>
      <point x="318" y="629" type="curve" smooth="yes"/>
      <point x="285" y="629"/>
      <point x="260" y="655"/>
      <point x="260" y="688" type="curve" smooth="yes"/>
      <point x="260" y="721"/>
      <point x="285" y="747"/>
      <point x="318" y="747" type="curve" smooth="yes"/>
      <point x="351" y="747"/>
      <point x="376" y="721"/>
      <point x="376" y="688" type="curve" smooth="yes"/>
      <point x="376" y="655"/>
      <point x="351" y="629"/>
    </contour>
  </outline>
</glyph>
<glyph name="hungarumlautcomb" format="2">
  <advance width="600"/>
  <unicode hex="030B"/>
  <anchor x="383" y="500" name="_top"/>
  <anchor x="383" y="776" name="top"/>
  <outline>
    <contour>
      <point x="404" y="722" type="line"/>
      <point x="359" y="776" type="line"/>
      <point x="184" y="597" type="line"/>
      <point x="207" y="566" type="line"/>
    </contour>
    <contour>
      <point x="582" y="702" type="line"/>
      <point x="544" y="761" type="line"/>
      <point x="348" y="606" type="line"/>
      <point x="366" y="572" type="line"/>
    </contour>
  </outline>
</glyph>
<glyph name="caroncomb" format="2">
  <advance width="600"/>
  <unicode hex="030C"/>
  <anchor x="304" y="500" name="_top"/>
  <anchor x="304" y="776" name="top"/>
  <outline>
    <contour>
      <point x="129" y="745" type="line"/>
      <point x="304" y="566" type="line"/>
      <point x="479" y="745" type="line"/>
      <point x="456" y="776" type="line"/>
      <point x="304" y="656" type="line"/>
      <point x="152" y="776" type="line"/>
    </contour>
  </outline>
</glyph>
<glyph name="commaturnedabovecomb" format="2">
  <advance width="600"/>
  <unicode hex="0312"/>
  <anchor x="334" y="500" name="_top"/>
  <anchor x="334" y="833" name="top"/>
  <outline>
    <contour>
      <point x="372" y="833" type="line"/>
      <point x="285" y="785"/>
      <point x="259" y="714"/>
      <point x="259" y="647" type="curve" smooth="yes"/>
      <point x="259" y="599"/>
      <point x="276" y="535"/>
      <point x="337" y="535" type="curve" smooth="yes"/>
      <point x="377" y="535"/>
      <point x="408" y="565"/>
      <point x="408" y="604" type="curve" smooth="yes"/>
      <point x="408" y="648"/>
      <point x="375" y="674"/>
      <point x="339" y="674" type="curve" smooth="yes"/>
      <point x="326" y="674"/>
      <point x="315" y="671"/>
      <point x="301" y="663" type="curve"/>
      <point x="288" y="718"/>
      <point x="325" y="778"/>
      <point x="382" y="810" type="curve"/>
    </contour>
  </outline>
</glyph>
<glyph name="commaaccentcomb" format="2">
  <advance width="600"/>
  <unicode hex="0326"/>
  <anchor x="329" y="0" name="_bottom"/>
  <anchor x="329" y="-227" name="bottom"/>
  <outline>
    <contour>
      <point x="272" y="-277" type="line"/>
      <point x="374" y="-238"/>
      <point x="389" y="-151"/>
      <point x="385" y="-95" type="curve" smooth="yes"/>
      <point x="383" y="-58"/>
      <point x="356" y="-36"/>
      <point x="326" y="-36" type="curve" smooth="yes"/>
      <point x="295" y="-36"/>
      <point x="269" y="-59"/>
      <point x="269" y="-93" type="curve" smooth="yes"/>
      <point x="269" y="-128"/>
      <point x="296" y="-151"/>
      <point x="326" y="-151" type="curve" smooth="yes"/>
      <point x="335" y="-151"/>
      <point x="342" y="-149"/>
      <point x="349" y="-146" type="curve"/>
      <point x="354" y="-187"/>
      <point x="321" y="-236"/>
      <point x="266" y="-257" type="curve"/>
    </contour>
  </outline>
</glyph>
<glyph name="cedillacomb" format="2">
  <advance width="556"/>
  <unicode hex="0327"/>
  <anchor x="333" y="0" name="_bottom"/>
  <anchor x="333" y="-217" name="bottom"/>
  <outline>
    <contour>
      <point x="248" y="-170" type="curve"/>
      <point x="234" y="-196" type="line"/>
      <point x="249" y="-210"/>
      <point x="274" y="-217"/>
      <point x="308" y="-217" type="curve" smooth="yes"/>
      <point x="393" y="-217"/>
      <point x="432" y="-185"/>
      <point x="432" y="-141" type="curve" smooth="yes"/>
      <point x="432" y="-100"/>
      <point x="388" y="-58"/>
      <point x="308" y="-59" type="curve"/>
      <point x="348" y="14" type="line"/>
      <point x="312" y="14" type="line"/>
      <point x="270" y="-60" type="line"/>
      <point x="270" y="-88" type="line"/>
      <point x="323" y="-88"/>
      <point x="350" y="-113"/>
      <point x="350" y="-146" type="curve" smooth="yes"/>
      <point x="350" y="-176"/>
      <point x="326" y="-187"/>
      <point x="300" y="-187" type="curve" smooth="yes"/>
      <point x="280" y="-187"/>
      <point x="258" y="-180"/>
    </contour>
  </outline>
</glyph>
<glyph name="ogonekcomb" format="2">
  <advance width="600"/>
  <unicode hex="0328"/>
  <anchor x="402" y="4" name="_ogonek"/>
  <outline>
    <contour>
      <point x="306" y="16" type="line"/>
      <point x="158" y="-137"/>
      <point x="195" y="-234"/>
      <point x="290" y="-234" type="curve" smooth="yes"/>
      <point x="348" y="-234"/>
      <point x="380" y="-197"/>
      <point x="402" y="-171" type="curve"/>
      <point x="383" y="-150" type="line"/>
      <point x="365" y="-171"/>
      <point x="346" y="-180"/>
      <point x="321" y="-180" type="curve" smooth="yes"/>
      <point x="246" y="-180"/>
      <point x="252" y="-85"/>
      <point x="327" y="-1" type="curve"/>
    </contour>
  </outline>
</glyph>
<glyph name="mu" format="2">
  <advance width="662"/>
  <unicode hex="03BC"/>
  <outline>
    <contour>
      <point x="283" y="233" type="line"/>
      <point x="63" y="233" type="line"/>
      <point x="63" y="153" type="line" smooth="yes"/>
      <point x="63" y="47"/>
      <point x="158" y="-15"/>
      <point x="245" y="-15" type="curve" smooth="yes"/>
      <point x="299" y="-15"/>
      <point x="350" y="8"/>
      <point x="374" y="93" type="curve"/>
      <point x="374" y="0" type="line"/>
      <point x="654" y="0" type="line"/>
      <point x="654" y="20" type="line"/>
      <point x="628" y="21"/>
      <point x="594" y="26"/>
      <point x="594" y="84" type="curve" smooth="yes"/>
      <point x="594" y="500" type="line"/>
      <point x="374" y="500" type="line"/>
      <point x="374" y="228" type="line" smooth="yes"/>
      <point x="374" y="133"/>
      <point x="349" y="84"/>
      <point x="325" y="84" type="curve" smooth="yes"/>
      <point x="303" y="84"/>
      <point x="283" y="124"/>
      <point x="283" y="206" type="curve" smooth="yes"/>
    </contour>
    <contour>
      <point x="63" y="-199" type="line"/>
      <point x="283" y="-199" type="line"/>
      <point x="283" y="500" type="line"/>
      <point x="63" y="500" type="line"/>
    </contour>
  </outline>
</glyph>
<glyph name="endash" format="2">
  <advance width="504"/>
  <unicode hex="2013"/>
  <outline>
    <contour>
      <point x="61" y="286" type="line"/>
      <point x="61" y="226" type="line"/>
      <point x="443" y="226" type="line"/>
      <point x="443" y="286" type="line"/>
    </contour>
  </outline>
</glyph>
<glyph name="emdash" format="2">
  <advance width="674"/>
  <unicode hex="2014"/>
  <outline>
    <contour>
      <point x="61" y="286" type="line"/>
      <point x="61" y="226" type="line"/>
      <point x="613" y="226" type="line"/>
      <point x="613" y="286" type="line"/>
    </contour>
  </outline>
</glyph>
<glyph name="quotedblleft" format="2">
  <advance width="427"/>
  <unicode hex="201C"/>
  <outline>
    <contour>
      <point x="167" y="714" type="line"/>
      <point x="61" y="669"/>
      <point x="47" y="591"/>
      <point x="52" y="523" type="curve" smooth="yes"/>
      <point x="55" y="479"/>
      <point x="87" y="452"/>
      <point x="123" y="452" type="curve" smooth="yes"/>
      <point x="161" y="452"/>
      <point x="192" y="480"/>
      <point x="192" y="521" type="curve" smooth="yes"/>
      <point x="192" y="563"/>
      <point x="159" y="591"/>
      <point x="123" y="591" type="curve" smooth="yes"/>
      <point x="113" y="591"/>
      <point x="104" y="589"/>
      <point x="95" y="585" type="curve"/>
      <point x="97" y="634"/>
      <point x="122" y="660"/>
      <point x="174" y="690" type="curve"/>
    </contour>
    <contour>
      <point x="357" y="714" type="line"/>
      <point x="251" y="669"/>
      <point x="237" y="591"/>
      <point x="242" y="523" type="curve" smooth="yes"/>
      <point x="245" y="479"/>
      <point x="277" y="452"/>
      <point x="313" y="452" type="curve" smooth="yes"/>
      <point x="351" y="452"/>
      <point x="382" y="480"/>
      <point x="382" y="521" type="curve" smooth="yes"/>
      <point x="382" y="563"/>
      <point x="349" y="591"/>
      <point x="313" y="591" type="curve" smooth="yes"/>
      <point x="303" y="591"/>
      <point x="294" y="589"/>
      <point x="285" y="585" type="curve"/>
      <point x="287" y="634"/>
      <point x="312" y="660"/>
      <point x="364" y="690" type="curve"/>
    </contour>
  </outline>
</glyph>
<glyph name="dagger" format="2">
  <advance width="465"/>
  <unicode hex="2020"/>
  <outline>
    <contour>
      <point x="222" y="-200" type="line"/>
      <point x="242" y="-200" type="line"/>
      <point x="312" y="331" type="line"/>
      <point x="264" y="333"/>
      <point x="250" y="387"/>
      <point x="250" y="492" type="curve" smooth="yes"/>
      <point x="250" y="654"/>
      <point x="257" y="675"/>
      <point x="310" y="679" type="curve"/>
      <point x="310" y="699" type="line"/>
      <point x="155" y="699" type="line"/>
      <point x="155" y="679" type="line"/>
      <point x="208" y="675"/>
      <point x="215" y="654"/>
      <point x="215" y="492" type="curve" smooth="yes"/>
      <point x="215" y="387"/>
      <point x="200" y="333"/>
      <point x="152" y="331" type="curve"/>
    </contour>
    <contour>
      <point x="385" y="500" type="line"/>
      <point x="80" y="500" type="line"/>
      <point x="80" y="465" type="line"/>
      <point x="385" y="465" type="line"/>
    </contour>
  </outline>
</glyph>
<glyph name="daggerdbl" format="2">
  <advance width="425"/>
  <unicode hex="2021"/>
  <outline>
    <contour>
      <point x="194" y="250" type="line"/>
      <point x="132" y="58" type="line"/>
      <point x="180" y="56"/>
      <point x="195" y="12"/>
      <point x="195" y="-73" type="curve" smooth="yes"/>
      <point x="195" y="-145"/>
      <point x="188" y="-176"/>
      <point x="135" y="-180" type="curve"/>
      <point x="135" y="-200" type="line"/>
      <point x="290" y="-200" type="line"/>
      <point x="290" y="-180" type="line"/>
      <point x="237" y="-176"/>
      <point x="230" y="-145"/>
      <point x="230" y="-73" type="curve" smooth="yes"/>
      <point x="230" y="12"/>
      <point x="244" y="56"/>
      <point x="292" y="58" type="curve"/>
      <point x="230" y="250" type="line"/>
      <point x="292" y="441" type="line"/>
      <point x="244" y="443"/>
      <point x="230" y="487"/>
      <point x="230" y="572" type="curve" smooth="yes"/>
      <point x="230" y="644"/>
      <point x="237" y="675"/>
      <point x="290" y="679" type="curve"/>
      <point x="290" y="699" type="line"/>
      <point x="135" y="699" type="line"/>
      <point x="135" y="679" type="line"/>
      <point x="188" y="675"/>
      <point x="195" y="644"/>
      <point x="195" y="572" type="curve" smooth="yes"/>
      <point x="195" y="487"/>
      <point x="180" y="443"/>
      <point x="132" y="441" type="curve"/>
    </contour>
    <contour>
      <point x="365" y="590" type="line"/>
      <point x="60" y="590" type="line"/>
      <point x="60" y="555" type="line"/>
      <point x="365" y="555" type="line"/>
    </contour>
    <contour>
      <point x="365" y="-91" type="line"/>
      <point x="365" y="-56" type="line"/>
      <point x="60" y="-56" type="line"/>
      <point x="60" y="-91" type="line"/>
    </contour>
  </outline>
</glyph>
<glyph name="bullet" format="2">
  <advance width="431"/>
  <unicode hex="2022"/>
  <outline>
    <contour>
      <point x="217" y="122" type="curve" smooth="yes"/>
      <point x="294" y="122"/>
      <point x="372" y="169"/>
      <point x="372" y="264" type="curve" smooth="yes"/>
      <point x="372" y="365"/>
      <point x="294" y="414"/>
      <point x="215" y="414" type="curve" smooth="yes"/>
      <point x="136" y="414"/>
      <point x="59" y="367"/>
      <point x="59" y="268" type="curve" smooth="yes"/>
      <point x="59" y="169"/>
      <point x="136" y="122"/>
    </contour>
  </outline>
</glyph>
<glyph name="guilsinglleft" format="2">
  <advance width="253"/>
  <unicode hex="2039"/>
  <outline>
    <contour>
      <point x="198" y="437" type="line"/>
      <point x="9" y="262" type="line"/>
      <point x="198" y="87" type="line"/>
      <point x="229" y="110" type="line"/>
      <point x="99" y="262" type="line"/>
      <point x="229" y="414" type="line"/>
    </contour>
  </outline>
</glyph>
<glyph name="guilsinglright" format="2">
  <advance width="252"/>
  <unicode hex="203A"/>
  <outline>
    <contour>
      <point x="54" y="437" type="line"/>
      <point x="23" y="414" type="line"/>
      <point x="153" y="262" type="line"/>
      <point x="23" y="110" type="line"/>
      <point x="54" y="87" type="line"/>
      <point x="243" y="262" type="line"/>
    </contour>
  </outline>
</glyph>
<glyph name="fraction" format="2">
  <advance width="600"/>
  <unicode hex="2044"/>
  <outline>
    <contour>
      <point x="402" y="700" type="line"/>
      <point x="20" y="0" type="line"/>
      <point x="94" y="0" type="line"/>
      <point x="476" y="700" type="line"/>
    </contour>
  </outline>
</glyph>
<glyph name="euro" format="2">
  <advance width="690"/>
  <unicode hex="20AC"/>
  <outline>
    <contour>
      <point x="418" y="-15" type="curve" smooth="yes"/>
      <point x="462" y="-15"/>
      <point x="564" y="4"/>
      <point x="607" y="63" type="curve"/>
      <point x="627" y="230" type="line"/>
      <point x="587" y="230" type="line"/>
      <point x="541" y="83"/>
      <point x="484" y="21"/>
      <point x="434" y="21" type="curve" smooth="yes"/>
      <point x="371" y="21"/>
      <point x="320" y="135"/>
      <point x="320" y="332" type="curve" smooth="yes"/>
      <point x="320" y="551"/>
      <point x="373" y="677"/>
      <point x="440" y="677" type="curve" smooth="yes"/>
      <point x="487" y="677"/>
      <point x="541" y="618"/>
      <point x="587" y="470" type="curve"/>
      <point x="627" y="470" type="line"/>
      <point x="607" y="637" type="line"/>
      <point x="576" y="679"/>
      <point x="492" y="715"/>
      <point x="413" y="715" type="curve" smooth="yes"/>
      <point x="242" y="715"/>
      <point x="119" y="574"/>
      <point x="119" y="345" type="curve" smooth="yes"/>
      <point x="119" y="143"/>
      <point x="238" y="-15"/>
    </contour>
    <contour>
      <point x="40" y="249" type="line"/>
      <point x="523" y="249" type="line"/>
      <point x="523" y="284" type="line"/>
      <point x="40" y="283" type="line"/>
    </contour>
    <contour>
      <point x="40" y="416" type="line"/>
      <point x="523" y="416" type="line"/>
      <point x="523" y="451" type="line"/>
      <point x="40" y="451" type="line"/>
    </contour>
  </outline>
</glyph>
<glyph name="trademark" format="2">
  <advance width="673"/>
  <unicode hex="2122"/>
  <outline>
    <contour>
      <point x="299" y="715" type="line"/>
      <point x="30" y="715" type="line"/>
      <point x="30" y="609" type="line"/>
      <point x="39" y="609" type="line"/>
      <point x="42" y="647"/>
      <point x="52" y="699"/>
      <point x="116" y="699" type="curve" smooth="yes"/>
      <point x="118" y="699" type="line"/>
      <point x="118" y="450" type="line" smooth="yes"/>
      <point x="118" y="425"/>
      <point x="103" y="422"/>
      <point x="92" y="419" type="curve"/>
      <point x="92" y="414" type="line"/>
      <point x="239" y="414" type="line"/>
      <point x="239" y="419" type="line"/>
      <point x="228" y="422"/>
      <point x="213" y="425"/>
      <point x="213" y="450" type="curve" smooth="yes"/>
      <point x="213" y="699" type="line"/>
      <point x="216" y="699" type="line" smooth="yes"/>
      <point x="278" y="699"/>
      <point x="288" y="647"/>
      <point x="291" y="609" type="curve"/>
      <point x="299" y="609" type="line"/>
    </contour>
    <contour>
      <point x="624" y="706" type="curve"/>
      <point x="624" y="715" type="line"/>
      <point x="503" y="715" type="line"/>
      <point x="472" y="640" type="line"/>
      <point x="442" y="715" type="line"/>
      <point x="317" y="715" type="line"/>
      <point x="317" y="706" type="line"/>
      <point x="329" y="706"/>
      <point x="343" y="704"/>
      <point x="343" y="679" type="curve" smooth="yes"/>
      <point x="343" y="450" type="line" smooth="yes"/>
      <point x="343" y="425"/>
      <point x="329" y="423"/>
      <point x="317" y="423" type="curve"/>
      <point x="317" y="414" type="line"/>
      <point x="389" y="414" type="line"/>
      <point x="389" y="423" type="line"/>
      <point x="378" y="423"/>
      <point x="363" y="425"/>
      <point x="363" y="450" type="curve" smooth="yes"/>
      <point x="363" y="657" type="line"/>
      <point x="433" y="480" type="line"/>
      <point x="503" y="666" type="line"/>
      <point x="503" y="450" type="line" smooth="yes"/>
      <point x="503" y="425"/>
      <point x="488" y="423"/>
      <point x="478" y="423" type="curve"/>
      <point x="478" y="414" type="line"/>
      <point x="624" y="414" type="line"/>
      <point x="624" y="423" type="line"/>
      <point x="613" y="423"/>
      <point x="598" y="425"/>
      <point x="598" y="450" type="curve" smooth="yes"/>
      <point x="598" y="679" type="line" smooth="yes"/>
      <point x="598" y="704"/>
      <point x="613" y="706"/>
    </contour>
  </outline>
</glyph>
<glyph name="leftArrow" format="2">
  <advance width="724"/>
  <unicode hex="2190"/>
  <outline>
    <contour>
      <point x="240" y="77" type="line"/>
      <point x="271" y="100" type="line"/>
      <point x="131" y="252" type="line"/>
      <point x="271" y="404" type="line"/>
      <point x="240" y="427" type="line"/>
      <point x="26" y="252" type="line"/>
    </contour>
    <contour>
      <point x="127" y="235" type="line"/>
      <point x="689" y="234" type="line"/>
      <point x="689" y="269" type="line"/>
      <point x="127" y="270" type="line"/>
    </contour>
  </outline>
</glyph>
<glyph name="upArrow" format="2">
  <advance width="392"/>
  <unicode hex="2191"/>
  <outline>
    <contour>
      <point x="21" y="367" type="line"/>
      <point x="44" y="336" type="line"/>
      <point x="196" y="476" type="line"/>
      <point x="348" y="336" type="line"/>
      <point x="371" y="367" type="line"/>
      <point x="196" y="581" type="line"/>
    </contour>
    <contour>
      <point x="179" y="-72" type="line"/>
      <point x="214" y="-72" type="line"/>
      <point x="213" y="480" type="line"/>
      <point x="178" y="480" type="line"/>
    </contour>
  </outline>
</glyph>
<glyph name="rightArrow" format="2">
  <advance width="726"/>
  <unicode hex="2192"/>
  <outline>
    <contour>
      <point x="484" y="427" type="line"/>
      <point x="453" y="404" type="line"/>
      <point x="593" y="252" type="line"/>
      <point x="453" y="100" type="line"/>
      <point x="484" y="77" type="line"/>
      <point x="698" y="252" type="line"/>
    </contour>
    <contour>
      <point x="35" y="234" type="line"/>
      <point x="597" y="235" type="line"/>
      <point x="597" y="270" type="line"/>
      <point x="35" y="269" type="line"/>
    </contour>
  </outline>
</glyph>
<glyph name="downArrow" format="2">
  <advance width="392"/>
  <unicode hex="2193"/>
  <outline>
    <contour>
      <point x="196" y="-71" type="line"/>
      <point x="371" y="143" type="line"/>
      <point x="348" y="174" type="line"/>
      <point x="196" y="34" type="line"/>
      <point x="44" y="174" type="line"/>
      <point x="21" y="143" type="line"/>
    </contour>
    <contour>
      <point x="178" y="30" type="line"/>
      <point x="213" y="30" type="line"/>
      <point x="214" y="582" type="line"/>
      <point x="179" y="582" type="line"/>
    </contour>
  </outline>
</glyph>
